<mxfile host="app.diagrams.net" modified="2024-05-11T14:13:19.252Z" agent="Mozilla/5.0 (Windows NT 10.0; Win64; x64) AppleWebKit/537.36 (KHTML, like Gecko) Chrome/124.0.0.0 Safari/537.36" etag="dNWM_PW0N5bw2HF8DMFe" version="24.4.0" type="github">
  <diagram name="Page-1" id="QpiWNOtHf6C9qXmkVL9T">
    <mxGraphModel dx="1235" dy="669" grid="1" gridSize="10" guides="1" tooltips="1" connect="1" arrows="1" fold="1" page="1" pageScale="1" pageWidth="827" pageHeight="1169" math="0" shadow="0">
      <root>
        <mxCell id="0" />
        <mxCell id="1" parent="0" />
        <mxCell id="-rYXa19Bb-40bHIPveaP-1" value="" style="shape=image;imageAspect=0;aspect=fixed;verticalLabelPosition=bottom;verticalAlign=top;image=data:image/png,iVBORw0KGgoAAAANSUhEUgAAAPoAAAD6CAMAAAC/MqoPAAAABGdBTUEAALGPC/xhBQAAAAFzUkdCAK7OHOkAAAMAUExURQAAAB8fHwgHBgQDAyEdHAcHBxwbGTAvMCUkIu/j0tTNy//63v/x2P7vzfzqxfvnuvfgsPLaou3Rk+fGge7Oi924ceO/d9GqYcuiWMWcTtWwbL2UR7OMQcSjZt+9f9G1f+THjf3ipPfXlr+aWbWRUauJUqaBPpdzNpp7RYtsMoNfJJRnHHRQGqVzIbaAKNmXL+OgNciLKjQhBCEUA3dOBYNWB1s6BGdDDCobBDwnB1E1CEYsBd6wT86lTHJcKmJOJFZCHD0wFUg5GfLLY+bAXebTo9u1ZOa8qzAwMjw9PsvLy6ioqX+Agl1dW/rXesC+vLe1s6eaj9G+rnRoYqKRh8hjYa4wMLs4OJ0tLJEoJoomI4UjIXofHHIbGWsWFWAUFCUGBjQICFEPD0MMDBIEAhkNBwQCAg4LCTMgFyocEyIVD08/MFpKNGFRP2dZSXRmUH9tWo6Ca5iHcZJ6Z6SOea2YhLShj7ypmMKvn8a1p8m5rM2+stPDt9zOwdbIvOHTyImBfFpVU2BbWkA9PTo2NlFPTTMwLigkIRcTER8bGTMnICggGkQ4KjkxKVVKQC8qKEtCPEU8NGlhXYN3a9m+o9O3nMyymMuvlsitksOojb6iibqehLaafrCTeKuKb6OEZ5V3WZx/Y4luT8SodLSXZXFeQYRsf5F6je2rNL2wpbSon6+il5eLg0pHRWlnaK+sqouKinx7e6WjotvY1v/++//8+P////328v/59fbv6u7n4+ff3OXV0tO8wsiyur6os7Weq66XpKeMnKh8jZ1sgJxdc5ZSarNoesB6j7qQn92wu9SjsM+QoohYbnlJYG08VWMxS3xMRnMsKUImG0grIE4xJlU2K1s8MWNDN21MQHZTR31YSz0pJK10X72CY5FeUZltXeKhi9OQhcKKef7Hrvy8oPCwlvO9pfXGsPnPuvjVw/7dyf7lz/PcxOnSvOHJsv/+7MnHxZaRkZybm3RwbwICAgYGBgAAAAAAAAICAg0JBgMCAQIBAQgICA4LCAwMDHqe5O0AAAEAdFJOUwAJzLntP9zrzv///////////////////////////////////////////////////////////////////////////////////7GcFjZYev///////////////////////////////////////////////////////////////////////////v//////////////////////////////////////////////////////////////////////////////////////////////////////////////////////////////////////////////////W09+kzHwa6cj4BUBsZVTAAA02UlEQVR42uzXPW/TQBgH8LMvjpPmzU3iJs57Y/tsR+xEQqhhIDtCfAIk6MACEkh0CiodiBqJohaJiaK0AwMl0An1O/BNiqIqtpPGztEKIZVmL5Xv+d10251O93+eBwEAAAAAAAAAAAAAAAAAAAAAAAAAAACuA+r7lEPscbzIq4ODDdGzKWLKBH9biB5L0nF0YRCeIoY460fxmiwvZev15diPAfbRVePR/yH0mg9TEwEheraEB61fUQGxgYa3lZLWf383lUgtS1IqOTwKTRAT3GekFeIx5sV3n+OJVDqTGB7yTEQ9F27hP7FOHW/9ZSyezsSHJy5igPDYvrDhO7FhNiNFRRZqnDtFF3De/USynZZOWChxl+/oPV1Mt7NrHmIPx3/ItOWdCGKQ8LaSy1dFDl2hELoWpk+Sa/jfswS2m7ss+hMhjoWEn8eFtJKBEZOwQVaY6GnmeTeMVR8xaXxzhcWyfm7cajIyus3xbo0Ro2anrP106p+hCAmPWJhd/qKO60XErc3NOzPexbzv+2y0NNT2vozuPd9Tc3JB08395mq32wthN/BRR12x82KnTEpyvVbWddI3G2bDMMxP+13soADjXPHrtm4aRFmqqxYhpFJumLppmaax19/t4eC+vB35nqxaFsnnlIpuqcVSMWuYxCR9Qy8berWye+ra7jlbCNbnp94ouqhYBinklZpGCopSlAuWqumaWiFqTdM+br3eGHUGg0Fn9CaEpzQIQyvnT3zqiIel25HUjI5mv6m37+io6ryP45/v7947HRJCDSWIUkITBELTFUSKi7AIgmBZXKlCKAnFQluqlA2kQVhkXRvIqgsSEFDZ51kQXbpUQXookhCE1MnMLb/f9zEBPPvo4Zzn7HME8vpj/pkz58z7fO/MnLn3ezU7HM5TYBWoALBmmWyZltRz8/bvm3X0q6++Ci5xr/77RiNU7s9Rm2HX3DlzrDkzYmpE146N/XHmNWOia9asUaN6TKUmDWvVjL2vVv2qVWrXXXjk26NHj357/MSJ0adPncqa/NE6YeBXQbgjJC9wmmJfraLwm8SGV79GglwNDzGR0oKVAgXuUIWQpbvzW9ux8YxSlKolEsBiRfuLI/zlN932TjtaezTM9c6bSrkWzM8HS18JGIJsd0FNCkqOKrZ08KJLTxLKZGA0C00ALDJiRvrKa3p4ea3dI0F2ZpvBLEjzTRuvOyRb036dHERcjQ4qhQgUsuEs3jYepUiljQcYmkYAMqIT3OXya46cN4sfHMnK3tBsKJgtonHwVnS0b8CyhVTXsuCwJiQBEn/RASq1XCOASNpMRPGXvFQez8iSCF8cur43U3JyzZbfCQ64SqDyoVru3Qs6qIQaVOTothYKEAjgskcwxgFgENt6el2qMzzFWw7TQ2/OHK7Op40b2ntHh/3QvZLyhQKLw0qwUmCGohb7hS39xbb25GkCCHAxASAGpTP1JmJNauUnnRyTCEypvuHKiV+a8lTrAW054FyLTpjMTMpwwGAFximlUMFShW4W8tPGxARQ0iSHWS0jsnm8pgEibUz5+awTvaEWWpb9uVmUmk40Ho1t4xsOlbTtnggG4yEJZsU/muzFgUJAeohUbl0QSiWlZm5YH904tk7dpWkK4N8JLjfprM15deD32TO2H2jQ5fFP01V97yBIeJ3fzRUAQFAAAyBUnxHpJ13B1oR2/WMJAErW69YoWHIw6/y1gBavAFBKSblJh22mLnGsoUPmt2j9L1+95HhHZ0bhebWHAEAcZgYxQDh2DPmti5QogEPK/ymAtJTms/Z/+cILc4YGQyfiiQGgt7v8pIP0tDQCO8oMmkLIjnAUy3mFbehHIAkighCC6DwUmCXrOtPJi+m8pHbNvFHPDXGY0nncOIAZYCGo/KQD3uWpREsXp2m/6x2zsw4zlF7SFATcqAcI0ISvBdM+HYq+EQGBjfenJJcUXSlhQSKdxwqAACKIRU65+YYv5X5jKViPN4gStkMCHFBdFYGJoEAACDj3dsXrZLfbo0TMnyfqiM16YvZwR6ZmqPgtZeW8VNwnntRw3lOepm585FNyTLxysPiFZ4jBwgeqLYgqEQNEICIMOtd1PPigBkU9DbO+WePrYVIiYRRlnJ6sQS3NIH4SG5NVvYLylB7iM6QJkFIxQ4kJHFUdn2moBCIAEARRgU89oE2WmgmAYoTI+e0zI1mCSB/PsJGWMXrM2DFGn77jU7IY/xGT7kI6e9TLpeVEDrvKaguE3qNSYLaGACoSUVTFPZ5K+hlP8kWG1AhUpPfoT1BMBLBomJZKYzUwgVlLiHHhPyHJuQvpoel7pbJBRKpROwGhQRfx7xjeOfsck4IEUbQN9IWWqCKiGQwC2T5TMisiENSB5XUxDgxoAFj0t/5PpcGgiX/HIzx3IZ1aKo4XDBC+A0EQKM1RAPVwCEJEPuTp0Q1AivZEriJiEKG/IcAMALTFHdbG4cbrSq2LxO2ZYSHCDArJrt07OoyfGMOo8G6kHxjJpFDKwfBzVJH0zYHiKQIwQaTjgMRW9HA+X+dLAQAiDXEKUCAQwIg6RwQInVCKwritUOdWrVp1YcPu8rBjiU46fqIEu+nOp+uVFSBABNLh3A8Igu497sggMTEBsijuelF+kaa8qyQAkMgWTCAQG6l9nwxAbUhN1S1JAHiifvvy3wb9RHaHIb9xSLrYamHjJvP3EkMt0B3/XT/VdZmkjHgNQuF+QMF31ugV/baAUG5HKyRA81u++hE88H2CII4EYjL5HIOIx3JWc97UUwh7C59JFJCKcRsyvsBNmqmr/aTvsOgREmy6UYYFODTesXx3ON0ZxawJtYzrnW20e9vZhiHgAdu31R8CmJXQ/A1wmDx0YX/B032bvqCz4sIzY9haSjzRIqgEMl1MQB9YqeOFbuF21Ffk2xnUPe0tsVsHwo9bj/wLZUg4ms3h+ROAX9Lw65l6PV2MiWvfLq55x6NRiau+FBW11s3ErvY/VFZv7EaEd9reJvx8XIe2xVWburetTmudG4o8547ltu3aKwIgnE8bo4wet7FRo3m4DWPG+9Rye2ChfGLtiFfmAfOyVvKI2ShlnGcthJmqjbrTv+ubxWgQoDkyy3n7IgglTNhy4aGWI34YPWnkiMIBneO8Q56f8np/UlXSg4c1Dxy2FMAMAIrO4gbW+2aajF/iYMguMYc1auYkpkz68JpOPgBsaOQolCrUVDF5Vp+w7vRn3XtaI5Th+JPR0W8TubdUf/w9QYxSBHAnchb3eC9LNOpdnNDM9tihzy+MBhMAAuMBxk3Jy1/BL4WM6VEvrTykAMddI+fQQL0suGTSXvYolAq86BC/8t3AKXc6nbQhICIA0M8P2+ozCzU+8MSGb8V0hwEwABrxcF5lK4wDnu45RxqFPeHshviJOotbVmg2fkYqSvrgUPYCH0vF3moVOtn7TAOG4i4OqWIfQGHBLzF7p3cS8k6nozABN9EJujRprktXj8VHgf5yfQKjDNU+eV+bs/vrddrVxUj9thnp109mxAO3TssqQpnMYg/+NzblSNHsoOgc+iQEiAYtWGL+H0GyjdLQfJmyjbCro/2gDYoufjkBdzw9QNpYlOHxadxAUPDqwWe31YjLvB83KW/sD9Yyo9PrQ8P+AboelnyxZ/o43LCpHhilNp7vGSYPgsKDm0yOt9mIacL2kUe7kF6w3jzCLYME1YbR+PChR/SvZFsiFxHyT32o34V/bhxKu3Vki2cuuF1+t5PbbapU28G4aVJ/TvR4tp37bhvpWyfDpRWQSsMNWb1QJm39wRGtu0jZy49bfMMsx3RIOv0nv/zBxzsz1yV9frmXBEp2Chcxs9RtN7FU6Prb1TruQjrcTrpCGXa07wYj8MejVB+XPX1wC1MFrzuvM97tA9fR531uWrxph1zKBEBXAgDk4ofPnZvoKmoRezmImyRDStIPQ6zSi6eumbUhVGzphhuhx9s/aB7mli7VYZwskfa+liNHeHBX0uFLbpJa1gEac6Z1gjYXyR9eS/KOMAg30demm84CDLsZIHzZV4r+SakpCmpJAgAnbWnnmX6vpzAvVPJ4BZSRzsJ5cBgJ3r4HvugwOqwoGGBzdxDBxxxxiCSn7CTrMOtKlXDIh7uUDh+l1E/VpdRT69c6G+0I4Te8VVyNh+IWbhBtVXcxwHa3TUKN2uygMG6vtiktBSmpaYuXHfvnHF3ohuHT+y62Ucqkufv8QNKydePCM762DnWA//WgSxe67bJyzFDI/bU/1KIkqIHq9pvgxl1LB3mMpNqNGtVaqZqkHB/ghE9mLG1x8fhbuIUnturdbxJDfnH0gznVRpw/XcIy19qwrOMjhtv92GdfXWZM61aja9duZxd5UEoa6+zRMUja5ZnrEWAOMdRs8HM5zdtxm0E1CqOLXAbvnH61z5AxPVPcuD3CnRKe8ZfJnlozHl38ZVpPepbxE9IkM/+pavZBc8BbeZp05i8vFjmq8jUwc0ATbCcdaL2z9lRLQ6ngYquT/WbS6qmmzyVPLtkQrOnZOfaIucs//mPNGE7hH9ZHtDlGQ0fmG45h+e6JdGfFh13/8WR85vmiRPwcgxfI+ORuozWAzUlfXBFTRhERs0JAFzDZj/qBuEQvgGCFpOYWP5NPBkKp37dTedO89fZqhexjubAg5qKVzk/9I7JYXidCqXtj6tbS6On+Wr1Nuvoq/6IcDuyq0T7BSg2vskKD9uooCDBBVqmY68+Dkqx/H+FAHyzua6VJ9ZQ0vQuqaXByLx3PPiJQyig0YLs08fguLBwr76E7nrTJzV4zghczx/lbKMLPManVbd0Nz7gLHE9VAHJp9VxJgO7Kb/iDGbdXQafoTzS8ZAlNOAKwOb6KRuraZDXmizDK2F6UKgloPMY07qXlse5TBQN8VNLPqhkM0Jq9/RofC+fLRO80YnCwSs2qYLYt8U04fK61AdJdj84cbJG8IPjR00OT/9bWcOKyE0hfRj78O69t2coA7pkD3vRvfsFQFODBD7WTRD873FkVndBehITiF/VVlZUgwZonp/Fu1gBBL9mZdE2niomHbISjuvfHMFcrg1TuhJD/Hl8jAsAccDc7xgHXzB05Lz9EIBBuUGCwdN5v9azm6GRG9dpiVZBCgFhAu84uytdcjf+wJzNsPXpsyCnpSM/7NLcWTZv5cGYi3du3h7EJAOFCf7V69SJjopJGztucm3Mlt8eECRPTE55OSMi5kpOdfX7RRn+FQERlf+Uu4yrXb7Lqx53h2MarGsc2+lGdmKo1utZZUrnqe/PT/vD7ZwYOGRn/dt3334m37Ht9ecx2K8CY0eo5AqAyrr64KsbVCuR6t8d1AUQunwKGKjniGQh221rNwZTOka++7iU2nOnzJYgINkruv9q97ff1DkV+w97YfrumT/9N5mvWvT1yAM6YIBD+JD8QFRkZEdEhPXBtSeZnV7KvXJm45NC5Ywk5OdmXL18+7QtUqlQpqkLzTgsWLG7XZlXjBvUbNGjaoM6Pc28Q26RJo8b1W6xeMHPqtNlDhye9fV/d0pHf4xeZAZCvakMt6KpQRzBIRlrZ5/DirOr9zku8Mjib609iBhBeQ24oIxwphRk6/czH14bzhstK6u5in9Knzip97tq852w0P9mgzpSG0x7N/PMS172/LUlGtdj2bQ/Pc2kAy1qDRzLAC6LGvdsHugONAVsKe82ijvsroLAGd76y9ZxImshi1TtXvRyZBzFj5fBZbqlQvZtZPdh/xwenZu1Jlt5ysSgq3lsk8oe2HRQR9BZGVh/0IgP0kS9uM0U+wQA5siTDI6vO9zNzlM6d31CAEgCvWlHsLYnOI/Q8MmSu7lDnuvaFSd0LFnb55LWQ+56/vl4muDLvqukjghaO0otOLmLgE5/aE5W16yPLLs6bl/TWgw805bVg4dKVop/e1PYaBCrQQJua0DRZ7TH7rLtj+8LkR9eOZfe9v1pQxvPPecLFGSgmLtDk8TgAxCy5bsOid9dv2lK/rnPy7HcXl7t1kHSC3yxUKEN/re8ucBczZojPc8CNHNIvJVTcs7vpdC+Xm81o01jzWp/qSW6djYDDtTuPwXpiVdgrULguT9rgugTWSuI75+qeIop9+lnCDXOsDjNDXgKF+rTLPflAP8FLX17PiZ5ysVByg5v6XV1y6V2fWdWEUhe2vzNPSfswB8jXpzYIotbFC7q8uKOgmsdk/r6IcINoQXsLpS1M4T56+dT4gRrMkrS3klcKWZ724VESSAo2HSkMvxNSKqJ7vQqnqj8PwA5ukQRwPyezT+rCWEEhUoMe60wotV57OHNpkL3e6Suf5H46JC3S/rtABRb0Z628TB0l2tanzAPHE//ErmLLprzN1YK1rmgEGJFPDRhQedBAX+ACdcg4IayKHNH+PKEUCU6NLmJl0O7Ypwfpwlq7sccDqqJR/FJf4nIydZZvPPSbmXUitAN15Wc5IUIhKnatNVqCb/1f1SCdj6vR5V3btYrg+NxXCMAan8jNKK7Is3NOTzAg6U81o0K1ZoOrH3/HecJTLtJNI7h9YMfuT+2E4qOWNDYWsZaU1bYlAMZPnLWnWxrZs6pTsVqSuYIA/F3/NrRZ0MyvJ2vMdprT7Msq/zWT55K8b09WxkT3Pb8tCRj+a/yce29PAKBmCrmzJ2lS0JetGACDiIkBuM4Q7EtTF1XWJUrRGpdseGzOjPivE4lJJdducabtiiL3mSlzIs/qdUZyOZi66f/kuaoFtpxzJg4gyeYJuTbK6lqs3zdWKgb9/dIEBsBiQYxHo8Lsd4Te58qf/yYEgeW5qpz1KrOzQe4dZe3/MLfRkb/2mrBVz4nIL7YZ/28aflXze41Pd2xRuef5Z9fWkSxPhsQVNeyiZRVnt1aKzeJ/9BUsAHTcl1VJ2pV2RNR5eMaa/2nnvqOrqvK/j3++e59zSxpVSkJNI4QECE1AQ7CiIJYRFRuOoqBiwT7o4FgpAgo4Fpimo6OODRAIvUgRIfQ00ukQetot55y9vw+5AZa/+c08z/MHBliT111Z+SNZ6673+u577rlr3b1NAbByu4ofTAf555V4L4tG8+3Hj/E/314TLPQn+Kvt1y/2K3zw69EdXEq8/9amuJEdy0nrtrw5fIRhCgrs+CvzqYmc/vKJf4yeSmLasCfyi/jD5pcNPvCFyZqVLt6sf+eC/e2MYqvpFRp8O4BD31hPGPKS2Olpzw1vEd287edTRyclfDZ10jvTRo3q+d0ti+a8+dCdd42cPuatncPvvHP43fePnP7StL17Hhn1SI9H3v3TrD9/+NGHf5w9Y3R+SWlZ7qRJD4946L1FmT+892mLFs3CwyTE59dfJ3DR81dFtGoXlzDG+kdSwufv/FD13Zu3hi1csDhz4dwH77xv9LA77r73nuF33nXXXfePKtq/d2LlnLmTn3zyvWkffPDB+5MeLystKXhn0oCpI0fc+2BF1SOfN2l6WfPIJS74P7l27CVwrkXNvMiW8fEZjuvz5E+e+C4zs7oqc+Gi0xZnzh05cubtU9/4/o3pOQ8Mv+vexw7u33f675nz586d//q7H08flXd65HmjR/2t029H3HvXiAlTktt3aNyicdSpN9nfqY2gi/8KryZMaBTFBf73zWCn4sd/EpWfjSLUIr15f7unf1KAsFXJTtH0GTjfp2jWBBgbwsqekazm6rYbMwoLVJBe/jD/6MuvVJLifS0DRo+NLC/+XRAy0O0JjA+6yt5ZMwCvuDzmA6jD2Na34kcSAIRM7rj8eSi77Fg6CQB2720vMAXfd+Snrzz7kMsH/BS3Wr4sGp9g3shO9w2Xxj28e9i92MyOvGPX2PntSgd4rkMIKVc7R60VmsCSwZcrYKawf1YAIHirrvrmPau6ss+KQWgraMr9ZYSJzJrZcmiNIS+FvS+gYNTHnzBxdozP8D9ctX9mqmRA0iafBjqv8vYHeNhL94WD0NHcGzCYAXBGcBHcAThOWMqx53ZHfbryoKa3HAhm9hmXxgYQAO7Kx1Kl3gUBVzd73/gjxevdmzasXlbDknuQql62atWqMeFrFGACQq8DQOyunj6sVY9EE+Hx5fbCuZ8u38t/YEhIIbZFXio7ngC4OSgkhSPi5owPVw9/oXrG/B4AdggTN75N0AxWNEgA2J0gYAntyPQPZNg6CJbsSdzqiuQ9++Eb96b5anWjCnr7EjuYzScHtn749UUT/lR+6NCBolHvTJ0xY+zvxg2bMG7cSy+++OJLE/66f//hw+VjZ7467qXfLwibPurdEyc++eTTyQ/c+/BryxdnvvZwdFzLz/82Lb51dPOm4lLZ8XRGmOC4uH7ph29lMAS8B06u9QjR+anIHqZpuNocGKSXzgFSq1hIZ9P4vI6/1axhlJLX6WoB3cQEv/e1Cc7rQsgo49LY4seu6ronEL6bpFqxLVGDJ6ZdDYRbiSDoyXK/uT21a8lLWH7lgh9uCTBJveuqHYGSkX8CcIBMzblpmN0z9qhR2QyvWG+aJ/jRSWGXQnrg1clgA0n71JNr+Maj8RkO6PmAMyg3LxEggDl63UBdco+gQXw3+PZ/ts4WXSo1uoyAEKCAsIMH+vpaLHwh960/AMLNSY1Pzdspa1T4Rb/gI/7cssnJo0fWNH4vI2DYzqAOAIwI2+DHDQKMa8je1jkmeLocQgKgUrcAyHJVtsc3AmXsOGRv3BV/W1HkwVteG6/s4PZtiXGCZdhFP3WyM7bf0PZq4g+j1pvfZvNyACA2rtpz89cmoJ0Ba+2aleMEAUwA4Djpa1NXKQDQEEoGFeA+3OVU5a2/lTsTbQsGr0NAmhf/gneuKb7exDpcsVQ5r7m1IxBi4METQhPA6L+2pfR7JKGWs6DtF7rXqmrYLsUOymMLbHBqaU84yQt/U5q/KjFmCQiQl8JlLqgjGQSWh1o9MWX99hbbHv/2VhBolceUzAC0atEhIj/3N14jFB/k/vmFNsMpONrq8eryT5+iKRuLBdj0dAgbTTM/Y3XJbOelcqMrmGl6VWLMeh4TazQ69d1UDaXUk/00AFY5D7sts1ebL5YwQ00t+M1tT9sMwH7i7cadkxY/+8680sMC29oNJF67bqyQl84R6k7MwHlV896YntFm9PwFixe9NT9z+djp703Ln5m5pHrp4kWZ8ydWZZ7+6L4w89ZJuw/s/9uoggMHykbee/fddw9/YNI/X/592MSJM555/tlnn/y+uipz8eLpieLSObDB1YXfGDTty1lHWgyWUjlsMBsHy9d9XaWd9cw8LKfLWgIgZeejX2kuP5ppWT4j1cUgE0D6d56yUgMQ8WJGS1a2Q9Ylk86TdvsNUxQVbrvLwyBHM9YBIlVFSsGah41PMggA0Spbhn/xllpcMXHuMs9Bl5RhKKEMB5TQGhCdnau930n6y/yWHum7yNOVzagVLMn4ef3yJcrB40oAgiEViACgrtxdV75aCcHosPl53a5kN0SS19C2/Q/Fwre71BKU738jIDUeZPv7E1NEDV3M6XZ3rwLImfzRH6VhRtj2u2sEgO3dAE0EdtQVV6YHz5aL1UpSa3U8IZl5S1sGyFHKkQTedAgdWjFpc95nO21j+7Fb7PW95y0h30V86Jq/P7bYHnGybeeVXsf9ZlaP7gZB3fmHZJKrtWGoMIxdoZbcUFtObC5jo0eR96CUgECTMsHRu5S2Ijo8O/NwWvnGnke8bMXM52MjS7YOSbluLaC2vqIM1BKCL7apaxt9TJrj9CTD8/a8tJFSCgDjYJDQJPMjU7qvMa+JCZXT+qUoLthXfgBggF7c1T4m4IK26Dnx6mOvH1WUFK3hPvKbm9XiFTQ2croUJHsPm/bOhNMmeoJCBmqCfPGk+9/NUNRn0vrbY4P9jvUhbMsihnLvc1hKJqPn4y6DQN0BIrnKkpTR9aTBRARJz3JB8bFYWPTOsqrZCpIStnpiBNOhgw86NWA7ta8DEqPSevRMS0vr8c2Cxe5Fyya7ay6aBS/GV60hRnc7GLnhnp5qdo9eBEXOwiGmWBeg6BSbABLMoLU2isQVHV1rLSGkkKnFZjCRd/xuX1imXTFhH3/jPtnxH/FNj5gMIMLNPRwWqEVgAGy/lAgg53C15Itj6uqNzzZFqe4i22DVbHk/3XuSBqfvyGlHgAPVLiABsHZo/UqLiv7eY7XLCDKIZJdiw7a3b83g7+adypGTH/3azU2K7y7Ougy1fAewwSCEMKPWVS1qfEUV0TQngAub7gsETADQY+E+2LMkjbPDq5MP/cmd9Y3U6uOUXpGkRQyM/BxLA+CfVwZYFNKSXqN5FQkidMkvKy0mcZWNPXyo48GCnr7j2UyUlMhhAoDuuOH2LbOYcI5mAzmXHTGE1Bc0nZyrBwzo6SiAMlPApArDUOAK8EL/KAEqG2PMHilJ+JREmQcA/eTXQhQOTwuzhGEDVJC3dLdVo7pdrrEyqYzcHc3y/UarkyVfiYIstyVAbdv9ffTcGMvROMvYcHNBFzNaTL4n4kK+1kn0tQDQOidM/H79wdanGiflwi/Sfni6sxDa2NJnecsuNjZFCpln3CAE0UothJCiaTzpjTUspSs3UpHyTF8LY9MhA2i/ByDoOJ/eTNTnOFHrjk5m7omYMVGWwBkq/c/vJoVXPNJsqOILN3W7r8WCiK582jZnBluJiIprnjoSoXclxEtBYqVZeSLOEeCyXdm9uwBQP7EQglh2AIlA1y4CsrkkbYPN9FxX/z7AHgDMVHbYHAh2R4kCPXxZdeLVhTOyDMIZcn18K7tI/F2/5uCCpdt9bJdrTEZljZE95g9ExEd41bUPHjRrOkUy8ZpA0eJBhgDQPq7trhKPJCNIUpDMl6ZQpnW8unVLtIG24P5o60vFMRs3tscZTIKSO5XL1uKRwxYHahJKtcZZRGWHD8NRVyjPBUtXT7h8Vb4xHx6TfrXj224uxdG0jZJanzByqol+bObfvPN+zURC7Pe3bskK61kKIVxXbGSIZW0skm2tMNviaW0PHZDiZ4YdgzOYVwEUH+w9cXYAIBUXJXCO4XRuG+2mmNSKC5VOrh3KgDVy1H1NvIplVR5dr3ro2caTrbUzc9iq5oU7PTd+K5W60ruhnXaVABssKVNzTJU8mrUMKj50aEdfvD097pMwIQUzeH9xtEYIF90rCDs8TkyOzRx++KY1qwwi1GGACKDr+QKl2/SgI8K98vvZn1VUeYTslXR93O2xqQTvdV3tmjf8hVscpxsoPfjqmIddJS07VmywSHQ72Ev1UXJ7YZ5VpOjqy2Fv+muj8N0MYRAzzJKYWACg9oklXQ2g8kQjJnLtkoFEXraeCbXY7pjPAAi4IOmmk94jlx27WjT1tNWwdVcnbsuO8th37QGb4e5lfB/YQoTtUH8tHfuuWnPPV7wxL7ppWP4raX00gmU7swNKXRUU7IL3yP72ikCSwCKeAm0Y0E5UeYkjUumr9UHAdFqpXUTWeiLUIpGAC5YelA9drkRKT8le5nYsPBDKJq30Ts1jywrVzi5qh0GMU5D85edkttvdWUTTqdGdeh2aZc7KytO2bfMzNiG7HfYQVGsAJMG8lw0RbIs2++04w0ViP+V6mXaeuN5KIiL7R0GhZvdVBxigpVT/6Tb1zDJEt525iuFiDYspJUAdHrs6rcVTu4KOCiQRsQC0Ikfc1Rsf7Q6mlVCfzev3L/m4V9aAJiUOQRgrzFlZeutewTB2awBkEGNfIXcwbJUiQdnIvvqWkp/DvK7IcIMECaFWGiBADYuoBoD8RvWe7k/vD7e2d2jLwyCX4/Kiq996mao3rFhT4w9abLO+hYMuGcx2RLWtwmWCLOkY3BXtC/j826q6nbBBCgk5G3ux1S1AAHfsQKF2ML1QGPv7I6dswu5uGXrHoSfVErdIawUCEQks20CnfTarEwGkA/Wdbl6pyKwGmNky04i8LPmViQO+2b14r76cpxBbwuwWF24OHeqKHyANpcsGqBJQiVOzsDChc+oAKzXof/NYQlwwYLH4xkMACbsjzrRPNzz4+HkJSNc64pQODzbOTUzIBug0ISi4WuorP2hLAHq/btR3epWEkC3qTjNkVlrLrnc8/9Xffti6dXvO900+iZ3gSbq5fPtVYjdS1QOiVLgo0Cg6DhbB1nGN+yi19LIu89LDtkMQ4xMFAAI2hX5LoMPCv0AIyPhjnm7EOVX3m0a+SbK2XJIQetnG1YcAgIfxhXhz4z6brm/iEFhtQ48ekksPzJEMErC2LT71TnIvI10m3bx+kRAPXa5pre50eT8qYILwRioIe9rbUTWNTkAAwAwBgGmPzaglSec5P37xpQREh6OFECQD1xL2G8K8LK9XV5AoksHdkhhA3mDUd7p2YEhJO9ixgn7DzMvWYrsVdAEwyA0na/ucTbNUvxyYvgIn9ymHKuLuUcFuPsvvF9EOm07JpBbl3oMQAKB5DwNQEooAim3bJhj0VfnCQIDoRBogsocsyvzsi398dHTi0jQD97SOgeugxUxtdL2nh29mpL4tmkdokhLVSts57PVoAaEZxNBc1nKb5VI9vFXP5xqJvfekfKsWLmzXroOO1Vu2btrRUY0taWOiFisZD0Arza1B3D4/O6cGIAECEZi6EwCDfhPfulVLImndYIVP/fIfuZ7Ik/to34qF9Z7Oyo3Js5ZEVQFwuvcXBtscZEplstgyCS7KBXZu22911vd4lOlbFrii2Nl5tKJRxuW9Nkf47O1UkHKABWrloxTAbnp8+B3t2lo7K/2h4SP0Q+pQaRcGMLB54yZjn9/4TLeC6S0WVFaeLPJUuSMOD5Co93S4NgSA5gDgbI9NSk3hAIiS80hJ9gSVySR2IvkyH+u+yKbsuXcuejo7EHBkn3gtHq3uDlBK9gmEiKtdhNiOHYZFmSpn+8kaFarWTKhFCQdLCEgi/egot7HWiNN75x1z7JrDFQPH395//8ILkM7+XopIEDfLw8A+vJOlxcGt+ieXK81lElhYvGeBj6W0vvDnk+1UOkEi+P4IZv3MPwnE3bqgzgn7shbVfofJmRcIghDiFG8DnQaR4BJ1S14QkQjUyEM1rX2qVZ/sp7oOXjXkAqTD/UHLceWNw3KXOBtpM2rC3I6J7evN5V0WSDe6aIsVm9pIjDOmNq8WAOqaPgeg703TQhBvI9Tixicjo6Luuy8cTp4inMGB4A7UIuwlACPCoYgIT2OXiOXEW6iwfFCmXd5v6AVIh7nmDVqxynL/5OGgEa6NJik9pCTv9KG52sxhgLaQYSbExZqxOsuNOhSa36NIZTgwUItTnOfuGnY7wca7gnEW2T5/hUAtJgDxDklmBjfTl+FY/I9k9/dXLfx98GHPkPpPh7NlC3vMtW5lA/6qCt6aXQ0gbNpRApkgIDnp+LZtgekUKfIEQmgGAOaxhwVEEkKEEASAYSoOEH7RHnTqVnybbdDo8u3mzYWFhUWzccQQGfOjVULAUcGa4+tv6De0/tPJ6xGU5Q44AKRp+F2Vkmrbq5OqKOBysbeEh6N7xtrEzt5qiVqkwogAraoZIhcIlR60pn7z7Xe2jZqgxi8QuTQBEHQ1kDeTFs6f9fHHH84+RPFd5ovEuGrWSgWs5QVqCdV7OsAyiwNhBLRTzNpjXEFc275hvNtkuM3YkiJuZlt5djKVulCLixwFyLXclQGdfgUAVJRG+wPW9//0zXMZ+CU7L4cEkTpSkyIa3XHnsDtHlJTt2bO39O/T4yNyzXAichUUWVf8fC3Xf7riLA6GwQNXGQNA02dGo5aY4K+q5Ipgrl0YYalMQEdoFwEE9jkEQGTth9bSAQDHaHv02JFDhzpurYgR+CUO+PMsQLQ/kI+j/pMnKz3XB0Ju8zQ5Nr+4iSc8oupIv/JFmaj3dJM2sBUGAojDiMOtxDfXBgk1A2BUmYZPpFhsF6dvyyp0q04VfV2oRQIA6JGaHKC/BsB5Tuc8JiG35biKbRBCKPQQHT4abhNRxx0gAKgkhCxc3Kxdy8M/7C7JdZUcnA/Ue3oNr3eTFwB5B1APZQA/ucNvMMWsw16vyQyvA237P9jfy97m0hHPda6LdjQAUFavvIEsAYjPGuUNLygo2JXW9YgTCj5XDnpS4G6HSN2NkCYOcDa+9d7EQ4VGm2sXov7T/bPXeYUEiECcpJt5qMpgbyDl8pL7qisUoLtqx4LiME+aOw+dXOUmAKhSF4XG7gx3GAzoqav2r27dulX/FStsAsB0GhgMAKv2kBDgA4UatVq3vXHwufhA+N49EYszUe/p7HyUDiFABBAwEENOVRPz8eqoyu8nj6NmQLjld2iq8qR28qamutBsdmjsOveDUAZtG6wBaE18t9yyZc2Pf1ow3yQAxGCcmb4snjvne5NkInUjAMhpf+PKm3DWgsCt84F6Tw/KHemO69xNmvxhsHO/Q4BivxGHwc0s3bRTgKd1/ls6KyMpQW3tzCg3GQA9hFo0WoVqGBq1CCrObxPOVofYlmEQkeBDBQhRL914neemc5PPRP2n2+E/6oCLGHUyS/u7nxQjHPwuMqKGqmSbOyvNOFfvrt9GxDeKEEXFBqXsOahnjxUgiJ0aIesAZskarBxnQEtfZKJN+B/I2bVZ02nSIEatxi+mnPh77+U3AUNuGgKg3tMp8MHPnkD42fG4F6eEa1r3mL6v3xvVEIAxqGBAd4ttLrws61TVFt+xfCj/eHL+YgDAPlY499R9hSa0bzdUAdFaEX6JCCroEiRICC8T+B08BOJs/dkVN9xw5XUDbxhc7+lBurc/B8NxxlLX9c0bNzWM9Y9bHUc8EN60cfiwqMpqh4NkqnWnsnODQVPbZOW+JhMYAGK3gHAGUwarbC2NrHKwJhD9MhzkOGuyFQnSgTTBKS/RVDAJnRvma390RNj1XN/fjLa9P7pFwIs65oJB5SCmKHBWvw8+f29osFhbGsSCSjU7Wgg2SDEomHO/FgAQjPr5SpzFjukI1ex7M4CSRJuZCL/AroQxDr72kCop4g77Vide33jlS0uzpMMLn5zQ3pNh6IX1OHV2ftjg5nPlS9+/roYABwCiRLcN/bomdDvVvGWL18kkx7LYRUKYndl0EVnV220CdDejer3GWXQlqIsygch4EAh87gFmGEkM3MWig/YF9v1F2buOR143NZwCx5I+iSZ9rENo0ddTuim/bsts44wlN40IEAAoAgGQ6zYsWf7wVYM8f05UjgOC7fgoobHZOdkloIOMWm0d/6Zz7axNpeJtihrQMcAA6NyDTVc4FTDASraQgtlG4Zyy+Sf2rujqe3BXzHxVnNgpLI7rK93/+oZ4Ygt1IpdddxIhZAFMJ7sOPMiDRsyG1T89Bcxa2Ta7kkpcCc2beExTGiYDQFgC17g0zuovs/WwmDbtNYNwBjPY9ESlX7X7HQ2Ag8kmQGx75p8C8429Oz23rzBHaYGUjCH1kq7kny6vJl1XzmLpwv5+AhCaEAI/97t1ePDdtIwvr9o+wLH+arwZCL72Wu+esbGxB3dD9uoU1jiqk4sBqJhUXmoS6rBzJUU4nTt5z17bACbTgDC93ZwN7WYKACAhwa3dZFeAMeSZ+YsCGbGJnTRImVQf6bZ7VTJIg1Fr0bLreoJQi4Wh1mc8Zht2+OS+tPgQnp3+bl/8My2ldYzRvvHq3bq3YLTo1bXrEUHERPdzV7WCCNDMTGYwmyJVVyfUzQDg9XZPNY3UFMLYJwnA7UQBB/6U3CqAfXGFvpqKXFsKABAW//rpSk5YYhGRH7VoZWQ/HyGEJDcf8Ig2CaAgsOeFR1I176rYsfvAsw9Ebx6RpiUzAAFKSnK53YsKJ5/cCr0WrFyzN22uyS+onBPsQWUMUCjfldIooknjznsJPG9l3cIAuU0DTSIJOjK2RhEcoVgAbD7366fb7pP9mQghXL7smh6ow0I3T++swlCrKpoA8L2dYgNwH598bNbA50BCMwHQAA6GRdHKWaseadYkJr96046Olau+HDflvXx76WGyQABAMDpFJhK6NE8Go2wH6jQPD9u/NMoQYIAJAERhEYOsXz09KCe6Nt5SVx5w79uc378GIUyiUXq0slHH+7gAgJGs4B06y5lFxF+LviVb+wrUok7JJFojq+vkPqtSD6754ZbCwuYtO8aKMh2dK4gBtzfSdB9SBFAoqbdnDAPCICR7yJWc3CmCKkvdYAA3pnQmgJIGDvk10zkw7ct+L4gFqMW8eN+66xghJN2Xx3MYznK9rwGIe0/cHEabIOSX4nu3/mnGlOTDDJYAiQTPbb9t0bbJfdmfzjxyqoJl+TFhPP3UbUxEhjDiGoU38aZQqI2RJxSdfJTxJWsIV9wVRiDQJQZc6pZM4hg5AMCm+PW+LUmW9/dXggh1ev2lZoAWBBAkqfVPmRI4x3ewmSKAgY/2TdJijqlBNNwkUk/3zrI8XYihtQiAgosdh9x8o+ywr1Inbxfs7by/xI9ejgBLIgCkCyaGWUNk/7Q++MatdWGl42PAW6r5eLpNnRpp1NL6MfPXSq+JvO1xPheOUwWbnyQCiNjrNOoibfySmtKq5h5mgKc0a8pSAEQ/TwkHgtLl4+e7CmYwNMPc1T43yRqz2qV/RGEysKubavzA29EeIhCIUaSTzXWHNDKHPHSNAs2BU1Dt+GC6lGsXG0PNKhnFdelq+fzzn14X/lr6kAXECGFjDTKUAIHgkqK7MvEv/M/11QjcAfGdAYCg+dgzJuqw/btE0NmbVFnSIdDVZnM5CUFk7By+14NQOAhFfNmrWly/AMDguW8+TTSHFYqa7ZKdDiSs7vvdHW6Iso4AwMzPXZv5a6T7Il5/ejPhDEafmU9lEQEEtwhmPeYm/C8ybyOgWDJpgBk49iLhDJ/xIex9SQKMUHxNIhlyqRCC0KwN7/OevT8yNn967YLBZ4puSj/x4lcerdnh7M5eh9gISEFgAsC7Y168biHOezpVR/4hg4kYjFosj+26UofKOUxveM7nxr/hjO0FAKQZDM5P3v6egXNUgBrV/E0R10WeTqdNPiGEzO4dcCKb2QIMhqxZvgg456YfXkiG4tpD2I51CAUTztDOEsrEeU5XARH+7adjiG6eLygUzlU7VQYRAFL8wZyqcPxbQXoG/S0wM1gbm973OoT/IfCxV0sHBC18iUQ/B4QkYTQ5CiPSzTCrWdirF+GXbkhIY6XBEA7hF6Tj2rwvE+c1XQWi6PUwjGw1F0TA2inzwXJNalMmAkirk8Orwhj/QVDT9JYK+ZSgjYqnDcK/IL9r8nPPJxLKEo73tuRaS0jBEXE5UM2tAyJmpaR//RA+9L0foTSDcRYDxGXNefyN83F+0klDO4oiaHxiNKjH9HBflyjNADGtE6mNiQBAieO3kMT/jf+P+9q/4MwQjykv/g3Wwpiyr+0TH1X1JP5RSSFbqOMMSrnNM0guwP8yeO4LKUqDGGfosnb7O1D1Ws2ZOD/pZg3C5Hh6Wm9lCmUeKCJi1snNRPZv15vm2bVeHYb/B7OSwygQYRH+A7KIhcp0sXsJCUlhWSkMMWXc/r2L8W8MWfaWoCiLAEgbQNmUW5a8LkIvi/OUTjWRUx/ZrBHqJnRfiFpD/3qSnt0UFNIEsToRWuvnhRNYo80VWkqjy8FjEuSM+yM9c+u/neNgIhrQyAIFLWMf2o27buFg4szzu7EzyBGvx7bmUPwBnNF68A/QTG5SYtsTJHFeEL36ED0rXwZHGR9FVJvOuA9K47nkP1+2hi6apoJrBBF4wa9xYIMb7Iui8YkxTADAABDt/LA2HWDHzB5bbeA88anqp6dM01jFGS9M/KrnF32ei49jMOE/mT/4+Qr3OPy623mVJs9rOp5C6dRSA9CscUVTv4vPW/kMdesf1DVFiD/FjXPiSpHAAFB8YCHqC+HfYlelKSYr6nxtq3kAgwJ/7jWOJM6bmiVGjigFQEBHcu2KZwCq7O9XZ+IiQMrnd6TL5Xa7XS4hTZxPwTfnvDVt4uOPPfpodk5uXs7od04bbQ0djPpD/3//wTjPBi99fjeNm67AzwOYkTBsTvH7t1Am/hvc8MZTucWPPfbYlCmTJ00aNWqUPj3x/xKDb3Rpa/Roy9KeG264cehN/zXhIcSn0SVxDHKDBg0aNGjQoEGDBg0aNGjQoEGDBg0aNGjQoEGDBg0aNGjQoMF/j/8DnO4cvhfqCAMAAAAASUVORK5CYII=;flipH=1;" vertex="1" parent="1">
          <mxGeometry x="10" width="250" height="250" as="geometry" />
        </mxCell>
        <mxCell id="-rYXa19Bb-40bHIPveaP-2" value="" style="shape=image;verticalLabelPosition=bottom;labelBackgroundColor=default;verticalAlign=top;aspect=fixed;imageAspect=0;image=data:image/png,iVBORw0KGgoAAAANSUhEUgAAACQAAAAkCAYAAADhAJiYAAAABGdBTUEAALGPC/xhBQAAACBjSFJNAAB6JgAAgIQAAPoAAACA6AAAdTAAAOpgAAA6mAAAF3CculE8AAAABmJLR0QA/wD/AP+gvaeTAAAAB3RJTUUH5QgKEwQ1+S+XOgAACdpJREFUWMO1WGtsFNcV/u6dmX161971e/FiG2JjnknUOk6gKgEnKRATyiMPlDRqSVUF2qoSlZqKSFVUVc2vNLRSIkVR8qNpqjZ9kJSmQAgB0xi/MMEbsBsTMBgb79Pe17znzu0Pdo1poapJGOn8mJHmnu+e853znXsJbu2hAEoAVAAIAHABIABUAGkASQA5APZcFya3AMZPgK9VV1dvCIVCS8pKS6sEQXCalgU5n9fjiUQykUgMKap6CEBnAeBtA1Ticbu/s2XLlt2tra31mq6TfD4PVVVhmiaYZUFWFFweG+NDQ0NXJqPRlznnrwPI/r8OxDkCWtbR0bGrY+PGhsOHDyMWi8GyLNj2tcwQQuBwOklDQ8M8Wc7vzGRzA43AsdE5cGEu0WxpbGwM9/b2YmxsDIyxGRAAwDkHYwy6rsPhdKDU55sHYOnoHPzMNUJCMpkkvADCtm1wzm9oAIEoSQSAMBdqzCVCHEBWlmVdFEXYtv0/jVICyeEwCvyxb1eEsrquG0IBEKV0hj+zo2XbNlwuJyRR0gFkCpu5LYBycj6vCZTOOJ6dpuI7YwySKIFSqs+lwm4FkJzJZNWic9u2YVkWGGPgnIMQAloAK0oSOOc6gPwNaMJvFjXxBpVU/GYXbPaP0/F4LD555UpLPp+HYRgzUSlWGSEEgiBCoBSKqiYApACAEgKb85KFC+bvNA3zwtj45PuFtc3ZHJsNqIwQ0uZxu+/iti1pup6xOc8UQp4tLDw1PjHxTyoIbT6/33nVuTCzgG3bYIwhGAxAVVUrFot9XHDWanNeUV9ft/b5n27dde58NLH31+99nRKkFU2NcM6PF+SGF8sxEAwEdm7atOnZqurq2ujkJJEVxbQsyzR03cjlcloiHs9eHh8/KStKl9PheDgcDq8vCwTEIqmL3CnxeuH1eNjpwcFjiWTyb81NTfcuXry4deLKpL9jfVNgz5aYNKlW4bnf5PjYpSn++bmRZDKVetPmfC+AmFDI6YNPPvnkC2vWrKk7PThIs7kcpZSKkiQ5vV6vp7SszO8tKamkhKzQVHWeoqofKYpiO53OBq/HQ3kBkCSKIOD2mbNnu1JTU11rVq9+fOfOnQ9wkPKaGpd391ZV8McOoRRXMG9ZGzn08SQxdNNrmeZiwzRHAAwJAHyhmprvbd22rf1YZyfGL1+GruuQZRnZbBbpdBrpdBqpqRQIISRQVlZrGnplLi8fUWTZpJTWU4FSmzEosswujF7symSzPd946KGNO555ZsXQ8DCJnDmJ575diYXyfsDQAE1BXakMMdSG4z0XIVDi0TQ1Y9v8uACgtqmp6ZmWlpbGwUgExd0WiQoANrehqRps24bT5UIwGKwydL0im8t9IOdyUVWRfflcPptKpT5UVHXg4Q0bNn3r6aeXdZ04gcHIIHY91Yz7vYeATHymVEg+iUV3+BAnTRg5l4Ch64phmocpgFK3y1WeyWZhmuYNuy6z2IxumaYJQimam5uWVASD7SZjr2Vy+e3TmcwTmmG8smrlyvsfe/zxpQcOHEBfXz/WtTeiI3QaiF26Wk9GwUzAPdaFH22guKetBYTQIIAABeCUHA6npmk3lYFinymSV9M0gFDUhkKLAQSWLlrU43a5ugF4FyxYsKS3pxcnTw5gxfIQdrQmIY31Xw+maKqJUPQQdm8PofGOsBeAVwTATcPgZqGnYFbK/rMD27YNQgg453A5nVAoNQHoZz/7TCj0FPXUqVNaaVkZ6sLl+PHWAMov/wlQ2c3lVZtGq3gMe76/tuZnLxntAoBgWVlZR104XBuNRm+q3oZhzICtqa6GJElseHj4iKppw26X6wFK6X2MMS09Pe3mttWyY0eH0BwWkKS1MCuWoUSOgygKwHDVLACOUsQbOzBOwwiGFwoq8y0XAEgOSbo/HA43T09Pz6RntjxwzmGaJixmIRwOw+f1Wr19fcempqcj69at++6mRx7ZbjP2YDqdvlPVtD5d1+Wxi7GGniEm7O9TYftDaPNGgUzqGiATMKuX4sX+Ovz+SA6//WPXZ6PnL70jAGC6rt/h9rhXiqJIdV3/Lw4VJWF+eD68Ho/V3dNzNJlKfbJ58+bNjz766JKTAwNCPJEQ3G53FWNWXS4vH81k84lSf2CBr9QnPnGPhLor3YBuXRehqcoV2BcRQW2H3fVx9xuXx6MvCAAsxpiWz+ZaHQ6pRhBEiIIAt9sNv8+HYCCAqqoqVFdVwdR1pbe390AylfpkY0fH1q3btjXv27cPIyMjIITA4/WiorIiwCyrNp1OH0mmpvSN61Y0bw+ehzgxCs6vgSGiB58GV+FYREEk8unZyWh0L4ALYoGMp6bS6V9omvYDv8/X4nA6iSAIBgFUECIz284ZhhGfmprq1Q0j097e/sNvbt7cfPDgQSQScQQCAVBKIYoiXC4XgoHgwr6+/qfaVi7Vn72bQDw9ANOaNTcygNYswOGziv7hBx915XLZVwGcBMCL4qoB2K9o2qCiaY0ApMLYkAegFCwPQKyfP//F9evXLz9y5AgSiQQqK6tAKQWlFAQEhmEgI+ewek3rwj3raxE6/S6MrHHdbEqJiIv+5Ti6f/TdTCb9PICxgupfp/YGgM8LdrOnqaG+/s54PI6enh74/X4YhoGrIy2HqmkQHQRr2xbi6UYDtQPvQs2mrh+UGSAuXoH3J1zj3T1DvyqvCJ5PJadueUDzSw6HPx6PQ1VVaJqGZCKGu+9qQkNdOZqranFvOcHC1DDQOQjFMq7vPzYgBSpxsrKVvfP2qTe0fHZAy3+xidHr8/ncqqqCMQZCCCpD5fjl1mWYd/YE7PEEWCQB1SikiBQYSgBuA5KrBBN3rsdrnWP/6O7sf9XldjFN1b4QIJ/b5XLmFWWma4NSYGICuf7TYBQgNzjHcAY4vH4kV23EK0NK75//cnRPY1N9fPTcpS90DAKAUofT6ZRleaZHwbZhWwSGQWDqgKFeM10BjBwglM5DrP0xvDwkd7351oFdrSvvPnMjMHONEKGElBBCJFmWr9c6EzBVgJFZJzgGOEtKIH7lqxiYv0j9XffoX9/7+/GfV4eqR0581P2lnDq4zXkmEonoiqq6r0oLB7c5bI3DzHNwARAkBxzBIGjTIlyqb8bBWH7k/T907h2O/Ott0eHIXrlw6Us9Bp0+c+bTU2WBwFqv1wPTYhAIhVAdhmfVWiglHkz5yjAqenB8NIqjbx3uH7s08RNmmp0AuFUQ6C/zOkYCsNohSbv9fv99wWDQ73E56IqWBnAAacVAMp3j09OZ3MTlif5cLvsSgA+LTe92XViJAOYDaBMFYZkkSbWEUA+llNg2U0zLijLGzti23Qfg4lzA3Cqg2f86C9d5YuHdLMiQcSvXeQDwbxLMtrIbcsD9AAAAWXRFWHRjb21tZW50AEZpbGUgc291cmNlOiBodHRwczovL3d3dy5kdXN0bG9vcC5jb20vd2lraS9pbmRleC5waHA/dGl0bGU9RmlsZTpJbnB1dEljb25fMjM2LnBuZ3bkFVwAAAAldEVYdGRhdGU6Y3JlYXRlADIwMjEtMDgtMTBUMTk6MDM6NDUrMDA6MDCybKU0AAAAJXRFWHRkYXRlOm1vZGlmeQAyMDIxLTA4LTEwVDE5OjAzOjQ1KzAwOjAwwzEdiAAAACB0RVh0c29mdHdhcmUAaHR0cHM6Ly9pbWFnZW1hZ2ljay5vcme8zx2dAAAAGHRFWHRUaHVtYjo6RG9jdW1lbnQ6OlBhZ2VzADGn/7svAAAAF3RFWHRUaHVtYjo6SW1hZ2U6OkhlaWdodAA4MssAIT8AAAAWdEVYdFRodW1iOjpJbWFnZTo6V2lkdGgAODIzr+GyAAAAGXRFWHRUaHVtYjo6TWltZXR5cGUAaW1hZ2UvcG5nP7JWTgAAABd0RVh0VGh1bWI6Ok1UaW1lADE2Mjg2MjIyMjU0jQzsAAAAEnRFWHRUaHVtYjo6U2l6ZQA4MDE5QkJBSMRvAAAAAElFTkSuQmCC;" vertex="1" parent="1">
          <mxGeometry x="522" y="150" width="46" height="46" as="geometry" />
        </mxCell>
        <mxCell id="-rYXa19Bb-40bHIPveaP-3" value="" style="shape=image;verticalLabelPosition=bottom;labelBackgroundColor=default;verticalAlign=top;aspect=fixed;imageAspect=0;image=data:image/png,iVBORw0KGgoAAAANSUhEUgAAACQAAAAkCAYAAADhAJiYAAAABGdBTUEAALGPC/xhBQAAACBjSFJNAAB6JgAAgIQAAPoAAACA6AAAdTAAAOpgAAA6mAAAF3CculE8AAAABmJLR0QA/wD/AP+gvaeTAAAAB3RJTUUH5QgKEwYLCnjoEwAACkBJREFUWMO1WGlsVNcZPffet832PGODjY2xx04MZgkhEMqSqBRICGGJwbTQhEhRk2YhCURKokZqmrZKpEaVWrWqmrRp1Uhtqv6oKtSmEZBQymaDScJasAccsJkx2DNjz3i29+attz884zhpUtVUPOn78Uaa+5137vm+891LcGMPBeAHMAVACIACgADQAYwCGAaQA+BOdmFyA2BUAtxdU1Ozrq6ubk6woqKaMSZbto1CPm8kksnhZDLZren6+wAOlwDeNEB+r8fzrfb29ucXL17cWDQMks/noes6LMuCY9soaBpi0Sjv7u6+Pjg09DPO+W8BZP/XBMIkAc3bsGHD0xs2bgzv378f8Xgctm3DdT/dGUIIJFkm4XB4eqGQ35HJ5k42AYf6JqGFybDZ2tTUNOPEiROIRqNwHGccBABwzuE4DgzDgCRLqAgEpgOY2zeJPJNliA0PDxNeAuG6LjjnXxgAgSCKBACbjDQmwxAHkC0UCoYgCHBd978GpQSiJJkl/bg3i6GsYRgmKwGilI7rZyJbrutCUWSIgmgAyJQ+5qYAyhXy+SKjdDzxxG0qvzuOA1EQQSk1JlNhNwKokMlk9XJy13Vh2zYcxwHnHIQQ0BJYQRTBOTcA5P8fQGTCb24pJtKdTiTiicHr11vz+TxM0xxnpVxlhBAwJoBRCk3XkwBGPrd+Wehl/VoTNTYRUJAQssTr8SzgrisWDSPjcp4pUZ4tLZwauHbtKGVsSUBV5bHkbHwB13XhOA4qK0PQdd2Ox+MdpWSLAUwtdXlVkqSQoiiqbduOputnOedHSnbDy+UYqgyFdrS1tT1VXVNTOzQ4SAqaZtm2bZmGYeZyuWIykcjGBgY+LmhapyxJ62fMmHF/MBQSyqIua8fv88Hn9Tpnzp49lBwefndmS8vS1tbWxaIoqpIkSZRSSZIkkTEmRKNRfvr06eGRkZG3Xc5/DiBepu7e7du3/3DlypX1Z86epdlcjlJKBVEUZZ/P560IBlWf3z+VEjK/qOvTNV3/p6ZprizLYZ/XS3kJkCgIIODu+QsXOkdSqc6VK1Zse2rHjnsURalKp9O+fD6vjGYy4lA8zgauXSOZTIYwxnymYcw2LesSgG4BgL9u2rQ18+fPn7533z5cGxgA+YIqKmgFUMZIU1PTwlgsKqXSo3+NxWKwbXulz+8TwIGCYTiDQ0OduXy+6741azY98sgj8yIXL+LgwYOIx+NjgrEsMIHCdVxwDlBKoVaoVUWjuNqynb0CgMpptbWzi8Ui4vH4OJiyUAHA5S5sywbnHB6PB7fccus82tdHh0dG/jIQiw17vZ5llDKq6/qJomlG1q9b17794YfnHj9+HOl0GpWVlUgkErAsC2rQj5d3rsLV6xm8+btDsG0bAVVFNpudaeULUwQAFR5Fqcpks7Asa1wPE8OxHTiOA0opLMuCLMuYObNlDi7y1cOp1MuZXP4XpeqR7lq+/LWt27bN3bNnL+LxIUybVotAIADXceFXfXh1513Y5N2P4vJbkMjcjXfe+Qem1dRADaiVuXwhRAHIoiTJxWLxS22g3GfKYIvFIkAoauvqZgMIzZ01q8ujKMcB+Jqbm+d0dXWhp6e71MkduK4LNRTAD55ejjbpKJBPoN+oQU9PDK7rwuv1IhAIiABkAQC3TJNbpZ7yRQyVteS6Lggh4JxDkWVolFoAjAsXL7JSv9JPnTxZnFJdDUEY6yjFYhGGpeOVJ5egjR0GySfQXb8ZL/yyFx9/FAEhBD6fD7KicACcAtCzuZxu2TYmduCJUQZZ7szVU6dCEAQnGo0eB+D1KMqzkiQ9ByB4qbf34EAsZsqyDNt2kMmN4vGNDdjED4EW4uip34Lnf9WLDz+8AErHPk5VVdi2rQMoCADS6XR6UNO0cY18npnydlm2hXBjGH6v1+48duxQanQ0snbt2u/fPn9+a2dnJzl37tylbC73t4GBgX2SJN1XU1cj72pvxUbzEIieQKRlC1586xI+OnEBgsDgui4YY/D5fdA0bRDACAWQTiaTpy9f/sQWBAGO4/xHuK4LURTR3NQMv89nH+/qOjiSSp3avHlz+4MPPjj/ajQqFQ1DrK+vn1sZCn3TMM1+G9bVnV+fhTbjEEh2CJGmTXjhN7041nkOAIdpmjAMAw0NDbBMy43H42cADJe9ZVllMPhG/Yz6BaIkg1EKSZYhSxJkWYaiKGCMIZvJaB+fPPnBSCp1fuOGDVu/sXXrzN27d+PKlSsQBAGSJMGyLBT03OiPn1vl3ZA7KFFtCJHZ7Xjpj1FcuZxAsEKFJMtwXReyLKGhoREdHUfP9/REngbQUbYOBcB6r6I8qwYCrZIsE8aYSQAdhBQc182ZpplIpVInDNPMrF69eudDDz1024EDB3D1aj8EQQRjbKwaqYtdW+agrXAELH8dvbdt5t/980Dk7+8ejamBgFpRoXpUNeALBkMexhi/fOVKT39//1uc8z0A9ImjpQSgAUATALE0NuQBaKXIAxAaGxpe37lr16OnTp1CMpmEz+cDYwyGYUA3C3jmgZlYnz4Mlh/C5Ts24Ufvpz74w+/3vkRgW40Ntd/JZLVTqdRoFwBPqTKjAAZKrv8ZtzcBfFKKL3tawo2NtycSCXR1dUFV1TErYAxgHM88MAtr4wdB8kO4fGc7XvxT39B77x39saJIZ3TNan7s0QeWV1R47nnjrT2vR7ovvi0Iombb1meH9kkOaE0tLS3bmSBURSIRaJo2dhTiJl7cegfujx8FGYliYOlWfG9PEh1HzmiBYMW1qTU1NYq3YsG9K8KrH1+WqGuYNXtF2gjU9F7qOyfJgazjmDc8MfoCgYBH1/WxluByVFYH8eqjK3Df9U7Y13sg11VB8or49leDeGLlvdWE4VXCiMspIeHqIpOvfIBNU0O+8M57nmxsqJqze3fHKyPJXGd5SJssQ/MWLliwRdN1X19fH6qqQ3jtsZVYffUonGgPmBegXEcwfg63mpfQbEbQZEdok9vDmtBDQ/l/EXANxBpFrfQJWby0JeypnruqP5bPplOpHkqpPVlAixctWtSWSA7LIBZe37EOawZPAUN9kIMeSH4Fol8B80qAxACZjrmTxMZCEQGPAngVQAD8JIo7F4aC4Xl3fS2vy6Gr/bHIZLaMUEL8hBCxkM9h6VfmwqYMez2NwOymMa7L4x7lIIyACQwgrsVALZgA7NL9CC1P1xxkwIXoEcVFd8x8ovt8pGqylw3bFi1c+OuCpgWHk4mxEwAhAP/UkF3Hhe3YWHD7Avj9/kLHseM/qQhN2UdAODj/9MjAJ8z9jg6/l5BMtpCbLKBZsiS+GQyFVo3ZjDtuLQAgCAJ8Ph/C4TCam5tx5PDhjku9vU8BuHCzrmNEACskUXxeVdVllZWV6pSqKhoMheDz+yGOnWj56Ohorru7+6NoLPZTAAdKPe6mXVgJpY6+hDE2z6MotR6Px8sYI6ZpaoVCYci0rPOc8w8B9Jc78M0ENPG/cskHhdK7BaBYYsS9kUX/Dc32kAhUNPiKAAAAWXRFWHRjb21tZW50AEZpbGUgc291cmNlOiBodHRwczovL3d3dy5kdXN0bG9vcC5jb20vd2lraS9pbmRleC5waHA/dGl0bGU9RmlsZTpJbnB1dEljb25fNjIzLnBuZ4EXbZoAAAAldEVYdGRhdGU6Y3JlYXRlADIwMjEtMDgtMTBUMTk6MDM6NDYrMDA6MDCDhL+pAAAAJXRFWHRkYXRlOm1vZGlmeQAyMDIxLTA4LTEwVDE5OjAzOjQ2KzAwOjAw8tkHFQAAACB0RVh0c29mdHdhcmUAaHR0cHM6Ly9pbWFnZW1hZ2ljay5vcme8zx2dAAAAGHRFWHRUaHVtYjo6RG9jdW1lbnQ6OlBhZ2VzADGn/7svAAAAF3RFWHRUaHVtYjo6SW1hZ2U6OkhlaWdodAA4MssAIT8AAAAWdEVYdFRodW1iOjpJbWFnZTo6V2lkdGgAODIzr+GyAAAAGXRFWHRUaHVtYjo6TWltZXR5cGUAaW1hZ2UvcG5nP7JWTgAAABd0RVh0VGh1bWI6Ok1UaW1lADE2Mjg2MjIyMjathF1WAAAAEnRFWHRUaHVtYjo6U2l6ZQA4MzA0QkK2jEqJAAAAAElFTkSuQmCC;" vertex="1" parent="1">
          <mxGeometry x="520" y="210" width="50" height="50" as="geometry" />
        </mxCell>
        <mxCell id="-rYXa19Bb-40bHIPveaP-4" value="" style="shape=image;verticalLabelPosition=bottom;labelBackgroundColor=default;verticalAlign=top;aspect=fixed;imageAspect=0;image=data:image/png,iVBORw0KGgoAAAANSUhEUgAAACQAAAAkCAYAAADhAJiYAAAABGdBTUEAALGPC/xhBQAAACBjSFJNAAB6JgAAgIQAAPoAAACA6AAAdTAAAOpgAAA6mAAAF3CculE8AAAABmJLR0QA/wD/AP+gvaeTAAAAB3RJTUUH5QgKEwge+SYhdgAACuhJREFUWMO1WHtwVNUd/s659+7rZpPsZrN5kwRJIAGiFgKiKGoUUUEEEYsIjm9t1al27MO2M452OqMzvlqdttNpO22n/aMy1cGptqJIQBIgPEyUDUEgsMkmZF/Z7O69d+/rnP6xmxAc7Bhm2JlvZu+de8/vu9/5PQ/Bxf0ogCIAAQA+AC4ABIAGIAUgDiADgM10YXIRZIoJsLyiouK26urq1tKSkqAgCE7TsqBks3o0FovHYrGQqmn/BdBZIHjJCBV53O4H1q9f/2x7e3t9TtdJNpuFpmkwTRO2ZUFRVQyFwzwUCo2Mnj37Ouf8DwDS39aAOENCC1avXv291WvWNOzYsQNjY2OwLAuMndsZQggcTidpaGioUZTsExPpzKFGYNfgDHxhJmrOa2xsrNu/fz/C4TBs254iAQCcc9i2DV3X4XA6UOL11gCYPzgDOzNVSIjH44QXSDDGwDm/IAACUZIIAGEmrjEThTiAtKIouiiKYIz9X1BKIDkcRsF/2KVSKK3ruiEUCFFKp/xnulqMMbhcTkiipAOYKHzMJSGUUbLZnEDplOHp2zR5bds2JFECpVSfSYRdDCFlYiKtTRpnjMGyLNi2Dc45CCGgBbKiJIFzrgPIft0PAdjflhCZdo8VMF3u8Wh0LDo6MjIvm83CMIwpVSajjBACQRAhUApV02IAEgAQDAZgGMa8YKBsazSW+EtqIj1YsGdO9zFhmrFSQsgK2eNZJwnCdbZtt3FgLoBGANUAigFoiqKU53K5pZLDIQIApXQKk5EXCARACLFCodA7hmkeADBHUdQlK29e8rMf/fD2+4dH060jkUST0+lYblmWr1BqtOkK+fw+3xNr1659PFhRUXV2dJQoqmpalmUaum5kMplcLBpNDw0PH1RUde/w8PBHdXV1t5b6fOKkU0+qVOz1wiGKdk9PT2dWUcJzm5t/2djY2J4Yj/ufeqil9KbmHZQ+cmUH4L2RM/C+vt54IpH4E+P8DQBjQiH0b968efMLN9xwQ+3nvb00nclQSqkoSZJTlmVPSWlpsVxUVE4JactpWo2qaTtVVWVOp7NB9ngoLxCSRBEEnH159OjeRDK594brV9zz2GNP3GRzVrbmlir3nS17CY0ewZxaIONoITt39xNREGTTMFoM0zwOICQA8FZXVj5614YNHbs6OzE8NARd16EoCtLpNFKpFFKpFBLJBAghxFdaWmUaenkmq3yiKopJKa2nAqXMtqEqin1q8PTeiXR63y0rV6558MGH23oOHiROKYbvrxyCK74PIADVzmJeayVCowEcGxiG0+nw5DRtgjG+WwBQ1dTU9NC8efMae/v6MPm1k1sAAIwz5LQcGGNwulzw+/1BQ9cD6UzmIyWTOaupijebyaYTicTHqqYduv2229Zu3bp1wSc7dyKdjuD5LS4EU/8BbDsfIhxwGhEsbF+EnmNAJq1D13XVMIwdFECJJEmBeCIJTcvBMMwpmKYJxhhsy56qW6ZpglCK5uam1oDf32Ha9u8nMtlN4xMT380ZxtvXXH319RvvuWf+9vffx/ET/Xh6cxXqlY+AnA5YOAdNRaP1IX78eAuCFQG4nE4/AB91O6XLZFmoiieH4A+4UVbuRlm5B4GgDLebQlMV2Pb5oZ3L5QBCUVVd3QLAN3/u3H1ul6sbgDx79uzW7u5ufN7bi0c2zcdScRcwHs+TMAuwCpkoFcWK8i48cF8bqCg6ADjFqlm1tc9saS9ZJg2BWc6pUiiIIvp4K557bc9U4mOMgRACzjlcTidUSk0A+tGBAaGQr7TDhw7l5OJi3L3uCmxsGgAZOp4PG1YIn+kgAI0dxb2LK/HVlmv9v37r3/VizuIZITvBSk7shJWbABUBQgFRAGZfeSeKSmQkY5nzSkNVZSVEUbTD4XA3AI/b5XrSZowahnG6/9jA7hUrlmxc2XG5EDYJeOW9qBLi8I7sBCwr/8EFMkblIgyL82DnCG67Zb6v74uxpwRFM8pWLGtZ25KLeKxMBowDnAPMAhz+ALozpQgPJQBwmJaJuro6eGXZ2n/gwK7k+HjfqlWrHl57xx2bmG3fnEql2nK6fkRTVWNv92DNZ/2S8MEBFW1tDahRvsgTmsz/goQvXavw6Esn0NUn4p/vdA5EIqPvUaarg8MT1ojp8sNUAVPLw9ABx5kT6Ggrh81tiKKI2Y2zUSTLVve+fZ8mksnD69atW79p06a2M+GwI6frUm1t7QK/r/SusWiyp7//xPazkajWUOtDMz0DZHKAgXMQS/DlKR2GZkN2F7Fj/SffPTUYeVkAoAZrq5cubwi0CaeOg3GAMYAzwM4oqLlsFkKsDC5HCcC5un///g/jicSRNatX33XXhg3N7777Lo4fPw5CCDyyjEB5wGdbVtV4KrWLSFR+buuC2oXjnYCm5L2M5Z3aKmvGtlAFBMGPI4cPHx0ZHX0DwCnh1jUr7P6vIkVLlsy/vTIyKJhqDpwB3AaYDbhTccy6Zhn+1dU/tmd395uqph7q6Oi4/+6NG1t37NiBkZEIZFmG2+2G2+1GcXEJgsGgX1HUOU8+cnPFfWUhtxAZyJfRye0CRbjsWrz5zuD4kUO9nw2eHny1MKGYwlB4FNGR6HhN69yORWXuKmvwTD53TaqU1VCVS6H5xuvEsC6OGDk2f8uWLSu6urtJLBZDaakPsixDlmW4XC5YpgUlp+HutYu9TzbH3PLAnrzkk2RsAGX12J6cm/rj3/c8n4jHXgNwEIAOAIJt2eCcp5/9+QueK5ZefmMwfEYwFC2/hg0wDljJJGZpSXHx9Vct5MHapuODw8LevV359sPO90SKqiGVScNTJOD+VXPwgO8E5NAucNua2irCABAJ4YZV+M0HY+99fvjoS4VKz86by4q8MrIZJfjow3f+7ZkKuhIfbgdEC1TAORDAUVwMLFyMUEkdeqI6TkbTSKYUyB4naoIluLLGg6VFWVRGDoHHzgASBxUAMrkGALNlGd4cnRt+8ZX3NgUDxV2Dg+ELD4pXLV+EYwOnr//po3f+dUPiZJ26pxPEwc8jRSggEMDh9UCqqAAJlIE5XRCJDUFNgaaiYMo4OGWg0rT3CmTE+iZs93Wov/jt7p+EekNvXajXnmrQhsOjyKlaeGhcSVQsXrS82eP06GeG83mp4OScFbZQN2EkU7AiI7CHwrAiwzDjcZiaBpvxc89PwgBoTRP2VN9kvvpO39s9XYdfLwQ/vpHQ5KiTiCaOnkwqybKrliydUx6Q7dMRWLoFPo0YY/nkyXnBPSb/f40IswDYAmjzd/BJxbX6K9t6f7fr464XAZr5pkFEuMA9Fo/Ge49GEiespubWy9raKoqzGox4CrbFpwwz+2sE2bRrE+AWgcNfhWz7SmzjjaNvbNv/q317Dr5MKU1z/s1jmvBNQ+HEeKr/UOhk57Db65Lb2xsq6xvcHk4ARYedM8FMDmblVeAWwE0ANoEgueGsqoN5xTXorl3E3jqS7Prztl0/OHXs5D8A6NP7rJmffhACcO6uqKu++ppFC+5ZUl/ZMddBZ1UbWbFYy8KhqqC2AUgibK8HWnERxjwlGLAkdIaG8enunn2xsdjTAHouxXGMJMmeOeXlZauqy/3ry0u9C31up7fUK1ObEKgWQzpnIhqf4BOpTGY0EukZHx9/FcDHhS7okh1YiQDqASwBsEAQxCqHw+ERKCWcM9W0rLOWZX3JGDsA4PRMyFwsoenvOgvHeeK0oS9XCGl2MYv+Dw7pBLzCA6JcAAAAW3RFWHRjb21tZW50AEZpbGUgc291cmNlOiBodHRwczovL3d3dy5kdXN0bG9vcC5jb20vd2lraS9pbmRleC5waHA/dGl0bGU9RmlsZTpJbnB1dEljb25fNDEyMzYucG5nPVQr+gAAACV0RVh0ZGF0ZTpjcmVhdGUAMjAyMS0wOC0xMFQxOTowMzo0NiswMDowMIOEv6kAAAAldEVYdGRhdGU6bW9kaWZ5ADIwMjEtMDgtMTBUMTk6MDM6NDYrMDA6MDDy2QcVAAAAIHRFWHRzb2Z0d2FyZQBodHRwczovL2ltYWdlbWFnaWNrLm9yZ7zPHZ0AAAAYdEVYdFRodW1iOjpEb2N1bWVudDo6UGFnZXMAMaf/uy8AAAAXdEVYdFRodW1iOjpJbWFnZTo6SGVpZ2h0ADgyywAhPwAAABZ0RVh0VGh1bWI6OkltYWdlOjpXaWR0aAA4MjOv4bIAAAAZdEVYdFRodW1iOjpNaW1ldHlwZQBpbWFnZS9wbmc/slZOAAAAF3RFWHRUaHVtYjo6TVRpbWUAMTYyODYyMjIyNq2EXVYAAAASdEVYdFRodW1iOjpTaXplADg5ODlCQjFQ6ZQAAAAASUVORK5CYII=;" vertex="1" parent="1">
          <mxGeometry x="528" y="30" width="40" height="40" as="geometry" />
        </mxCell>
        <mxCell id="-rYXa19Bb-40bHIPveaP-5" value="" style="shape=image;verticalLabelPosition=bottom;labelBackgroundColor=default;verticalAlign=top;aspect=fixed;imageAspect=0;image=data:image/png,iVBORw0KGgoAAAANSUhEUgAAACQAAAAkCAYAAADhAJiYAAAABGdBTUEAALGPC/xhBQAAACBjSFJNAAB6JgAAgIQAAPoAAACA6AAAdTAAAOpgAAA6mAAAF3CculE8AAAABmJLR0QA/wD/AP+gvaeTAAAAB3RJTUUH5QgKEwUZ0uzKmAAACwxJREFUWMO9mGlsXNd1x3/vvmXezHCGnOE6oiiRokhRkkUtFC1bsi0bZmTZbmtbdaM0DWqgCdAYsJ0PLfolQIHCbooECOoUaIHCiIHCcWvUiWMEsS0HjrVACyWZWmyJEiVRXGYoLjOchbPPW24/cERRctFaqtEDXODOe8A9P5zzP/ecNwp3bwpQh6K2BUKhtQ1NoZZKNqNM34iPuFKmgDSQALKAey+Hf1UzA+FQ7+Yt3Xt610YeWRsJdEX81EfqvcbRsZL81Qefz2lCy87F5xLxeHy4UCx+DByuAn6tQCJYH+p/+KHN3/+DHV1PbveWmtoWJhRvdgrDymCGvLzXtJd3DmdpaWwgl88TnZyUw8PDN6ZnZv5RSvkGsPBVgbT/5X1o+4Obv/etga0vDfjKq1pGjyBnx1BEBccHthdcfxjXtohGJ8mkkiiKguHxKO3t7a35fO7FzEJ2qAMOjf1fgOobw8zHk63P7fvGP/zFjs5v9Y6c1p2rn1PSLPQa0DwgdBAaKOqtOEspcV0X27YxPAa1gUBrZiG7cQyOfFU9fQmoJlDDfDy5cv+f7H395a1t+yKf/lYpJGIYfhAGCPXWUqprOYyUEikloKDpugKod6PVLwHlsrna557d8+pLvav2NX7wa6WYiy/CaMtgBCjKoic0FVQV170dSFUFumFUqvpx7xVIbOnr/e6fb1nzp42ffKiUUnF0/zIQDYQCmtdE72gn07yKtL+J61ck0rGXgFzXxTQ96JpeBjKAvGug1atXEs9k+/bv7ntlw4WznvyNSfSaW6kRAlQhMNZtYKR9Gx+PO5z9XZJEYpJCroDHMJZgHMdB13SEEOW7qbDbgCYmYvof/eHAdwd0Z3Xxi7MIzyLEzaXpBu7Ox/mFXM2Hv51g9sY8uqZW9aJi2TaWbSOEQEqJputIKctA7q6BWldGiGfzGx7vXvVkzZkTFNwKuriVKk1VcXYO8K+J8MRb737s9m7a1CFdl1yuuJSmm8JWFAVV1VCFoFAsxoH5O+69m0IX1WfWco1pALHoDXbs2v5kr7DaypPXbwlYLGrG2LSNt8otyZ+9+f5rhdRCuyaUv64JBD2LztUlbzfTFQ6HKBaL9uzs7NGqs36gEQgqEDQMI2SaZtC2badQLJ6XUh6pthupCSFQFCXy7T/e+1Tj3LRStspovmolqeAJBLjUtoW33z6lWrnCbtuxj0ajsd+1tbU9WRcKaa7rLkUHIBgIYGiac/r06cO5fH6yu6vrtZ6enn5d14OGYRhCCMMwDF1VVW1yclKePXs2MT8//6Yr5evArCqlVEB56pmHt31v69Q1s5JJoHlA1Rcr2ty4kbcytcwkyqbf59tUKhZbC8Xip4VCwfV4PO1+n0/IKpCuaShI98LFi8fmk8ljj+3evf/7L744YJpmfSqV8udyOTOdyeizc3NqLBZTMpmMoqqqv1Iur69Y1hVgWAMCHr/3kdW1/lp3IbVYVVX9aBostKzi/NEZFjIZhKoqHR0d26LRSSOZSr8fjUaxbfsxf41fQ0K+XHamZ2aOZXO5wSf27Hn2hRdeuO/yyAgHDx5kdnZ22aXJ0l5RFIK1wfpSufS4ZTsfaUDY9Bg99ZpAlsu36UczdWaMGtKZWRzHAcDr9dLZufY+MTYmEvPzv4xFowmfz/ugEKooFosnS5XK5aefemrfn33nOxtPnDhBKpUiHA4zNzd3m9ZuArmuSyAYZGFhodvK5Rs0oNZnmvV+Q4C0F++cm9Xl0VmwJfl8Add1EUJgWRYej4fu7q4NjMjHE8nkDzPZ3D9Vq8fYtXPnq9/cv3/jhx9+xOzsDC0tEQKBAEIIKpXKEshtQDUBgoFgOJvLhwTgURTFYwFCF4tirqZMUVy8uoKqClz3VqhLpRIogsiKFeuB0MZ16wa9pnkC8K9Zs2bD4OAgly4NI4TAdR2EEEuRuXM5joPP5yMQCOiARwOkZdkyowhUrwfXqcJogFsmrFXw+TzkF/K4roKiKEgpMT0eCkJYQPniyIhabQ/FM0NDpYamJjRNQ0puu73vTJWUEsdx8Pv9eExTAlIARcdxi9NFC60ugKIsAqkqSCTNhTk6VtZjWfbSaNHU2Iimac7k5ORxwOc1zZcMw/gBUHfl6tWDsWi0YhgGqioQQlAsFqlUKv9thKSUBINBbNsuAnkBpKxKZfpCdA5WtC5ehjf7lw7m9BWe2BoBoWDbNitWrCBQU2MPDQ0dSqbT4wMDA3/7yiuv/OT+/v4fBwOBVy3bnozFYgcy6VTF5/OhaRqJRALLsr4E4rouqqrir/FTKBSmgXkVcBzbXovu2fmN7Z2iZuIywnDRjOogZudo72rjgh2mUhGE6+rsE4ODnybm5y/s6N+0f1tf39qx8aiaTCVVr2k2OY69MpfPH17IZuO1weCaQCCgjY6OUiqVllLkOA62bWNZFp2dnYRDYff06dPvWbZ9QAVsKWVpIZu7f/22jS29ThK3lEHzgGYsRqmmMMP6hx/k1JQtDx48+mk6nT7V19f33DPP7Gp/4pF6Dh0fZnY2TW1dLY2NjSHbtiOpdPr3yfn5mXQqtVq6run1eqmvrycSidC6ciXNzc10dLSzbl0Pg4MnLk5Pz7wOjN5sRHGrYs2odaHNA31dDcbUZVQPqMYilEKZFjlD584+JvJGscbf0Pv8vue7FWWeb3d+xkP9bcxWwkSn0tTX17MiEgkX8rnIfDL5Tjqd/qRYKCTz+fxMsVicsyqVlOs6Oa/pLQILQ0NDJ69dG/1p9QvFWj5aag2R5m/++OVn//m5G4fq3NkRdD/oJmjmIpxoaCDW+SgfxCIcODzO+p5a/n7XWZT0VRbaHuPtM6t59zdXQSpM34gxeu3625Zj/xVQBPyACfiqe3+18U4CsWrXR10G5BZy+WslT03Ltp1b+puS1xVFKaMaVRgDFKdAcOEKW1tz9PdH2NAVprFwDqWSxlMaY2u3S1P3Jo59FiM+l8J1bKVcqRwAotW5KA3EgSlgHJioPlsaP5YDYXg89pXLo8OytWNb3/3rV9cmRlFUexFIAwxAcxH5OcKlKzSVz6NU0qADmkSUpulunuGBR3cwnanl6rWpcrFY/KAK9JXsNiDHcejZ2J0+duKLYVZ1P7B5a2dzbWYCBQvFqE5Py8BQ7MXf6rJ3VpYG7SoPP9qFHuoxo1O5eDKZPmnomuW47t0BASTi8/zgb/5y6uc///W5XENnb+f2za2Nbhwq2cVI6MucL98vh5IWXnec3gcf0CYTDWtOnb5w0GsaUxXLvnsggONHTrL3+Wdi//HWb45OOHUNwc07u1ojNZpuzYNbueV8OZC2bDD1BZnzP83r/15y//OXR/4tk8m947rScqW8NyCAy+cvIF03ceni6CfnxgpT077OFUbnlsbQikZhegFhLaZMyFswKhBq53z5aV57I8/nXySsLy4MvyulPOZKKe9aQ3da9YxSfDb+2fHBSx8dOptUjoybW2L6er3YuAXvyvUE3BjIEugCu3k7713excs/PEIuL4m0NBcvXrz4PnDunkTN/0yXSafS49dHb2weOjfVceDoNG5dJ7t7MihOllTDXt443Mm/vHmGUF0DPevWcfLkyVPJZPINYPbrB1q0BSll1HHsRqtiNW26r9WzZ4eujFgP8KNfSM6cS9LS0iJdx8kODg4eHRsf/wlwGnC+rr9j7jQLOFSxrNGKZT2haf6/O3hjU+hHP/343PFjn4+bHiNfKBRmKpZ1QUp5qnr5Wfw/WcsjD207/NBD238GrAUagLpqexD3euh/AXpzk8iTK3AlAAAAW3RFWHRjb21tZW50AEZpbGUgc291cmNlOiBodHRwczovL3d3dy5kdXN0bG9vcC5jb20vd2lraS9pbmRleC5waHA/dGl0bGU9RmlsZTpJbnB1dEljb25fODc0MTIucG5nxpfjmAAAACV0RVh0ZGF0ZTpjcmVhdGUAMjAyMS0wOC0xMFQxOTowMzo0NyswMDowMCXztB0AAAAldEVYdGRhdGU6bW9kaWZ5ADIwMjEtMDgtMTBUMTk6MDM6NDcrMDA6MDBUrgyhAAAAIHRFWHRzb2Z0d2FyZQBodHRwczovL2ltYWdlbWFnaWNrLm9yZ7zPHZ0AAAAYdEVYdFRodW1iOjpEb2N1bWVudDo6UGFnZXMAMaf/uy8AAAAXdEVYdFRodW1iOjpJbWFnZTo6SGVpZ2h0ADgyywAhPwAAABZ0RVh0VGh1bWI6OkltYWdlOjpXaWR0aAA4MjOv4bIAAAAZdEVYdFRodW1iOjpNaW1ldHlwZQBpbWFnZS9wbmc/slZOAAAAF3RFWHRUaHVtYjo6TVRpbWUAMTYyODYyMjIyN9qDbcAAAAASdEVYdFRodW1iOjpTaXplADkwODJCQvtJt6EAAAAASUVORK5CYII=;" vertex="1" parent="1">
          <mxGeometry x="528" y="90" width="40" height="40" as="geometry" />
        </mxCell>
        <mxCell id="-rYXa19Bb-40bHIPveaP-6" value="" style="shape=image;verticalLabelPosition=bottom;labelBackgroundColor=default;verticalAlign=top;aspect=fixed;imageAspect=0;image=data:image/png,iVBORw0KGgoAAAANSUhEUgAAADAAAAAwCAYAAABXAvmHAAAABGdBTUEAALGPC/xhBQAAACBjSFJNAAB6JgAAgIQAAPoAAACA6AAAdTAAAOpgAAA6mAAAF3CculE8AAAABmJLR0QA/wD/AP+gvaeTAAAAB3RJTUUH5QgKEw0f81blpQAADvZJREFUaN7FmmmQHGd5x3999/TcM3tJu+vdlS1LwrZsS7BYNiAfMfhIhRQkmEqCIZV8iENwUSTBBicVQlUC2BDyhcsfyGFSpqggbKWwwCAOE8sHsiVZXslg7a7Qak/t7uzM9Exfb3fnw/Yss+uVQ7SquKve6ump6X6f/3P+n6dH4uIeKmAAKUBPrgFCwAPc5BxcrA2li/QMC+gHdgBbVVnu1Q2jIMuyDhAK4ftBUA2jaBp4FTgBTAA2EL+RAGSgC7ilVCq9b8e2bbsGh4aKHeVyyjBNOQpD/CDAcRwWFhaiyclJd2JiYml+fv4lPwj+EzgAzADRhQqgbBBAAfj9Xddee/9999+/59Z3vjNfLJX0CCTXdfF8nyAMURSFXC4n9WzapHV3dWVlWb7MrtWu9oOgBpwCmm+EBWTgum1bt37xs5/73HDdtjlw4ADVapUwDInjZc9onVuHpmlEUcT46Cjjp8eP+YH4S+CngLhQIS700ICde66/fpum6+zbt4+FhQXiOEaWZWRZRpKklXMLjOd5BEFAsVgkk05fBuxKAv6Cs8ZG7u1QZNk8fvw4juOgKApxHK/S/nrXAKqmYei6AXQmyvh/BxADwWKlEvq+D0AURavcph3A2u9kWUKS5VZ6jd8IACFQtW3bVxTFkiRpFYDzWWL5uxhV1VBUNQDqF+r/FwNA3XVdv+XncRQRv44F2r/PpFMoshIAteRZb4gL2a7repIkIUkS0Tq+vh4ISZIwDIM4irzEAtFGUuGFHhHQqNdqXpTk+iiK1hW4taIoWnEzQ9eJ4njDADZqgYZt247neasyUBRFK7WgZYlWKo2iCFVVUTWNMAw9oPFGBTGA7ThObX5+niiKcBwHIQS+769YY8XUsoyqqsiyjKbrsFwT6kkMXFQLaAk501upMskSYbJR+5qv2/apF198YY9umnK9Xl+l7fYCFoYhQgjCMGRTTw+2bcdNxzkFzLXRGjlZSiKblsghJenWBvx2i6lreFEH8GZZlod1TesRQgQiDGtANbm5nqwaMAtU/CB4amTkxM2Dg4P9hmEQhuGK4O01IYoihBB0dHTQ1dXJoacPzTmu+1Tys2uBzQm3yraWIst5XdezkiRpvu8vijB8BngamG6lXqmNE/XJkvRHu3bt+uDbbrhhKAgCfX5hIbZtO/A8TwRBEDjNpl+3bbfRsN3KYmXabjZ/FsfxC8Dbi/n8By8ZGCjpCYi1BU0IQdqyGBi4hBMjJ+onTp78ZhTHBzVNu7a/r+/GjnK52zTNlJVOG7qua7quq+l0WkulUnKj0eDYsWPRqVOnzjqO82gMX09IYNQCkAXuunHv3r/75AMP9J09e5bDhw8jhEDTNBRFQVVVFFlBhIJ6rcbY2BivvHKyOTs7dzCMou9KsLuQz79/YHAwaxgGoo3QhWGIpml0dXQwOjraeHV09DtRFP08l8u96/133XXT3r17U7NzsywuVvA8D9d1cV0Xx3VpNpvYts1SpcLczAwzMzMLru8/CDwMLLUA7Ojs6HjooYceurPRbLJv375fa3FZhbRyvSzLRFGE67oEvs/s7Kw/PTPzMyHEf0lwTbFQeM8lAwM53TAQQiyDiGNM02BmeqZ5ZmJifxhFL3SUy7f/xYc//LYbb75Z37fvOzz3/HM0GzaBHxAm6bY9EbT2ri0tUalUnhZR9BHgqJrEwY4d27dfnS8UeOzxxxFCrKRF4pg48eFWWvQDn3qtjqZp9Pb16bqm7Z04e1bzg+DxytJSFEXRe7q6uwu6ri1X5ihmavJs/dz8wnejOD7W1dn57o997GPX7dq9W92/fz+nT49Tr9UIRLASni2B19aRTC5L02luFU3nCmBETaJ8y+DQUHF6epqlanVFy+erpiJY1mwUhvi+T29fn6ooyg3jp0/LgRDfqdZqnue6t6dSqc2Kokiu583azeb34jh+paur63fu+/jH91y1c6fy6KOP4rou5XKZyclJ/Kp/3urdkiWbyZBJZ/KNprMFMFXABHosyzLn5uYIhUCW5fOyySiKCIKgpSaEEDQdh77+fkVV1T2jY2Oe5/tfdXz/x67v7wDkGH4BBJ0dHX96/333XX/Z5ZcrDz/8MLZtUy6XMQyDbDZLpVJZ5lSJttfKEEURhmGQz+f1uXPnNsWQkgFNVZScaRhKrVZb0Xz7ee3nVny0TB0EAbV6nd6+PqWvd/MeSZK2Aj+M4fMxPJT0vkN33nnnDdu2bVO//KUvMTk5iSzLK2nXNM3z7te+FFWlXC5LiqJkAUMGFEVRNEmS8DzvNYjX+9zuWs1mk0ajgeu6NB2H7u6elK7rWxPXbCZUQTYNY0upVLKeOHCAqakpVFVdJWjLbaM1Ady+d5hwrnw+jyxJKqDIiSCx7/sr/GU95Gu1E8cxtm3Tf0kH1+6+HNuuY+g6iqLEcRQ5ayhyKISwn33mmXh0bAxVVV8TX2EYriv42r0NwyCdyYAkRUCsAiIIArdWr8eZbFZ6PTbZTodrtTqXbuvjH++5nc2mxqdzKU6OTDM1OTnrB8ExIAP0JEWyLsLw2EvHj58Z2rJlKJ1OJ1lGWvH5ZrP5v/YRURSRzWaRACGEBwQy4MVQWVxcFHKSOtezwK9XjOM4XLqtn8/c8y4u/eG3kb/2z3zypsvYuqOH6dmZVwDFsqyP9/f1fbVcKn1NUZQHAMNuNPadOX16TgQBqVQKRVFQFAUhBNVq9TUWWOvOAKVSCS/wwyiO5wFXSTS0JZvJvKOvr8+cnZ1d9ZC1GqnV6lxyaQ8P3nsbbzq0n8bIUQKngT46ytvffSu1Ylf+7MS5nX9+zz0333b77UMx9Ner1Z1Nx+mNouiw5/sTrusOdXZ2poulEoZhYNs24+PjCCFeN/spiszw8DDjY+ONM2fOPAY8rySsMuf7/js6yuWOIAhwXXfVg1qaqdXq9A508tl738lVLzyOM3IESV+mgUHdRh8d5bo79qaanX1lYkM5/PPDTE1NYZimrMryJsdxusIoetZx3TGn2RzY1NOTLZZKjI+Pc+7cudeNPd8P6O/v56qrruSpp346Ua3VHgFeVRK2IDzPG/Q8b2c2m1FaAdVKk4qiUK/b9A918+BH38Xukf24J4+sDEMkQFIgqNUxRsd48y3XcfCVMZ559iiyLKMoCoVCQbIsq7vRaHQKIZ5uNBqv1mq1ASkmv1RdAkDXdUzTxDAMNE1D0zRaw4Ku7k7uuOMOToycCI8cOfJEFMffApZao0UvjuOGXa/vcJtOr65rkqqoGLpGJp0mCiO6NhX5zEdvYfjVx/B+cXRZeGn1bE9SwK/Y5F2Py+/6PQ4+8zKypGGaBrph0NnVKVkpq7tarZYDIf67btvHp6am8oHvF1RFkVVFlQqFgtTb28uWoSF2bN/OFVdcwZVXXsnVV+9kfHxcHPzRj553XfcrwHEgbPUDHvBiRzn3S8tSh8dOjVZN03RkRQmFENYVV28v/v29N/KWM/sR40dRUusPyOMAckO9VG+6la988yBhKFMs5FeCVdd1tl5+uaSp6rXHXnqp4XreFzzff+7cwsLuhUrlUkmSCoqi5HRVzRiGYZmmaeVyOdOyLGWxUmmcnZx83vf9R4FDicyrGppgx44tmY/c+wHpy1/9lv+DJ5/+D8C94R3Df/yFT9xeHJ7eT3z6ReR24dsnqwKM/n6W7rybf3jil4y8PEl/X//KmLFFTzzXI2VZciadHnY9bw/wxTiOnwnDMA2YQgjD8zyz3mhYgMXUVDrpzJaA8WSa7a3XkWm5UqFw3ZtcBj9xc+dfId/m+SJ88L5bNw0vPA6njyAZIIt1WvsQ9L4+5m+5m0/v/yXHj55mcHAQVVVX+oFms8lSZYn5hXmC5TRqaooyHIRhR9JWNtYZPLc7abxe77wKQLGjkDEqx7imdpR/euC9V4SRzDXn9sPEkWXKJ5afJrdvEYK2uZfpt3+AT3zzOD/43rPkczkcx1mhC77v02w28TyPMAxJp9Pk8jkWFxa6gzAsJU+K11FN/H9p6nOaSlHDhZkT7HQrEMkwO7X80kisVo2cuI2yqY/Z6z/E3zxynCefOISu6zQaDer1+mtqSfKBMAzJ53IYpmE2XDdzHgC/+WCrmC8AlMq5VMGgsexxtWlYmgQ9XobZvjSQJFA29zFxw9186tujHHji0ArHids6uLUNfhTHCBGSLxRJW2kDSG9kwCYD9Pf3kkpl810dlqnF1dUDDXWdBdDTy8Rb7uYz+86wMOdjpVLrFr/1qEEYCnK5HLlczgByGwbQ09uNmTI7cmlVQ9R+PZVR1iw1MXZ3L1O7PsTf/uvJ5smXfuVt37YNIcR5hV5bXYUQ6LpOoVjUk4HCxgBcdfV2Mlmro9hhKkSN1QK3uQ0y0LmZ8e1/yKceOTX+jX/f/8Nyuez5QbDSwP8mFhBCEMUx2WxWTyygbgjAW6/fiWWZuUJBkYnd12q/7drffiNf/4kT/Nu/PPaNMAwPW5al27a9AuD1LNDO/YUIsdKWmtBuZUMA3ve7fybLMj2WFshEwbqCt671qRf57eGsunfvW+4AdszNzkZzc3MrjPE36SfCMERRFWRZab1n2PBwN51NpwbyKQFVfxlWvCZnqoCiQP1XvLXwE+nBT793919HbHnhhRfp2bQJTdNWWtL1XjO199P9/f0MDgzw5Pe/vwSMtlfWCwVgdXYWi6WiDBQh1wlKlljJ45PDwyLAwnF1mp5G3deoVER8/Z6rMoefP1KfOPMrNV8o6rqurwxxW0HdYrSmaZLL5RgaGuKaa65hZGREvPzyy08Bz23krwdqUkHMwHNSR8e6IP6DuLLghUtLflC1hT8zV2/azaDievXq/HytVqvai/VqY2F+bnbR89yZRtMNRBj9VhRGtxaLxVK5VKJYLJLNZslkMliWhWGaGLoOkkR1aYknn3yyOjIy8mPP874MjG1kvC7Jy3fnyoXMn5S7OodEKNeaTXfOcdypZqO5GAROFVhIJgwi+cNGa+QeJ3Oly4BbZFl+m65pl1mpVCmfz5spy5J1TZPCMAxr9bpbt+2lRqMx6nneIeAgy/OiC35Lf7H+7NFKBhZQBrqTd7+5ttm+n4zk55Ox/HxC3qKNbnyxAKwHSG4rUHHbS5H4Ym70P6nQ+mvkLpzZAAAAV3RFWHRjb21tZW50AEZpbGUgc291cmNlOiBodHRwczovL3d3dy5kdXN0bG9vcC5jb20vd2lraS9pbmRleC5waHA/dGl0bGU9RmlsZTpJbnB1dEljb25fMS5wbmcLg0+BAAAAJXRFWHRkYXRlOmNyZWF0ZQAyMDIxLTA4LTEwVDE5OjAzOjU2KzAwOjAwTy6/NwAAACV0RVh0ZGF0ZTptb2RpZnkAMjAyMS0wOC0xMFQxOTowMzo1NiswMDowMD5zB4sAAAAgdEVYdHNvZnR3YXJlAGh0dHBzOi8vaW1hZ2VtYWdpY2sub3JnvM8dnQAAABh0RVh0VGh1bWI6OkRvY3VtZW50OjpQYWdlcwAxp/+7LwAAABd0RVh0VGh1bWI6OkltYWdlOjpIZWlnaHQAODLLACE/AAAAFnRFWHRUaHVtYjo6SW1hZ2U6OldpZHRoADgyM6/hsgAAABl0RVh0VGh1bWI6Ok1pbWV0eXBlAGltYWdlL3BuZz+yVk4AAAAXdEVYdFRodW1iOjpNVGltZQAxNjI4NjIyMjM2tJ9sFwAAABJ0RVh0VGh1bWI6OlNpemUANzkwOUJCBbJzrgAAAABJRU5ErkJggg==;" vertex="1" parent="1">
          <mxGeometry x="292" y="202" width="48" height="48" as="geometry" />
        </mxCell>
        <mxCell id="-rYXa19Bb-40bHIPveaP-7" value="" style="shape=image;verticalLabelPosition=bottom;labelBackgroundColor=default;verticalAlign=top;aspect=fixed;imageAspect=0;image=data:image/png,iVBORw0KGgoAAAANSUhEUgAAADAAAAAwCAYAAABXAvmHAAAABGdBTUEAALGPC/xhBQAAACBjSFJNAAB6JgAAgIQAAPoAAACA6AAAdTAAAOpgAAA6mAAAF3CculE8AAAABmJLR0QA/wD/AP+gvaeTAAAAB3RJTUUH5QgKEwQ1+S+XOgAADYZJREFUaN7NmnmMXdV9xz/33PWtM/Nm8die8YI92E7BgNlsNgMNjghRotK0QI0StaoqpbSqRNNAmi7/tKIUNakUOSn8kdIK4gCtKUSUiJKUpbaxAwZjvOLxwuzjmXlv3nb3c/rH3Dd9M4xJa7s4R/rpvnvn3Xd+++/7+53RuLDLAGwgBVjJPUAM+ICXXMMLtaF2gX4jDfQC64A+Q4illm23CiEsgDiKgiAMp2MpR4APgUPAAFAF1MUUQABdwK8WCoXfXLdmzYYVK1e2dbS3p2zHETKOCcIQ13WZnJyUQ0ND3sDAQGliYuL9IAz/BXgZGAXkuTKgn6cArcBvbLjqqocfevjhTXds2dLSVihYEjTP8/CDgDCO0XWdfD6vdS9ebC7q6soJIVZXy+UrgjAsA8eB+sWwgAA2runr+87fPProdZVqlZdffpnp6WniOEapGc9oXBvLNE2klJzs7+fkqZP7gzD6Y+B1IDpXJs51mcD6TTfcsMa0LHbs2MHk5CRKKYQQCCHQNG322hDG933CMKStrY1sJrMa2JAE/DlnjfN5t0MXwjlw4ACu66LrOkqpOdpf6B7AME1sy7KBzkQZn7oACginisU4CAIApJRz3KZZgPnPhNDQhGikV3UxBIiB6Wq1Gui6ntY0bY4AZ7PEzDOFYZjohhEClXP1/wshQMXzvKDh50pK1CdYoPl5NpNCF3oIlJPfuiguVPU8z9c0DU3TkAv4+kJCaJqGbdsoKf3EAvJ8UuG5LgnUKuWyL5NcL6VckOEGSSln3cy2LKRS5y3A+VqgVq1WXd/352QgKeVsLWhYopFKpZQYhoFhmsRx7AO1ixXEAFXXdcsTExNIKXFdlyiKCIJg1hqzphYCwzAQQmBaFszUhEoSAxfUAmYCzqxGqkyyRJxs1EwTlWr1+L5972yyHEdUKpU52m4uYHEcE0URcRyzuLubarWq6q57HBhvgjUiIT3hzUz40JJ0WwWCZosZ83BRB3CNEOI6yzS7oygKozguA9PJy5WEysAYUAzC8I2DBw/dvmLFil7btonjeJbx5pogpSSKIjo6Oujq6mTXzl3jrue9kXztKmBJgq1yDdKFaLEsK6dpmhkEwVQUx7uBncBII/VqTZioR2ja/Rs2bPjqTTfeuDIMQ2ticlJVq9XQ9/0oDMPQrdeDSrXq1WpVrzhVHKnW628qpd4Bbm5rafnqsuXLC1YixPyCFkURmXSa5cuXcejgocqhw4d/JJX6qWmaV/X29Nza0d6+yHGcVDqTsS3LMi3LMjKZjJlKpUStVmP//v3y+PHjg67rblfwgwQEyoYAOeCeWzdv/ss//da3egYHB3n77beJogjTNNF1HcMw0IVOFEdUymVOnDjBkSOH62Nj4z+NpXxJg6tbW1ruXb5iRc62baImQBfHMaZp0tXRQX9/f+3D/v7npZQ/z+fzn7v3nntu27x5c2psfIypqSK+7+N5Hp7n4Xoe9XqdarVKqVhkfHSU0dHRSS8I/hZ4Aig1BFjX2dHx2GOPPXZXrV5nx44d/6PFGRXSyPVCCKSUeJ5HGASMjY0FI6Ojb0ZR9GMNrmxrbb172fLlecu2iaJoRgilcByb0ZHR+kcDAy/GUr7T0d5+5x888MBNt95+u7Vjx/Ps2buHeq1KGITESbptTgSNvculEsVicWck5R8C7xlJHKxbt3btFS2trfzbCy8QRdFsWkQpVOLDjbQYhAGVcgXTNFna02NZprl5YHDQDMLwhWKpJKWUd3ctWtRqWeZMZZaK4aHBypmJyZekUvu7Oju/9OCDD27ccPXVxosvvsipUyeplMuEUTgbng2G59eRbD5H3a33RXX3V4CDRhLll6xYubJtZGSE0vT0rJbPVk2jcEazMo4JgoClPT2Grus3njx1SoRR9Px0uez7nndnKpVaouu65vn+WLVe/4lS6khXV9cXH/rGNzZdvn69vn37djzPo729naGhIYLp4KzVu8FLLpslm8m21OruJYBjAA7QnU6nnfHxceIoQghxVjQppSQMw4aaiKKIuuvS09urG4axqf/ECd8Pgu+7QfAzLwjWAkLBMSDq6uz83W8+/PANq/v69CeeeIJqtUp7ezu2bZPL5SgWizOYKtH2fB6klNi2TUtLizV+5sxiBSkBmIau5x3b1svl8qzmm6/zPzfio2HqMAwpVyp0L16sd3V1bgLWA/sU/JOCfwT2AOtuueWWm3p6e41t27YxNDSEEGI27TqOc9b9mkk3DNrb2zVd13OAbQC6ruumpmn4vv+JWGYhoCalRAiB67pUyyXWXLoitW7tyt/JZlK36LoeAMhYmtVafVUmo6cf//53GRwep7Ozcw6jDbc92x6NbKbrOi35PELTDEA3ki+pIAiIm0x1NuYX+puUkiAI6WjL8u3f/oKW6T/eE8dRT3PnrcUKa/lytr1vcfL08JxC16jUDUbPFgcNF8pks6BpElAGEIVh6JUrFZXN5bRPskAzHI7jeE6w53JZWgotpAb6qT39NLEKoKkiyyBm0c03k+tehW4YSZbRZn2+Xq//wj5CSkkul0MDoijygdAAfAXFqampKN/aap5Ny/ORZUNrAN3d3XR1dlKunAFLIWyJQs6ZeWgCNFsiNYlIfF7XdXRdJ4oipqenf6EFAAqFAsXiVCyVmgA8kYCkgZGRkZpq8sXmYJpvxkZ+DqOQ7u5u1lx6KQc/OFgtlUt1YWtYDpgOmHZCyb3uaCih4uHhYS8MAjKZLJZlUalUKJfLH+sb5ge0rgva2tooFUv1ZLLnigTdfXj69OnR0ZERGoBsPrZvoMkGopRSsqx3GZf29fHWW2+VDh898hPTMkfRwUzNMGylEko+Cxt0Qw/K5ek3Dx06NOS5LqlUirGxMXzfn7NXgxrPfD+gu3sx2WyG06dPjQFHAd9IYPGxYqn05v79+1ctXbrUbKS3hrs0cLxhGDi2jWlZtLTkyWVz7Ny5c+LI0aP/CozGsbxJN8FIzyT/+cBdt0EqaQBHxsbH39m7d+/WtWvW9pbLZTKZzGx8NQd1GIYEQcDiJd1s2bKF9/e/Hw8Pj+wCDgNxA06PSymfGxgYWOe59U2FQrtu2TaWZeI4KSzLwjJNLMtCExpSKjV1ZiLcvWvXqYHBoeeBwdaW1q2pVHqRMGe0Hc8TQBlgOCA9ZaKJW1DyB8MjI49PTk7+Wks+vy6TydimaYmW1hatUCiQz+fJ5XJYto2maeRyWfr7T0Svvf763iiOn0ng/Gw/4AN7gjB8ZGR07CvTpelrbMfOCqFLwI/j2JNS1qWU9UjKiozjUhhFp+I4/jkQFwqF379/6/3X1P2ihog/LoAGKgTdVhixQe/SpZdPTpz59brn/Z0fBHvOTE5ePVksrtI0rVXX9bxlGFnbttOO46Tz+byTTqf1qWKxNjg0tDcIgu3AroTnOQ1NGfhPqdSxquuurrpuIenCakkzUwfchLyksTE1eOALd9118xVXXmE8/8IzaFYvZhqEnDd5NUE4oOqQzWWF59avq3veJuA7SqndcRxnACeKItv3fadSq6WBNMPDmaQzKwEnk2m2f7aW0k0ahZNNEwuZoOqF+tZL2tvbr73++uvTr776KmfOnEFYy9BTCwgQgbA1YhlTLE3jOI5j6vp1YRx3JG1lbYHBs9b0KwvyYHzC0Op/M2xqy6TT3a7rcvToMczkTMZwQM0P4mjm7EYxk9nybQWmJicXhXFcSJhUC0w91P/nXAggZVl2OggC6vUaSknQQXdmMo7uzCVhgVSKOIrJ53LYtu0AmfMZ85+TAMlu6VzG+ayTMhZ/cPAAEkUmn0ezdLBBs0GzEkruMSGVzZLOpVECCu2tHd2L2u+zdL3PFOemS+1cX1KwaE3fsme//ie/d8uaVTaxN0U2k+Xy+m7s/S+Bpj4+x1t0CSc/8xVOlWIECmn28OST/15/+qkX7xVC/DiU//fx0PkcMUXlcm1pNp+58b7PdeqXDf2QJaOvYYwdAhHPRFczmYA/TVvxPVbW32V5j8O+sTz//NQrr5yZLD4ulap+2mdkppTysnot2hzai6xrNyzGHHwbtHCGYX0hUhB40NHDbnE7D/3Fs+HBg8eeA352rkev5xPEAsiuv3y9sf+9MZ58p4C88vNgiZku216ADGDxEo73fpl/ePowpp5i3nnypyoAQFSplJGx5Nt//wIvj10JfdfPsGPNIwPI5ymuvo+/fvww1XLEsmXLGilbXQwBQuDkvn37po59eIzi1DR//lc72KPdAb1rZlzGSnzfBFIW9c/czaPPTrDzvw6wdu1aPvrooxLQ31xZP80YUEDg+d4K33XXZHM5vTxd4+RgyMY7P0urPAZhbUbzQiPq28IP313Nq/9xjNtuu42jR45Eu3bteiWK46cSYKY+bQFIyv9IGIbZKAyXpNNOanR4ktFylpvvuBbH/QBkCL3X8srIZrZ97w3aWtt4d9++6V27d7/i+/424MCF/N+Jc6rGwGXAH+lCPGeZ5r5sJjP0yCNfi7zDX1bqrVXqvV1/pjZu3FCyLOt9x7Z3AF9PJtJpfkmWALLAcuA64IsrViz70TPbvxmePvZd9VtbP38CeADYCKxMhsmCX+KlAatu2HTVa1u3fqnaXmj92gU4DVpw/TfZ6aucZH2FwAAAAFd0RVh0Y29tbWVudABGaWxlIHNvdXJjZTogaHR0cHM6Ly93d3cuZHVzdGxvb3AuY29tL3dpa2kvaW5kZXgucGhwP3RpdGxlPUZpbGU6SW5wdXRJY29uXzIucG5nTCM1UQAAACV0RVh0ZGF0ZTpjcmVhdGUAMjAyMS0wOC0xMFQxOTowMzo1NiswMDowME8uvzcAAAAldEVYdGRhdGU6bW9kaWZ5ADIwMjEtMDgtMTBUMTk6MDM6NTYrMDA6MDA+cweLAAAAIHRFWHRzb2Z0d2FyZQBodHRwczovL2ltYWdlbWFnaWNrLm9yZ7zPHZ0AAAAYdEVYdFRodW1iOjpEb2N1bWVudDo6UGFnZXMAMaf/uy8AAAAXdEVYdFRodW1iOjpJbWFnZTo6SGVpZ2h0ADgyywAhPwAAABZ0RVh0VGh1bWI6OkltYWdlOjpXaWR0aAA4MjOv4bIAAAAZdEVYdFRodW1iOjpNaW1ldHlwZQBpbWFnZS9wbmc/slZOAAAAF3RFWHRUaHVtYjo6TVRpbWUAMTYyODYyMjIzNrSfbBcAAAASdEVYdFRodW1iOjpTaXplADcwNTFCQjFvsFUAAAAASUVORK5CYII=;" vertex="1" parent="1">
          <mxGeometry x="112" y="324.5" width="48" height="48" as="geometry" />
        </mxCell>
        <mxCell id="-rYXa19Bb-40bHIPveaP-8" value="" style="shape=image;verticalLabelPosition=bottom;labelBackgroundColor=default;verticalAlign=top;aspect=fixed;imageAspect=0;image=data:image/png,iVBORw0KGgoAAAANSUhEUgAAADAAAAAwCAYAAABXAvmHAAAABGdBTUEAALGPC/xhBQAAACBjSFJNAAB6JgAAgIQAAPoAAACA6AAAdTAAAOpgAAA6mAAAF3CculE8AAAABmJLR0QA/wD/AP+gvaeTAAAAB3RJTUUH5QgKEwQ1+S+XOgAADydJREFUaN7FmmtwXGd5x3/nfvbsTdpdXWxJluzYll0Sx3aCG+eCQ4CEXFoSSBtgEqADfGnoh4YhSTGdThoohdB2oMOl+dCS+kMoFwcMiSEtuDi1g2Mnrm1s2ZZtOZZkW7KkXe3t3N/TDzorVopMaeRpzsw7754d7Xmf/3P5v//3OZK4spcKGEAC0ON7gBBwASee/Su1oHSFnmEBPcBaYJUqy126YbTIsqwDhEHgeb4/HQpxARgEjgHDQBWI3koAMtAOvCuXy/3x2v7+jX3Ll7cW8vmEYZqyCEM838e2bSYnJ8Xo6KgzPDxcmpiYOOz5/veBncBFQLxZA5RFAmgB/mjjhg2PP/b445vfc/vt2dZcThcgOY6D63n4YYiiKGQyGalzyRKto709Lcvyymq5fK3n+2XgFFB/KyIgAzf0r1r1D3/7pS9tqlSr7Ny5k+npacIwJIpmMqMxNy5N0xBCMHT6NENnhw55fvBp4JdA8GaNeLOXBqzbfOON/Zqus337diYnJ4miCFmWkWUZSZJm5wYY13XxfZ/W1lZSyeRKYGNc8G+aNRbz24Iiy+aRI0ewbRtFUYiiaI73F7oHUDUNQ9cNoC12xv87gAjwp4rF0PM8AIQQc9KmGcD872RZQpLlBr1GbwWAEJiuVqueoiiWJElzAFwuEjPfRaiqhqKqPlB5s/l/JQBUHMfxGnkeCUH0WyLQ/H0qmUCRFR8ox896S1Ko6jiOK0kSkiQhFsj1hUBIkoRhGERCuHEExGKo8M1eAqhVymVXxFwvhFjQ4MYQQsymmaHriChaNIDFRqBWrVZt13XnMJAQYnYvaESiQaVCCFRVRdU0wjB0gdpbVcQAVdu2yxMTEwghsG2bIAjwPG82GrOhlmVUVUWWZTRdh5k9oRLXwBWNgBaLM71BlTFLhPFCzWOiUq2eeu21VzfrpilXKpU53m7ewMIwJAgCwjBkSWcn1Wo1qtv2KWC8SdbI8VBi27TYDimm2yrgNUdMnaeLCsD1sixv0jWtMwgCPwjDMjAd/7gSjzIwBhQ939999Oix2/r6+noMwyAMw1nDm/cEIQRBEFAoFGhvb2Pvnr3jtuPsjv9sA7A01lbpxlBkOavrelqSJM3zvKkgDF8G9gAXGtQrNWmiblmSHty4ceNHb77ppuW+7+sTk5NRtVr1XdcNfN/37Xrdq1SrTq1WdYpTxQvVev2lKIpeBW5pzWY/uqy3N6fHIOZvaEEQkLQsenuXcezoscqxgYHviCj6uaZpG3q6u28t5PMdpmkmrGTS0HVd03VdTSaTWiKRkGu1GocOHRKnTp0asW372Qj+ORaBogEgDTxw65Ytf/XZrVu7R0ZGOHDgAEEQoGkaiqKgqiqKrBCEAZVymTNnznD8+EB9bGz856EQz0twXUs2+8Hevr60YRgETYIuDEM0TaO9UOD06dO1wdOnnxNC7M9kMnd88IEH3rlly5bE2PgYU1NFXNfFcRwcx8F2HOr1OtVqlVKxyPjFi1y8eHHS8bwvA08DpQaAtW2FwlNPPfXU3bV6ne3bt//GizMupMH1siwjhMBxHHzPY2xszLtw8eJLQRD8WIL1rS0t71/W25vRDYMgCGZARBGmaXDxwsX6ueHhHaEQrxby+Ts/9fDDN99622369u3Pse+VfdRrVXzPJ4zptpkIGmuXSyWKxeKeQIg/A/5bjetg7do1a67NtrTwwx/9iCAIZmmRKCKKc7hBi57vUSlX0DSNru5uXde0LcMjI5rn+z8qlkpCCPH+9o6OFl3XZnZmEXF+dKRyaWLyeRFFh9rb2t73yCOP3LDxuuvUHTt2cPbsEJVyGT/wZ8uzYfD8fSSVSVO366uCuv024KgaV/mKvuXLWy9cuEBpenrWy5fbTQN/xrMiDPE8j67ublVRlJuGzp6V/SB4brpcdl3HuTORSCxVFEVyXHesWq//NIqi4+3t7X/42KOPbr5m3Trl2WefxXEc8vk8o6OjeNPeZXfvhi3pVIpUMpWt1e0VgKkCJtBpWZY5Pj5OGATIsnxZNSmEwPf9hpsIgoC6bdPd06Ooqrr59Jkzrut537I9b5fjeWsBOYITgN9WKHzi8cceu3Hl6tXK008/TbVaJZ/PYxgG6XSaYrE4o6lib8+3QQiBYRhks1l9/NKlJREkZEBTFSVjGoZSLpdnPd88z//cqI9GqH3fp1yp0NXdrXR3Ld0sSdIq4D8i+EoET8Vn3+V33333Tf39/eo3vv51zp8/PxtpSZIwTfOy6zUPRVXJ5/OSoihpwJABRVEUTZIkXNd9A+KFPjen1oynZk5addumo6Mzoev6qjg167FUkE3DWJHL5awXdu7k/Pnz2HWbUrFIGIYIIWbBiHkF3Lx2GGuubDaLLEkqoKixIZHneYSXMXa+wW8UaTOpZRoGnutGkRD2PIkcBkFQ/dXLL0eZ1lZs22bl6i4ymRRjF8bIZrOzQJo3wIXEoGEYJFMpkCQBRCoQ+L7vlCuVKJVOS79NTTbL4TAM5xR7Ppcjn89z4JVXxj3fPwykgM54k6wEYXjo8JEjr7e1ta/ov7qPL3zi3WRUiSd/cIDXz52jXqv9r+cIIQTpdBoJCILABXwZcCMoTk1NBXJMnQvlXnNYG4XW0DeFQoHlfX0cOXx4+uy5cz8BQsuyHu3p7v5WPpf7J0VRtgJmtVbb37uyI3ziwVtY8oNtWN/+On9xVz9dvVmGR4Zno3A57wPkcjlc3wtFFE0AjhJ7aEU6lXpHd3e3OTY2Nuchl/OI7/uEIqRraRdr+ldz4MD+8rGB489FcLKrq+tDn3r44Xtuv+OOvgh6KtPT6+q23X/HPVtWffHjt2d7nv8u9dMD4FVoGX+d33/fbZyqSZw8fvYN3N/sfUWR2bRpE0Nnhmrnzp37IfCKEqvKjOd57yjk8wXf93EcZ47hzezTmH3fZ9myZaxetYp9+/ZNHx0Y2B5F0cnurq77/vJzn3v7iquuUrdv387o+fN4vi9fe/2ats9/7J2Znhd+QH3wKGoSVBMiu0z20lk23Xs7Z+oKgydeR5J4Axt5nk9PTw/XXHM1u3f/cni6XN4GDCqxWghc1+1zXXddOpVSmgtKkiQURUHTNBKJBNlMhlwux4oVy1nS2cnevXsnjg0MfD+KolNdS5fev3Xr1utb83nlH7/2NUZHR6hVa6x92zKefPAWlu1sMl4HRQPNBOwyueIQm9//XkY8k1ODwySTSTRNo9EsaO9o46677uLY0WPhwYMHXxBR9F2g1JDT40KI7w0PD6917PrmXC6v6IaBrmuYZgJd19E1DV3XkWQJIaJo6tKE//LevWeHR0afA0Y6Ozo+/JnPfGZjR2en/M1vfpNarYaVTBFF03z8oTtZfeIlJgeOobaAqs0Yr2ggazNgxNQIPXu+zec/+jFkWWV4aJLlK1ZgGAaSJJFOpxkcHIx27dp1LAjD78Vyfk5rMQPcLEvSRyzTvN4wjZQsKwJwwzB0hBB1IUQ9EKIiwrDkB8HZMAz3A2FrS8ufPvLII+/qX7NGfeaZZyiVSuj6TLOtVqvR0Znm8Q/eQP+eHTiDR1AtUOIIqPoMCEUDWQKtexlnNj3EE/86wC9+9vJ0NpstWsmkPD5+SdONKKdI/PrE4PADmiKd9sNozoGmDOwSUXSyatsrq7adi7m8Fh9m6oAdDyc+2GgSPPwH99xzy6rVq9Vt27bhui65XG5WvWazWUqlab743f187qEPsDYp4w0emk0hWZs7M3mOqw49w+c//hG2IqJnt/14RxiGw9euX/OxJ5741JIXf/rL3InBYT0UC3enA2AKGAIG4jEIvA6MxMe/qRisC3QW8vlPPPjQQ2/btWsXhw8fxrIsTNMkkZhJPU3TsKwEF89PsHdgmGvuvYtuMUVUHEMx41RSfwNC0gGnTLZ+hvV3vsecCPOdmm71feGz91x9x0ZP/tWRcvjSfx3+Ya61ddh2nMse6sPfsdnUmrSsTtu2OXnyJJVyBcdx0HUdwzBQVTVmEA/btikfL/PpWp2v/Pm9XGdBOHQYOTZcVkFqiHsVKI2y4uQ2nvzkh3sv+W/v3WC/gHrSpb1to2lZmUz3si4mi8VFdyUswzAsP36JERHNdiXK5fIcHmdGdHHk4Ake+6rE3z92PxsSEA0dfqPxjTE9TN/Jp+lLpWFqGHrXkLFUzUyYbUu7lnDo0K8X1diSgWQmkzEBHMeZo5UaNdDcmYiiCFVVOHzwBJ/92i72rbwXZc26GSZZCIAOOEWYOgdqBKJGrpBQUmkrv27DmkV35iQglUyljDAMF1Sy81VlY2iaRuBI/PU39rCv9z5Yc+1veiTNQ2lqrGhA5JDNSoplmZkbbly3aAAKkDINQ2+8tJiv5xcC02ivdC1dytRY2Xn0yz8r7V96H6y6ZsYlSpPxzbMKCB9L9SVJYsl9d39SWSwAGchayaRhO87sAf53iUAQBIgoIpdrDXfv+tULW//uF/v3tL5PiN6rZwxWFoiEAkQeLZYgm7Z6geSVAJCyLEur1WqzAH5bBBr3Myo2xEpaOnD233+6+6vf+M6J0vTKO8DQ5nq/eeCRNW3y+UxL3D1cNAsFY2NjOK77f3pD0zhZhTM7fffbN61b/6F7VmUyY7sg8mfyfT4IGZACTKlGOmMl4rP8oiLgA0MHX3ttamBgYPbtY7NibU6jhoJ1XZeuri76+no5dfpUsGHD7737b578k/feveKMqpROQToJpjZjvDyvdxhF6GqNXCGTbaTQYiIQAAenSsX/9H3//kxLi67r+uwhJwiCOYrWNE0ymQzLly9n/fr1HDt61Dtx/PjE/R94T0up5PrPlzq0Qu4hOWt6JDUPMxFgyHX0qIYu1VBECYISaipFLmemrkQKRcC5KOJb1VpNDsPw9tbW1lw+l6O1tZV0Ok0qlcKyLAzTxNB1kCSmSyVefPHF6aNHj/7Cc91/2/HjXf5PXtidVfXEkkI+19bSmm5Npa1CvpDNJJNaJqEn8u1t7clcVjeyGVVrudihjo2+agC6fIX+VyIBXAW8S5blm3VNW2klErlsNmsmLEvWNU0KwzAsVypOpVot1Wq1067r7gV+DhyPxWEjSRrMbzTNOUXRWiwr1WImjE7LMpbY1XIwMVH8FwnOXwkAjVqygDzQEb/7zTT19r1YAE7EOn4iVrlisQtfKQALAZKbSCJqeikSXcmF/gcKJeUssNL4pAAAAFd0RVh0Y29tbWVudABGaWxlIHNvdXJjZTogaHR0cHM6Ly93d3cuZHVzdGxvb3AuY29tL3dpa2kvaW5kZXgucGhwP3RpdGxlPUZpbGU6SW5wdXRJY29uXzMucG5ncUMc4QAAACV0RVh0ZGF0ZTpjcmVhdGUAMjAyMS0wOC0xMFQxOTowMzo1NiswMDowME8uvzcAAAAldEVYdGRhdGU6bW9kaWZ5ADIwMjEtMDgtMTBUMTk6MDM6NTYrMDA6MDA+cweLAAAAIHRFWHRzb2Z0d2FyZQBodHRwczovL2ltYWdlbWFnaWNrLm9yZ7zPHZ0AAAAYdEVYdFRodW1iOjpEb2N1bWVudDo6UGFnZXMAMaf/uy8AAAAXdEVYdFRodW1iOjpJbWFnZTo6SGVpZ2h0ADgyywAhPwAAABZ0RVh0VGh1bWI6OkltYWdlOjpXaWR0aAA4MjOv4bIAAAAZdEVYdFRodW1iOjpNaW1ldHlwZQBpbWFnZS9wbmc/slZOAAAAF3RFWHRUaHVtYjo6TVRpbWUAMTYyODYyMjIzNrSfbBcAAAASdEVYdFRodW1iOjpTaXplADc5ODBCQs/XYM4AAAAASUVORK5CYII=;" vertex="1" parent="1">
          <mxGeometry x="440" y="202" width="48" height="48" as="geometry" />
        </mxCell>
        <mxCell id="-rYXa19Bb-40bHIPveaP-9" value="" style="shape=image;verticalLabelPosition=bottom;labelBackgroundColor=default;verticalAlign=top;aspect=fixed;imageAspect=0;image=data:image/png,iVBORw0KGgoAAAANSUhEUgAAADAAAAAwCAYAAABXAvmHAAAABGdBTUEAALGPC/xhBQAAACBjSFJNAAB6JgAAgIQAAPoAAACA6AAAdTAAAOpgAAA6mAAAF3CculE8AAAABmJLR0QA/wD/AP+gvaeTAAAAB3RJTUUH5QgKEwQ0jiinrAAADa1JREFUaN7FmmlwXeV5x39nv/fc/V6tloklYyMbqI0XdlrCEtLBCXRYQmZqIEya6RQ6YcY0mGlnOs235kNLp8mkiYd6hslQpykxBAI2TQkUYoxNijGyJCxbi21ssC3pLrrLWd+3H3SukIVMU8vB78wzR+fo6r7P/zzb/3leKZzfpQMWEAfM6B4gBFzAia7++dpQOU/fYQMXASuB5bqqdpmWlVVV1QQIg8DzfL8cCvERcAgYAI4BVUBeSAAq0Abcks/nv7ayt3dtd09PrqVQiFuxmCrCEM/3aTQaTExMiOPHjzvHjh0rjY+Pv+/5/rPADuBjQJyrAtoCAWSBe9euWfPE5ieeuPZLt92WyeXzpgDFcRxcz8MPQzRNI51OKx2dnUZ7W1tKVdVl1Upltef7FeAwUL8QFlCBa3qXL3/y77/3vaumqlV27NhBuVwmDEOknPaM5rW5DMNACMHo8DCjY6P7PT94DPhvIDhXJc51GcCqa6+7rtcwTbZv387ExARSSlRVRVVVFEWZuTbBuK6L7/vkcjmSicQyYG0U8OecNRbyty2aqsb6+vpoNBpomoaU8oy3P989gG4YWKZpAa3Ry/jcAUjAnywWQ8/zABBCnOE2swHMfaaqCoqqNtOrvBAAQqBcrVY9TdNsRVHOAHA2S0w/k+i6gabrPjB1rv5/PgBMOY7jNf1cCoH8DAvMfp5MxNFUzQcq0XddEBeqOo7jKoqCoiiIeXx9PhCKomBZFlIIN7KAWEgqPNclgNpUpeKKKNcLIeZVuClCiBk3s0wTIeWCASzUArVqtdpwXfeMDCSEmKkFTUs0U6kQAl3X0Q2DMAxdoPZ5BbESfT6YtWG10WhUxsfHEULQaDQIggDP82asMWNqVUXXdVRVxTBNmK4JU1EMnFcqYQApIB2RNAOI2XFjQy6TesBz/cMrMpnSaccB0MIwXAtylR8GSqlYIgg+SSjN2Gi++SAIcByHRZ2dhGEoBz/44M0gCH4BlCNd9Gi/JqNNRnQlHRU7MResPgdMC7BeVdWrTMPoCMPQ94OgkkolOx988K4NgVeP/WjLsxMDpdJe4DRQ9Hz/jf7+gZu7u7svsiyLMAxnlJ5dE5oAWlpaaGtr5a1db51qOM4b0cfWAIsiZVNN0VQ1Y5pmSlEUw/O8ySAMdwO7gI+aqVeZ5R6LVUXZuHbt2gdvuP76Hj8IzOHhYTk8Mhzee8912qPfulH5123vih/+8BenNVWpTE5OflSr198UUv4P8Ie5TObBLyxZkjcjEHMLWhAEJGybJUu+wED/wNTA4OBPhZSvGoax5qLFi7/YUii0x2KxuJ1IWKZpGqZp6olEwojH42qtVmP//v3i8OHDHzYajW0StkYkUDRdKAXceeONN37n77773aVx29aGhoaoO3Xl4T+/VX346qKSLu5j1/GMoqr55KWXrixYsdiSRr2xvtGoZyTscVy34tQbyxKJhKXr+nS2kZ9YwbIsWgsFBgcHawcPHXpeSPleOp2++/6NG7/+0EMPdfcs7cm2tXckCy0tsWQyaRqGoXtBoJTKZYqlEkEQKEiZcRqNlUEYTgAHAKfpQotbW1r+5KFvfGPxoUOH2Lp1K+mszeZHb+XW9Nto+/4TufxGTDvB2PHfEp+wCEXAoiWL7FQ+9WWpyGW6rk94nlcLFD9pGaai6SpSSJxqHSHAjscYHBysHz127EUhxP6WQuHOv3zkkRu+ePPN5vbtz7Fn7x7qtSq+5xNG6XZ2IlAUBc0wSKVShaBYvCMQ4lfAe3oUBytXrly5OpFK8dTWrSzv7WLzX6xmtfciysF3AYFyepSvr1nLH/VchyJCCBUQIENMGbBShoBQkIGEEKQHmhbnt2Wff3xqO8OHD0+NT0y+JKTc39baeuemTZuuWbtunf7CCy8wNjbKVKWCH/gzVmsy2bl1JJlOUW/Ulwf1xmVAvx5F99JcLpfbuXMn66+8mO880EHnRz+Bj8amo0MDxkdZdPr7LBI6uCAdCB0I6uA74NXBb0TigF+XmKkCSzfcS81xJk6NTzwPDLa1td2x+fHHr/2DVau0bdu24TgOhUKB48eP45W9s1bvpiVSySTJRDJTqzeWArFmE37RkWNH4zfd2suDN9XIHnkKSuPTdXp2y+O54LpIFwJnWvw6eI1PpAnAq4NQYwjPRzeN/wJ2tra0/NkTmzdft+ySS7QtW7ZQrVYpFApYlkUqlaJYLE5zquhtzwUjhMCyLDKZjHnq9OlOCXFd17T169Zffstj3/6SeseaYazRnVCvz08ylHlEnRZFmZbm8+l7BUVRpGEYJ4CeDRs2XN/b26t//wc/oFwuk8vlZtJuLBb7TBrSBKDpOoVCQRkZHU0FYWipqaT91T/duOHSu24G68jL069uIQxpHtBCCsPQ9Z58Pm+/vGMHJ06coJmpmoqpqjoTuLMDuPl7KSVhxLkymQyqouiAppYqU9u3/PjZvp/8MsDpuQdiqQUU9rNgUJQwCILq27t3y+GREXRd/xRbDcNwXsVng2y6UCKZBEURgFSlpP/AgaG3n/znX/Hkc3lOLf4mpDvnByEi5h7O+TkEOUdECDKUIKQCqBL2v9/Xd/T4hx9immaUZZQZn6/X659SfK41hBCkUikUIAgCF/B1wAPGW1pa/V27RozhkQR//a1vslT7ORz7AJqETNEgmwMsFFdiuKA606I1QG+A4YA1E9wSM5lHicdx6s56YH+1Vtt+dGzs/uWXXNKWTqfRNA1N0wiCgHK5PBO4n9UM5fN5isXJUEg53ixkLnCsXCrVelesyL722us8erLI3zz6Na5e+irK0G4IQ+jsZbDrPg4eLaNIEdUAiaZoiFAgQylVVCECoSAUVUdHCo33ThSRfnCVrml6EIY/L09N/WxkZOS+VCrVms/nMU2TqakpKpXKZ/bSQgg0TSWXyzE6MlKPJnuNpgUOjR058vGS7u5sR0c7h4eO8tjflnjs23/MVy9tw9j3IjLbyXO7x/nxj36JaeiEIqRr0SISdoKBgf5K3XX2SCmClkLLVXfffXfh1KlTvL37bdyGQy5f0EzTWvfxyZOm5/v/PlksPjMwMHBfJpPpzOVyDA8P47ruvA1RE5Dn+fT0dJNMJjhyZOwkcBBwtYjbB67rdruuuyqVSmqaplOpVHn9zUFk+zouW7sC0xC8MWJyZLTERYu7WNrdQ2dHJwf6+sZHR8f+o16tv5tLZ9c//leP93Qv6VFf2fkK9Vody4phmibZbFaxbbu9Vqu1BkGwq1arHapUKksUSaZULgFgmiaxWAzLsjAMA8MwaA4L2tpbuf322xnoHwj37dv3spDyZ0CpSeZcKWWtVq0uc51Gl6HrajweQ9d09uw9yBGvhctv2kD/wQmOHZ0kl83I4uSkv/edvcMjo6P/BhzuaG+/d/PmzVcu6urStmzZQrlcJhaLzShiWhatba2KHbfby+VywQ+C30xVq30nTpzI+J6X1TVN1TVdyWazSldXF0t7eli5YgWXXXYZl19+OatXr2J0dDR49de/3us4zr8AfUwTmpmVBm5QFeUBOxZbb8WspKZqIggC1/U9/667vtyhqWFs209feUdR1THf94+EYfgOEOay2Yc3bdp0S++KFfrTTz9NqVTCNM2ZTkxVVTRNwzRN4vE4YyMjYv/77//Gcd1/AOqKoqxTVfViRVGymqalTV1PWpZlx2IxO51Ox2zb1iaLxdqHx4/v9TxvG/BW1AR9ajYaB7qAZUA+SpI1oGaZenc8bq2oVOrPCymPRqNxQ4FH7t+48fHbv/IV+5lnnqHRaBCPx2e6sSYpU9Xp6hj4AaVSkQN9fc745OQ/AU9GeySAWERtYlE3aEfPDaAEjEbT7Jlh2NyeuBE1CqOzJhYCEK4XSNcLlDkN+NJCoXDl1ddcY7/00ksMDQ3R0dGBbdvE4/EZpcMwpF6vUyqWGJ8Yx/d94vF4zNC0q/wwbAFORSDORlyaQwTxuzb14VmGTXOnB7mEbXc0Gg2GhoaYqkzhOA6maWJZ1gxd8DyPer2O67qEYUgikSCdSTM5MdHuh2E+UlLOs5f8fY5VAGzLsmw/OsSQyJmpRDOvf2rMHtGGTDqNFbNiNcdJngXA732wpQKJdDodA3Ac5wziNTsGZldXISVBEJLJ5kjYCSvycXUhSizkcCSZSCatMAxxXXfeKdx8xSkMA9LpNOl02oqy3znrsRAX0oBkzLLM5qHF/zWVbkoQBNPFLZczo4HCBQGgAhk7kbAajkMQBL/TuUATgJCSVCplRhbQLxSApG3bRq1WIwiCM5rwzwIShiFBEGInbD2avmkXAgBAcPLkSRzX/X+d0IRhiKZrhIHWTNnyQgSxD4zue/fdycHBwZnTx2ZnNbvDat77vo/runR1ddG9ZAljY2MlYDiqrJ+7BQJg32Sp+Lrv+/eks1nTNM3IPYJpP48s0mza0+k0PT09XHHFFfT39wcHDhx4A9izkH89WOhJvQVcpSrKw/FY7LZcLpfP5fPkcjlSqRTJZBLbtrFiMSzTBEWhXCrxfl9fub+//zXXdb8P7I4ozAX7X4k4cDFwi6qqN5iGscyOx/OZTCYWt23VNAwlDMOwMjXlTFWrpVqtNuy67lvAq1FTUmeBxeh8LDVijgWgPTr7bc70lajrqwDjwMnoWuM8zD/OF4D5AKmzkoScdTghz+dG/wsYXlz2kc0B7AAAAFd0RVh0Y29tbWVudABGaWxlIHNvdXJjZTogaHR0cHM6Ly93d3cuZHVzdGxvb3AuY29tL3dpa2kvaW5kZXgucGhwP3RpdGxlPUZpbGU6SW5wdXRJY29uXzQucG5nw2PA8QAAACV0RVh0ZGF0ZTpjcmVhdGUAMjAyMS0wOC0xMFQxOTowMzo0NyswMDowMCXztB0AAAAldEVYdGRhdGU6bW9kaWZ5ADIwMjEtMDgtMTBUMTk6MDM6NDcrMDA6MDBUrgyhAAAAIHRFWHRzb2Z0d2FyZQBodHRwczovL2ltYWdlbWFnaWNrLm9yZ7zPHZ0AAAAYdEVYdFRodW1iOjpEb2N1bWVudDo6UGFnZXMAMaf/uy8AAAAXdEVYdFRodW1iOjpJbWFnZTo6SGVpZ2h0ADgyywAhPwAAABZ0RVh0VGh1bWI6OkltYWdlOjpXaWR0aAA4MjOv4bIAAAAZdEVYdFRodW1iOjpNaW1ldHlwZQBpbWFnZS9wbmc/slZOAAAAF3RFWHRUaHVtYjo6TVRpbWUAMTYyODYyMjIyN9qDbcAAAAASdEVYdFRodW1iOjpTaXplADcwNDhCQoYC7L8AAAAASUVORK5CYII=;" vertex="1" parent="1">
          <mxGeometry x="292" y="132" width="48" height="48" as="geometry" />
        </mxCell>
        <mxCell id="-rYXa19Bb-40bHIPveaP-10" value="" style="shape=image;verticalLabelPosition=bottom;labelBackgroundColor=default;verticalAlign=top;aspect=fixed;imageAspect=0;image=data:image/png,iVBORw0KGgoAAAANSUhEUgAAADAAAAAwCAYAAABXAvmHAAAABGdBTUEAALGPC/xhBQAAACBjSFJNAAB6JgAAgIQAAPoAAACA6AAAdTAAAOpgAAA6mAAAF3CculE8AAAABmJLR0QA/wD/AP+gvaeTAAAAB3RJTUUH5QgKEwkbkFfkuAAADH1JREFUaN7FmmtsHNd1x3933ju7O/sgRVEWZYmSXJl2G9ty4liOUrkW6jSy0UfQ2GnhNP4cFwXqBq3RfOi3oi7QpEWKFk2CfjOStoHSGHCN1jBiOzENO7IUPSg5epEyRfNhcne5r3neO/3AWXqpULIjKtEAB8O9nJ17zj3n/O//nLuCG3sZgA3kACv7DCCBEAiye3yjJhQ36B0usA0YA24zNG2rZdtlTdMsAJkkURTHy1KpWeAccBqYBtpAejMN0IAh4GC1Wn1sbM+evTtGRyuDAwM523E0JSVRHOP7PktLS2pmZiaYnp5uLC4unoji+HvAi8AcoK5XAX2DBpSBz++9555n/uqZZ/b99sMPlyrVqqVABEFAGEXEUqLrOp7nieEtW8zNQ0NFTdN2t5vNu6I4bgLnge7N8IAG3L/nttu+/nfPPntfq93mxRdfZHl5GSklaboSGb177zJNE6UUkxcuMDk1eTyKk78AXgWS61Xiei8T+Ni+Bx7YY1oWhw8fZmlpiTRN0TQNTdMQQqzee8aEYUgcx1QqFQr5/G5gb5bw140aG/nuoK5pzsmTJ/F9H13XSdN0zeqv9xnAME1sy7KBTdli/MoNSIG4Vq/LKIoAUEqtCZt+A64c0zSB0LQevKY3wwAJLLfb7UjXdVcIscaAq3liZSzFMEx0w4iB1vXG/40woBUEQdSL81Qp0mt4oH+8kM+ha3oMNLN33ZQQagdBEAohEEKg1on19YwQQmDbNqlSYeYBtREovN5LAZ1WsxmqDOuVUusq3BOl1GqY2ZaFStMNG7BRD3Ta7bYfhuEaBFJKre4FPU/0oFQphWEYGKaJlDIEOjcriQHavu83FxcXUUrh+z5JkhBF0ao3Vl2taRiGgaZpmJYFK3tCK8uBG+oBMyNnVg8qM5SQ2UT9sthqt88fPfr2PstxtFartWa1+zcwKSVJkiClZMvwMO12O+36/nlgoY/WaJnomW5mpofI4LYNRP0eM67gRYPAxzVNu88yzeEkSeJEyiawnH25lUkTmAfqURy/NjFx+qEdO3Zss20bKeWq4v17Qi+sBgcHGRraxPjr4wt+ELyWPXYPcEvGrYo90TWtZFlWUQhhRlFUS6R8A3gdmO1Br+jjRCOaEE/s3bv3S/s/9anROI6txaWltN1ux2EYJnEcx363G7Xa7aDTaQf1Wn223e3+KE3Tt4FPV0qlL926fXvVME38rk+SyNW398KpXC6xa3SU06dPt06fOfNdlaYvm6Z5z7aRkQcHBwY2O46Tc/N527Is07IsI5/Pm7lcTut0Ohw/flydP3/+su/730nh3zMSqHoGFIHHHzxw4G/++qtfHbl8+TJHjhwhSRJM00TXdQzDQNd0EpnQaja5ePEi77xzpjs/v/CyVOoFAfcWi8UvDG/ZUtwztoNP7N3Grp0lTFNjZqbN28fnuHBultmZOf/dy9OHlVJveZ73mS88/vhvHThwIDe/ME+tVicMQ4IgIAgC/CCg2+3Sbrdp1OsszM0xNze3FETR3wPfBBq9EBrZNDj4+08++eTIuXPnOHz4MFLKVaghw+4eOVNKEQQBt9yy1dV14zOzc3NukiQ/3bb9ltbTf/Zo8ZF9IZvSE2jBDKQK9lRpf/ZO3py8k6/9y3hy+b0ZVa1Ufu9Pn3pq/4MPPWQdPvx93nzrTbqdNnEUIzO47QcCIQS6aVIsFgeSev13E6VeAn5qZHkwNnb77XeVymX++wc/IEmSVVgkTUn7wiBNU6I4otVsYZomIyMjloDfLHjuvf/07B+XDt7yOky+AnH0QYCmkxS0oxzcNMbOv32s+BXHfGx4aJf+wP79xvPPP8/U1CStZpM4iVfTs7dYV+4jBa9I1+/elnT9O4EJHXCAhw8cOPDZcrlsvX30KJoQ19xNozAijuMV+pCmmJapf+XPH3E+N3pE8M7/QSxXMCvpw68EqL9PJX2XXft+x3j9yIJ25CdH6XQ6FItFarUaQRBcdffuSSGfJ4kTo9PtngKOaJkBw67rOgsLC8gkWbPa6gp3KqWI4w9q8m63y+iuLRy6y4eJV8DP6qv1JAAmL3KP+Tbbt1tcnLy4SiuKxeLPzXul8lJKbNumVCpZArYAOQ0wDV33HNvWm83mGkX7Dej/u5cfAImUfHLvrQwtnoB6tKJo+xrSBf3iSfbdVUUIVmHXcZyrztcvumEwMDAgdF0vArYB6Lqum0IIwjC8pvvWI2pCCEa3l2FudoUU6B+BQakmtw5LCkV3VbEeOKw3R29cZpyr5HloQhiAbmQPpVEUIa/hvv6XrfkfKaauQUOi2h/BgBS0JMVUKYahs4ITK+HRU/RqeaCUwrZt8oUCCKGA1ACSOI6DZquVFopFcS0P9NNhKeXKqiWS2fdakKsSLU99OLtSYFRyzLUMms0OZW+ANE3pdrsfWkcopSgWiwggSZIQiA0gTKFeq9USr1w2r+aBK5llP+s8cmaW+sO/jmgcIzU+hFjG4O4Y5cR0gJIrzDRJEpaXlz/UAwDVapV6vSZVmi4CgZaRpOnZ2dlO2heL/cl0pRt7+BzHMSMjI7w30+YoWxGbx+gugN9YR5ahuwRSlpjb/Wle+vFZBgcGMU2TVqtFs9lcF/n6E1rXNSqVCo16o5t19nwtY3fnLl26NDc3O0uPkF3J7XtssscolVJs27aNO8bGeHfy3dbXvvvG8vyDn0cf2EVnATpL0KlnUoP2PKi4DI9+kW8eWQrHf3R02dB1crkc8/PzhGG4Zq6e9MbCMGJ4eAuFQp5Ll6bmgZ8BoZ6xhSQMwx1hGH6sWCjo/QklhEDXdUzTJJfLUfI8qtUqO3eOsmV4mPHx8cWzZ89+7+L56cnpxLz9jkcO6ZvtAmndR3YgTSx0u0x+z28QHvoc3zhT51+/dfiHtaX6/7aazRGRUmosNwCwLAvHcbBtG9M0MU2TXrNgaPMmDh06xOmJ0/LYsWP/o9L0P/u50IJS6r+mp6fHAr+7r1od0C3bxrJMHCeHZVlYpollWQhNoFSa1t5fjN8YH5+avjzzfeDy0NDQH23fOmb880s/Y9fwMPsevYMtKsEgZVYzONWMePmFE7xzZpLIjwaAyfdmZ/9taWnpD0qeN5bP523TtLRSuSSq1Sqe51EsFrFsGyEExWKBCxcuJq+8+upbiZT/kdH5Na1FD9ivCfEnruN83HbsgqbpCgillIFSqquU6iZKtZSUjThJpqSUPwFkpVz+8tNPP33w1/bsMb79rW8z//4Clm1SzLsYhk6r00UpKOYLDFQHuDQ1qY6fOPHjIAz/AegKIe7VNG2XEKKs67pnGUbBtm3XcRzX8zzHdV29Vq93Ls/MvBVF0XeA8axG+bneaA7YCuwGqhmL6Xywh+JnEmSFjSngqS8+8cRfHnr0Ufe5557D931yuVxW1AiEAE3T0fWV/kESJzQadU6dPBks1mr/CHw9myOf0Ro7u7uZ5LPKrAFMZt3s1WbYlajtZ4XCZF/HQmUPr1e37hwYGPjEJ++/333hhRc4e/Ysw8PDuK5LLpdD07TVHbTb7dKoN1hcWiSOY3K5nGPq+n2xlINZWdlZp/Es+hZ5XR2MazStPkqzqZJ33WHf9zl79iytZosgCLAsC9u2MQwDpRRRFNHtdgnDECkl+Xwer+RRW1raHEtZzZRM1+l6pL/sroRr27YbZ4cYKelqV6If19e02TPaUPI8bMd2OkFQuIoBv/TGlgbkPc9zAIIgWMOVehXclQW+SlOSRFIqV8i7eTuLcW0jSmzkcKSQLxTslY0mXLcLtz6vT/A8D8/z7Az9tBvZF/pFjqcKjm1bvUOLD+tK9yRJEizLolypWFlD4aYYoAElN5+3/SAgSZKPdC7QM0ClKcVi0co8YNwsAwqu65qdTockSdYU4dcyZIVXSdy8awCFjRw2bhSFkvn5eYIw/IVOaKSU6IaOTPQeZKc3I4ljYPLY0aO1M2fOrJ4+9jPI/kSWUhLHMWEYsnXrVnZs387U1FQDuJDtrL9yDyTAsVqj/kocx3/olcuWZVlraHc/o3UcB8/zGB0d5e6772ZiYiI5derUa8CbG/npwUZP6m3gPk2IL+cc5+FKpVKtVKtUKhWKxSKFQgHXdbEdB9uyQAiWGw1OnDy5PDEx8cMwDL8BvJFRmJv2W4kcsAs4qGnafss0d7u5XLVUKjk519Us0xRSStlstYJWu93odDoXwjAcB17OipIuG9yMbsSlZcxxANicnf16fb39KGvJL2Y8fjEjb2qjE98oA9YzSOsDibTvUCS9kRP9P1iy4S3XIXeWAAAAV3RFWHRjb21tZW50AEZpbGUgc291cmNlOiBodHRwczovL3d3dy5kdXN0bG9vcC5jb20vd2lraS9pbmRleC5waHA/dGl0bGU9RmlsZTpJbnB1dEljb25fNS5wbmf+A+lBAAAAJXRFWHRkYXRlOmNyZWF0ZQAyMDIxLTA4LTEwVDE5OjA5OjI1KzAwOjAwYyE8egAAACV0RVh0ZGF0ZTptb2RpZnkAMjAyMS0wOC0xMFQxOTowOToyNSswMDowMBJ8hMYAAAAgdEVYdHNvZnR3YXJlAGh0dHBzOi8vaW1hZ2VtYWdpY2sub3JnvM8dnQAAABh0RVh0VGh1bWI6OkRvY3VtZW50OjpQYWdlcwAxp/+7LwAAABd0RVh0VGh1bWI6OkltYWdlOjpIZWlnaHQAODLLACE/AAAAFnRFWHRUaHVtYjo6SW1hZ2U6OldpZHRoADgyM6/hsgAAABl0RVh0VGh1bWI6Ok1pbWV0eXBlAGltYWdlL3BuZz+yVk4AAAAXdEVYdFRodW1iOjpNVGltZQAxNjI4NjIyNTY1Va7fbQAAABJ0RVh0VGh1bWI6OlNpemUANjcwMkJCfYvxiwAAAABJRU5ErkJggg==;" vertex="1" parent="1">
          <mxGeometry x="366" y="132" width="48" height="48" as="geometry" />
        </mxCell>
        <mxCell id="-rYXa19Bb-40bHIPveaP-11" value="" style="shape=image;verticalLabelPosition=bottom;labelBackgroundColor=default;verticalAlign=top;aspect=fixed;imageAspect=0;image=data:image/png,iVBORw0KGgoAAAANSUhEUgAAADAAAAAwCAYAAABXAvmHAAAABGdBTUEAALGPC/xhBQAAACBjSFJNAAB6JgAAgIQAAPoAAACA6AAAdTAAAOpgAAA6mAAAF3CculE8AAAABmJLR0QA/wD/AP+gvaeTAAAAB3RJTUUH5QgKEwQ1+S+XOgAADXVJREFUaN7FmmuMXdV1x39nn+c9d+Y+Zsaese8de2ZsYxsUgx3HYCAlKcWoYBVqSGhVKKRqVZV8SEVFQSRqg1q1kKoJNFBEVaGiitAktROUEKKmTghgbB42DOOxYfwae2wPduZx3+e9Tz/MuZPrwUDiceMtbe1zz32ctfZa+7/+a62rcH6HBphACjCS1wAR4AFusgbn64HKefoNG+gFVgMrNCEKhmnmhBAGQBSGvh8E5UjKceAAsA8YA2pAfCEVEMBC4NqOjo7Pr165cl1ff3++q7MzZVqWkFGEHwQ4jsPk5KQ8ceKEOzY2VpqYmHjHD4L/Bl4A3gfkuQqgzlOBHPC5dWvX3n/f/fdvvG7Tpmy+o8OQoLiui+f7BFGEqqpkMhmlZ9EivXvhwnYhxPJapXKpHwQV4CDQuBAWEMAVK1es+MZDDz+8oVqr8cILL1Aul4miiDie8Yzm2hy6riOl5MihQxwZPTLoB+FfAT8HwnMV4lyHDqzZeOWVK3XDYNu2bUxOThLHMUIIhBAoijK7NpXxPI8gCMjn87Sl08uBdcmBP2fUmM93u1QhrKGhIRzHQVVV4jg+Y/fP9hpA03VMwzCBBclm/MYViIFgano68n0fACnlGW7TqsDce0IoKEI04TW+EApEQLlWq/mqqtqKopyhwIdZYuZejKbpqJoWANVz9f/zoUDVdV2/6eexlMQfYYHW+23pFKpQA6CS/NYFcaGa67qeoigoioI8i6+fTQlFUTBNk1hKL7GAnA8UnuuQQL1aqXgywXop5VkFbk4p5aybmYaBjON5KzBfC9RrtZrjed4ZCCSlnI0FTUs0oVRKiaZpaLpOFEUeUL9Qhxig5jhOZWJiAikljuMQhiG+789aY9bUQqBpGkIIdMOAmZhQTc7AebWAnpAzowmVCUpEyYNa50S1Vju4Z8/ujYZliWq1esZutwawKIoIw5AoiljU00OtVosbjnMQON1Ca4QCXfFMbDiR3DcSxuAl5M9vtZg2hxd1AeuFEBsMXe8JwzAIo6gClJMvV5NZAU4B034QvDQ8vO+3+/r6ek3TJIqiWcFbY4KUkjAM6erqYuHCBby649XTjuu+lHxsLbAYyObz7b9zyeplv7V3/+FdlXJ90jT0dhRF931/KoyincAOYLwJvUoLJyoKRbl93bp1d1591VX9QRAYE5OTca1WCzzPC4MgCJxGw6/Wam69XnOnp6bHa43Gy3Ec7wY+nc9m71yydGmHkSgxN6CFYUjatlm6dAn7hvdV9+3f/18yjrfrur62t1j8TFdnZ7dhmikpvey9995p7RncF2/77ousWXOpomkag4OD8uDBg8cdx3k2hqcSEiibbLQduOmaa66596sPPjiQsm315Pg4hmEonZ2dand3t14sFq3+/oH0wLJl2d5ib6dt20s911nfaDSycRzv9Dyv5LnuRe3t7aZhGLNw2VTANA26ujp5d9/+2rsHDnxfxvHb+Vzu1jvuuOO2u77whb7+gYHcwu7uNtfztM9e2cEfbJBKurBaeeOtw0xNlVBmImXWdZzVYRRNAnsBt+lCxQVdXTffddddxQMHDrBt27Zf7uKMBDSxXgiBlBLXdVm8uGCrqnb9+Pvv22EY/qBULm9Vjh7dsmTp0oxhmjiOg+f7xDLGTqXYO7Q3OH7y5B4p5bhpmFuuu27Txquu/rTxk//dzp7du6nVaghNEAUXYw1+mzuXfYKFf3o5Dz3yPxw7OkbKTtGeae8Mp6Z/L5TyJ8DbWnIOVq9eterSbC7H9597jjAMZ2GROCZOfLgJi37gU61U0XWdQrFoGLp+zdjx47ofBM9Nl0pSxnJLV2dXztAFV6xbTSplEiuSUC5VdGPDJTKOL1UQ7QsWdoi3B7ejm1XWXz5AHMek2zN0d7TBeANt+EdsXj1F70M38uDXd7Br5xDpdBtOo7Gi1nAuAYa15JQP9PX358fHxymVy7O7/GHRNAzCGbyPInzfp1AsaqqqXnVkdFQEYfi9crni1Wv1G66+8pPFv/vdDar69hsohkRYaEL3O1UTVAMUfQzVBNVUEAYoOqCX0I9uhVoZdFCO7OKywmn+5Su38fBTXTz//A4Mw8zScAYASwMsoMe2bev06dNEYYgQ4kPZpJSSIEhyckUhDEMajkOxt1fVNG3jocOHPc/3nwii6DUrZT3gjxy4qLb1h4iURLdAt8CwwUjNTGGDkgItBcICxWwpCzSx8ReH6Y3+nb//88/Tu+RmHn9sqzlVKhUASwC6pqoZyzTVSqUyu/Ot69zr5vloYn0QBFSqVQrFolosLN6oKMoK4JV0OjUWKwoYykx00fjlOmfGakJsxFkIjgrUf0HuyH/wpc2neegfbmfNmouvAjYIQFVVVVcUBc/zPsBdznbd6loz3GYm02o4Dt3dPSnDMFYAhqIo0a+Vwyof815Qxzr0Hf5wzU7+9ZE/unjzjZ95VEsEiX3fJ/oQYecK/EGSNuNalmnie14cS+nMhyJ/NAOTKGGdtK0rlmWlBBAGQeBWqtVYUZSPZZJNfG91qzAMyedydHZ2cuL48dN+EAwCdhiE6bm7Gn8cPfyo91SDcGAzPxq7nr/4y2dHtm798Zc0wIthempqKszkcvqH7fJcZtnkNwDd3d30LVnCm2++WR49duyHQKxp2hcd118lZAx+POPHasKs9IQItExlLtOaS9zNDPVlt/Ctnd08+ui2aHh4/4+B7VpCksbGx8frS/v6ckKID1DhuUoIIYjjmCAM6C32svKiFezaubPy7nvvfS+Gg8Vi8U+2bNmyPnTLurp8gAW3bEYxIlRLQdFBmKAZzECnGRMbCqEBigFoAr16AuX9wRnNIqCzwETfbTz63Rp7h/ajCq0BHGpGYh84cPTo0ff7+vpypmlSrVZpdae5yBRFEVJKlixZworly9m167Xy8P53t8UwUiwUfv8rX/7y+kw2q37zka/zt9Up7LQFSowfBbGmibKmaw3PC3KartupVArHcQiCAJkEsrtvu4KLa6NQn4S+T3Cg82b+5mu72Tt0jM033sBbu/ecAt4DPC0x0Mh0qfTy4ODgskKhoDet0HSXJo/XNA3LNNENg2w2Q3tbOzt27Jh49733tsVxfLiwePGtDzzwwLpcR4d4/LHHmCpX2bWnilAEuqHj1OvKsbHj077vbQP0bCa7pb+/v9hwGriuNwMEtsUtm5ZwsW4hV1zDy+Kz/OODP+fgyDFuuukmhof3RSdOnnwV2A9ETTLnxXFcr9dqyz3XKeiaLjRNwzR00uk07W1tZNvbyWWz2HYKXdPj0tRU8Pobrx86dPjIt4CDPd3dn7vvvvs+tbhQEP/25JNUKhXS6TR2KoVt27Sl03R3L6TNtrPlctkIwvBF3/OGyqVSlljmTMMQpmEotm0pN1y/ht6BIt85tIzHn3qDBZ2LuPzyDYweGQ23//Snr7uu+wQwBEStGJEBrhaK8se2Za03LbNNCFUCXhRFrpSyIaVshFJWZRSVgjAcjaLoDSDK53J333PPPdeuXLVKe/rppymVShiGMZuJCSFQVRXDMEilUowePiwH33nnFdfz/hloKIrySSHEsljG2UJxwdonn/jqipGDh4Ov/dN/nlKkiBYt6lGnpqfrx0+ceN33/WeBV5Mc5QOhIwUUgOVAR4Ll9SSZaQBOMt0ksdEV+OIdt9/+1zds3mw/88wzOI5DKpWaZa9NBtukJ2EQUipNs3doyJ2YmnoE+EbyjDRgLl7U9WdrL1t15959h7999OjJnyXYpQMl4EhSzZ4ths1NKZ0kUTjSEtBl8uGz5a0DnZ2dn7r8iivs559/npGREXp6erBtm1QqNSt0FEU0Gg1K0yUmJicIgoBUKmXpqrohiKKuJK2sA4yPTzxxcvyVHyQu4rXIcVYZtI8oWv0qkTSftu0ex3EYGRmhWqniui6GYWCaJpqmIaXE930ajQae5xFFEel0mkw2w9TkZHcQRR2JJ8SJlONJytgqy/9bVcI2TdMOkiZGTDxblahUKh+IJckFURSRzWQwLdOqu25bqwK/ycKWANKZTMYCcF33jFjRegZaE3wZx4RhRDaXJ22nzcT3xXyEmE9zpC3d1mZGUXRWJtvKn1pnFIVkMhkymYyZoN85yzEfF1KBNss0jWbT4uOq0rMZXRhiGAa5fN5ICgoXRAEBZO102nRclzAMf6W+QFMBGce0t7cbiQW0C6VAm23ber1eJ0xS0Y/uC7RW6SLstK0BbfNpNs4XhcJTp07het6v1aGJoghVU4lCtQmT8YU4xAFw5K09e6b2798/231sMtXm2ppHB0GA53kUCgX6li5ldHS0lNBi70JYIATemipNvxgEwa2ZXM4wDGO2iBuG4axFFEXBsiwymQz9/f1cdtllDA8Ph3v37n0JeG0+fz2Yb6feBDYIRbk7ZVmb8vl8R76jg3w+T3t7O21tbdi2jWlZmIYBikK5VOKdoaHy8PDwzzzP+yawM6EwF+y/EilgGXCtEOJqQ9eX26lURzabtVK2LQxdV6IoiirVqlut1Ur1ev2Q53mvAtuTpKTBPIPR+Rgi6Sl0At1J7zfTUtv3k5L8RFKWn0jIm5zvg8+XAmdTSJyFScr5/jtl7vg/qhhFUZvvb9UAAABXdEVYdGNvbW1lbnQARmlsZSBzb3VyY2U6IGh0dHBzOi8vd3d3LmR1c3Rsb29wLmNvbS93aWtpL2luZGV4LnBocD90aXRsZT1GaWxlOklucHV0SWNvbl82LnBuZ7mjk5EAAAAldEVYdGRhdGU6Y3JlYXRlADIwMjEtMDgtMTBUMTk6MDM6NDUrMDA6MDCybKU0AAAAJXRFWHRkYXRlOm1vZGlmeQAyMDIxLTA4LTEwVDE5OjAzOjQ1KzAwOjAwwzEdiAAAACB0RVh0c29mdHdhcmUAaHR0cHM6Ly9pbWFnZW1hZ2ljay5vcme8zx2dAAAAGHRFWHRUaHVtYjo6RG9jdW1lbnQ6OlBhZ2VzADGn/7svAAAAF3RFWHRUaHVtYjo6SW1hZ2U6OkhlaWdodAA4MssAIT8AAAAWdEVYdFRodW1iOjpJbWFnZTo6V2lkdGgAODIzr+GyAAAAGXRFWHRUaHVtYjo6TWltZXR5cGUAaW1hZ2UvcG5nP7JWTgAAABd0RVh0VGh1bWI6Ok1UaW1lADE2Mjg2MjIyMjU0jQzsAAAAEnRFWHRUaHVtYjo6U2l6ZQA2OTY1QkLinwazAAAAAElFTkSuQmCC;" vertex="1" parent="1">
          <mxGeometry x="440" y="132" width="48" height="48" as="geometry" />
        </mxCell>
        <mxCell id="-rYXa19Bb-40bHIPveaP-12" value="" style="shape=image;verticalLabelPosition=bottom;labelBackgroundColor=default;verticalAlign=top;aspect=fixed;imageAspect=0;image=data:image/png,iVBORw0KGgoAAAANSUhEUgAAADAAAAAwCAYAAABXAvmHAAAABGdBTUEAALGPC/xhBQAAACBjSFJNAAB6JgAAgIQAAPoAAACA6AAAdTAAAOpgAAA6mAAAF3CculE8AAAABmJLR0QA/wD/AP+gvaeTAAAAB3RJTUUH5QgKEwQ0jiinrAAAD5JJREFUaN7FmmmQHGd5x3999/QcuzOzq13tStpd2ZIsDFjChxAWyBzB8UE5FBQQrsIGQhnIF4pCDjamHCoFFVcqFSCFcaWS2IQycbCMbWxRFo5jjHWB7mO1q2sl7a3dnbtn+ni782F6xqP1Skm0rrirnuqZnuru5/8+1/953pF4/ZCjc8CVHypgADFAj74DCMABatHZ4006JLmucbanu+PeZCqdrdjuTLlcLpSKxXEReGNAKXpxBahGCrhA2HgGYAHLgbXAKlWWe3XDaJdlWQcQvu+6nlcQQTABnACOAeeBcstzrmzForu7br55/Rf+4kubr3LsaXIlwumZaq1cC4p2NahcmCraxUKlUCzYhenpuVzN88eEW5ur2pX89HRu2PX8nkwm84m1a9a8q39gIN2RzcYM05QDIXA9j2q1yuzsbDA2NlY7f/58fmZm5pDreb8EtgGTi7F6A0BF1fXSTWvOkcpvAzkphXIyJmQrJojjCQtHdGGLODlbo1STwip9wbZtB4KfPvqLI9de+/bUvffeO9C5ZIk8MTHB9IULlIpFHNfFFwJV01ja0yN3dXdbAwMD1tDQUM+J4eG1ZdtOAD8HZhbjswC1QqFi23ZIam4S3PNIAaiRGAEkQoUsGssDHfpukHa5K5S9+4+Pd3X1dD743e8uK5VKPPnkkxQKBYQQhGF9aRrnxqFpGl3d3diVSt+ZkTN3u55/BHgF8K8EQCNw7ZmZQq5gx0Ay6l4ZRoYV0aNdAZUaYbKPV6Y3hPc98O+vvfLK7mc2b94c1zSNrVu3Mjs7SxiGyLKMLMtIktQ8N8A4joPneaTTaRLx+NXAu6KAX5QFKqWKfTZvKyDpdYUbyreKD1727bz4XMHbuWP/bwEhy7J1+PBhqtUqiqIQhuFFq7/QdwBV0zB03QA6Ae1KAcgATz/3T0EYSJNVTwuQtHqS8xcW/fhLfOXWmH7Plz/2RVVVN83lcr7ruvX8GwQXKd0qrb8FQYAsS0iy3Eiv4aIs8Pvf7aNSqRZzORHQacr40SMblvBbXGl2mhXOv/HgZz6/zPP+rHP42KQsISFJEkEQXHblX78Woqoaiqp6UZr2F2WBw4eHKJftmdxsTSDH6xZoWMGbJwK4MMXSvf/CX3+u37ju+pXa4SOHmyscBMEbVrtV6tdCYrEYiqx4QDF66pUDmBydoFatzhQrvoeSqivqttTM+RIAF2bo2fU4W+7qYkmPydT0VDP7zHeZ+a4EYBgGYRA4kQWCRQEYPT9OtVouTM3YVY+2uvLpPsj0gyO9Dsil+TkUEExN0/Pq49z/kW423vw2LszMXARiIeWbAHSdIAzfHAC5Qh5gLleoFhwRg5717Ex9nh3tXyBYfmOdQLRYIPQg8EAE4E1NkX3xX7n/9l423vw2Zudm8TwPz/NwXRfXdfE8rwksCAIkSULVNIQQTkRRFhfE0d1Fx/FyXu9GXq28LfzWQ7/ZHYaEP/j27e++ZSUSR/fUy4MPgV8HEPggfBCTF0i/8Bjfue1uvq/K/OaFXZiGefFKyTKqqiLLMpquQ70mlKIYuGILKC2fzav6e+9Kdr1z4OF/eHb/q6/s+fbY+fHtZ6e8a1d/6I7e5VqFcHwcISLlPRAeCBcCAU7Oxjh1gg23vo9zYYzBwRF0XW8WsSAI8H2fWq1Gz9KlCCHCwePHX/V9/xmgEOmiRjWhwWgTQDuQiopdMB+s0qCTgFwpVza89NsdXfsPHD9gGsYAsOb0qXPeoRNzvVd/6E6zT6vhj47VV959XXy3bgknV0EdPsHGP3kvM7EUJ06OomkGiiI302w2m6WvbwX79u2bnpyefjxipyuB9cD1wAZgE/B+RZZvNQ3jNl3Tbg3D8KYgDBMRWLsBRGqhxMuAr6+77rrP3nLLLRnPdc2Z2dmwXC675XJZiiUN/a++8l42nvw11b17EGHkPm5kCa/+3S1CZt2NnP3E3Xxpyz/iezKqquD7PnHLoq9vBceOHisdGxz8RRCGL2matn75smW3dGSzXaZpxqx43NB1XdN1XY3H41osFpMrlQoHDx4MTp48OVqtVp8I4Z+Bk0DQcKEkcNf7N2/++ve+971lMctSxycm0HVdymazak9vryK8gJd2Haf/Ax9iWWDjnB1/AwCvDFZPH8U7PsrfPvUaIyNTmKZJGIYYhkFnNsvg4GBl6MSJXwVheCCVSn3sc5/97Kfuvvvu/oGVA+1LuroT2Y4OM5FI6Jqmqa7vS/lCgVw+j+/7EmHYVqtW1/pCzAJHgFrDAms7Ozoefvjhh++o2DZbt25FCHERm5QkiUKhSKLd4KGvfpj1+39DadfuOk3ywbfB6lmJ/clP89ALB9j7xxMk4vH6/WGIaRpMTkza586ff1YEwd6ObPa2r3/ta5tu+cAH9K1bn2b3nt3YlTKe6yHmFb7G+2VZppjPk8vlXvOD4C+BA3IUOGvXXnPNdW3t7Wzfvh3f95sssjUIk8kEpVyVhx7ZzsF33Yn5jg14ZXDLEOvqp/apz/HQtgOF5371ciUUAtdxcF0Hx3E4fepU6ey5c8+KIDi4pLPzrm9+85vve8+mTfqzzz7LyMgZSsUiNcdBRHWioXBDj0YKTqSSGKaxCrgW0BTABD68efPm29rb2/W9+/YhRzcsxGU0TWNmOsdrR85w7V1/So9towgd+1Of4dvP7Kk99R8vPuU6zl67XO6oVatWtWIHc3NzE7lC8ZkwDA8tWbLkzi1btrxn3fr16hNPPEE+nyeVSjE3N0etVluQO7VKIh7H93y1YttHgD+qEYBuy7LM6elpRLT6C5OwuiVUVWX87DQPPvICP7j3LnpiFt9/6hX+uPuYpinKMkeIR6qu+581110LyCEMAV5nR8eX7tuy5T1Xr16tPProo5TLZbLZLIZhkEwmyeVyF632fB2CIMAwDNra2vTpCxeWhhBTAU1VlJRpGEqxWGxWylaFWy0RBAFCCGIxi8mxOR545DlSqSTDw+dZtWqVoqnqxtMjIy+FYfhICM9HGU4DvnzHHXfcvGbNGvVHP/4xhUKBdDqNEAJJkprBfjkJggBFVclms9LpM2eSvhCGDCiKomiSJOE4zmU5/HxKHIvFmJzMMzR0Dt0wqDkOXV1dMV3XV0WFx46ogmwaxspMJmO9sG0b4+PjqKp6EYOVZXlB5tr6biEEiqLQ1taGLEkqoKjRyoau6yIuwyRbLdB63TCMpqVMw8B1nDAMguo8iix83y/v2rkzTKXTqKr6hvgSQjTd5lJx0HCheCIBkhQAoQz4nufViqVSKLUE76WYZBiGzaraeLHv+6Tb28lms4yNjk67nncoogFvB94BpH0hDh46fPjc2Ohok2LIstR0V9u2L9lDtFoqmUwiAb7vO4AnA04Iubm5OV+OetqFHjAfQKvyHR0dDPT3c/jQocLIuXO/BoRlWd9avmzZI9lM5qeKotwPGOVKZeu5kZFp3/PqDY2ioCj1Kl0oFN7gOgv1EZlMBsdzRRCGM0BNjdqW8xMTE5W+/v52WZYv4vQLmVOWZcIwxPM9li9bzprVq9i1c2fx+NDQ0yGc7O3tveeL99xzQ+eSJdrLL7/MH3bvvnFiauo63/efKpRKT54+ffqTyWSyM5PJoOs6pVKJYrF4mRa07qKKIpNOpzlz+rQdTfaqctSmnDh79uzk5MQEhmG8obMSQjRX2/f9pr+uWL6C1atWsWvX7sLRweNPhTC0rLf3o9954IGbrlu3Ttu+fTvnR0fJdnaqPd3d1+ua9ufA+Fwu9/Njx45N1KpVYrEYU1NTOI5z0bsa0rjmOC7d3UtJJOKcPTsyRT01O0qjfXccp99xnHcmEwmlNaAkSUJRFDRNIxaL0ZZKkclkWLlygKXd3ezYsWPm2ODgL8MwPNnb0/Px+++//4Z0Nqv86Ic/ZGxslDCoW6y9vV2yLKurUql0+r7/WqVSOVEsFvukkLZ8vaFC13VM08QwDDRNQ9O0Zrwt6erk9ttv59jRY2L//v0vBGH4JJBvcCEDeJ+uaQ92dmQ3ZjJZRTcMdF3DNGPouo6uafXgkyWCIAyL+bw3dGJ45Pzo2NPAaHdX16fvu+++DctXrJB/8pOfMDc3h6qqTUqgaRqWFWN6ajo8fvz4PrtafRxIGrr+0bZUam08Hjc0TZfb2tukTCZDKpUimUyiGwaSJJFMJjh16rT/4osv7imVSn8DvES94W0eKWCTLEmft0zzBsM0ErKsBIAjhKgFQWAHQWD7QVAKhMh7vj8ihPgDINLt7V/9xje+8cE111yjPvbYY+TzeXRdb3ZisiyjKAq6rhOLxRg5fTo4eOjQ72uO83eALUnS9bIsXyVJUruiKCldVROGYVimaVqpVMq0LEuZy+Uqo2Nje1zXfQLYEfUFzckcUWv3chCGw+Vq9epytZqJcnklGoPb0Xi9Go3bS4Amwdc+cued7121erX6s5/9DMdxyGQyTSLYSsoAnJpDzLLkRDx+U81xNgJ/H4bhTiFEHDB93zccxzFLlYoFWIyPx6NKngfORNNsZ/5osXFUo0bhzLwNj/ASfevKbDZ744Z3v9t6/vnnGR4epru7G8uyiMViTaWFENi2TT6XZ2Z2Bq+eRk1NUW7yhOgApqOFumjvokW4lA7qJXpl8b8cNqXjltVdrVYZHh6mVCxRq9XQdR3DMJp0wXVdbNvGcRyEEMTjcVJtKeZmZ7s8ITKRkvMnE+H/ZlqhLnKHxzIMw/KiTYyQEN/3cV23mdffMGaPCmBbKoVhGmalVktcAsD/abx+pffGU6mUCVCr1S7iSq0x0MpvgjDE9wVt7WniVtwA4ovRYzEAJCARTySMeqFxFuROC1EDIXxSqRSpVMqIsp+8qMHWImZKCdMw9Mamxf80lW6I7/vouk57Oq1HA4W3BIAMtFnxuFGt1fB9/7JcZj6AIAxJJpN6ZAH1rQKQsCxLq1QqzUHA5fcFaGGxAituqRHtVt4KAAD+1NQUNcdpMsbWjHM5AIqqIHylkbLDtyKIPeDM/n375gYHB9E0rckcW88NEULgeR6O49Db20t/Xx8jIyN54FRrZf3/tIAP7J/L5/7L87yPp9rbdV3XL6LdrYzWNE1SqRQDAwOsW7eOo0eP+keOHPkdsHsxfz2QFulCBnCTLElfjZnmh9PpdCadyZBOp0kmkyQSCSzLwjBNDF0HSaKQz3Po8OHC0aNHX3Yc50fAzojCvCUAiMbgVwEflGV5k65pV1uxWKatrc2MWZasa5okhBDFUqlWKpfzlUrllOM4OyI6PBSRRN5KAI1YsoAs0BXt/TZm+lLU9RWjvxRMRefKIv8Z86YCWAiQ3JIkwpbNifDNfNF/A4nfhX2wy8pIAAAAV3RFWHRjb21tZW50AEZpbGUgc291cmNlOiBodHRwczovL3d3dy5kdXN0bG9vcC5jb20vd2lraS9pbmRleC5waHA/dGl0bGU9RmlsZTpJbnB1dEljb25fNy5wbmeEw7ohAAAAJXRFWHRkYXRlOmNyZWF0ZQAyMDIxLTA4LTEwVDE5OjAzOjQ1KzAwOjAwsmylNAAAACV0RVh0ZGF0ZTptb2RpZnkAMjAyMS0wOC0xMFQxOTowMzo0NSswMDowMMMxHYgAAAAgdEVYdHNvZnR3YXJlAGh0dHBzOi8vaW1hZ2VtYWdpY2sub3JnvM8dnQAAABh0RVh0VGh1bWI6OkRvY3VtZW50OjpQYWdlcwAxp/+7LwAAABd0RVh0VGh1bWI6OkltYWdlOjpIZWlnaHQAODLLACE/AAAAFnRFWHRUaHVtYjo6SW1hZ2U6OldpZHRoADgyM6/hsgAAABl0RVh0VGh1bWI6Ok1pbWV0eXBlAGltYWdlL3BuZz+yVk4AAAAXdEVYdFRodW1iOjpNVGltZQAxNjI4NjIyMjI1NI0M7AAAABJ0RVh0VGh1bWI6OlNpemUAODA5N0JCjmLBigAAAABJRU5ErkJggg==;" vertex="1" parent="1">
          <mxGeometry x="292" y="60" width="48" height="48" as="geometry" />
        </mxCell>
        <mxCell id="-rYXa19Bb-40bHIPveaP-13" value="" style="shape=image;verticalLabelPosition=bottom;labelBackgroundColor=default;verticalAlign=top;aspect=fixed;imageAspect=0;image=data:image/png,iVBORw0KGgoAAAANSUhEUgAAADAAAAAwCAYAAABXAvmHAAAABGdBTUEAALGPC/xhBQAAACBjSFJNAAB6JgAAgIQAAPoAAACA6AAAdTAAAOpgAAA6mAAAF3CculE8AAAABmJLR0QA/wD/AP+gvaeTAAAAB3RJTUUH5QgKEwQ0jiinrAAADcBJREFUaN7FmnuMXPV1xz/33rmPufPamdldr73rx5r1K4mMbcBgICaYECJEk1BBCG2aIIgaCqmq4tK4Ma1aofwZVUoUoUYlgdLICgFTqKhbEAURwDYQOya2d/1gvSvva9b27rznPn6/e/vH3nFmza7Vep36Jx3tndfvnO95/c45v4XLu2JAAsgBm7fcsOHdL96xdczQY18F8kAS0C83w4UuBbCBpcA6oE+Bnu6eJddtf+yuzSuXtWt/Xq1+/913D2wDhoCTwFHgNFAFwoUyX8hSgU7gtlwu99V1a9duWrx4cfbEiRPx++6/Sd1+dwGjMcJ/nv4Cj39vdxDI0CmVSsUzZ8585Pn+C8AeYAIILlUAbYEA2oB7N23cuGPHjh1bPn/77ZliqWSsXtul/OW9GomhX8L0ML1XpUisuFUZHi7rfX19KV3X+yrl8tWe75cji9SvBAAV2Lhm1aodTz755PoQlGeeeZYgrLDz28voHPtXqJVmvjg9zOpP9zBS62LfvqN0dHYQSNlWqZQXyyA4FLlTcKlCXOrSgfVbbrxxjW6a/Oxnz9BwSmx/eD09Z56HqUmQgAc0POwTL/PIly02XrOSQqFANpslmUj0AZsAYyFaXEgCaNc0zfrg/fcpV4v89V98nk1iD4x9/DvhfUAAlQrtp37Bzm+vpfeqxdTqdUzDMIGOhWSmhQAIAW9sbEwOHBvgTx+8lS92/gZOfjgjsHcBCeDMOL2FF9j+8HXYSQvX9STgLiQTLQSABMqHDx/2130qx9evnkQ9tAf88JPCN0kCg/3cKP6b7d+5HTudCKMAFlcCAKahd267fbP98JdzxE++BaoNfmxGp3OSAloSZeQYf7hmkh3f/WOrp3vRmoW4kLaAw6Nn/Wf6nnjowXuWamaMUaOP4pKtZOOgjZ+aySmyhXwg08P4hm/RH7+Ogp+hfckqRkcKPUf7T72jKgyFlxiIl7qqw8Pj7/zD3/941ac+s77t9NgY7R0Z/vmRq+gUv4LAn31MCiC7nBd/7fFPP3mdrs4ORk//vFwqFv9LUxi71ChQLzV6gXNTxcrz09O102tWryNtZ6iUygSemN+FfKiWy0gvoKtzMcXp6sTYxLmfypDj8grVQjXHaZTPnTtHqIQoCiAVAgeCCzUqQPUiv9VUFAU8z6sAlYVkodg8B5QdHS5hSyaX0WnZSmcr1erJAwcObEFVVdMMQIBoArjAhWIuKAFkMhmqlWpYbzROApMt8ahGpEWy6ZEcSmTDapTPwrkAaEA7cK2qqpsNXe8SQvhCyjJQin7c1FgZKADTnu+/ffTIkW1dixcv7V7WQeiDaMxtAcUBTdMwTZP+/v7JhuO8HX26EVgS1VapJmmqmjEMI6Uoiu553pSQci/wLjDeTL2xlsSyRFWUr2/atOmbN990U6/v+8bZc+fCarXqu64rfN/3G/W6V6lWnVqt6kxPTY9X6/VfhWH463K1+oIcHfvmoiVtOQT49U8WNqEAzYUwCDl44EClUim/ApzTdf3Plvb0fK49n19kWVbcTiRMwzB0wzBiiURCj8fjaq1W49ChQ8HJkye/0mg0doXw06gIDJoAksAdW7dufeR7O3f2jIyM8OGHH5Jpa1PaOzoMTdOMWCyGpmoIKaiUywwODq4aGOi/tlCYfEMGwau1eu1l3/fvD3wsvzHjbxcCMBwICJguTr8FHE6n09/42n333XrLLbfEC5MFpqamcV0Xx3FwHIeG4zB59izVahUrHlc7OzqWTUxMfMvxvCngJ0CxCaCno739Kw888EDPiRMn2L17N1LK32WcMERRFBRFQVVVgiDAcRyWLOm2NS12x/jEhC2EeMsw9DHpsdKvR/ZtjQEfpANaXPWBYns+/6XvPProZz+3bZuxe/dL7H9/P/VaFd/zkUFAEFEYzviioihouk4qlcqL6ekviSB4HfhNLHKjdevWrr0609bGv738MkIINE2b+XEYEsL5zcIwxPM9KuUKuq7T3dNjGLq+9dTwcCYIAiMQ4EYWUFoAhBGA0AyUtmx22+N/9XjHxms2Ga+88gpDQ6eolMv4wj8fnk1lNXmGYUgQBCTTKeqN+ipRb3waOBKLonzlit7e7Pj4OMVS6byWm+hbNwnDEOGLmQ2lxPM8unt69BA2SinDMMpC8oKjO/RAukBA7KEHH+reeM0mdu3aheM45PN5RkdH8UrenPyaBJBKJkkmkplavbESsFTAArps27YmJyeRQszSdnCBOYMgwPf9ppoQQlBvNOjq6tKSiWRMuiF+A3ynhaLX0gFLt/B8n6effprx8XFUVcU0TVKp1Cf4XghASolpmmQyGUOBxUBcBfSYpqUt09TK5fIsQVsBtD4346NpaiEE5Wp1JvW4IOogai0UvQ4aIcIR7Nmzh5GREVRVRUqJoihYljUvv1bSYjHy+byiaVoKMGOApmmarigKruvOa74L3an5HAQBqqri+z5OvYFY3kfq3nuRgZhd/AUhSl8ftVNnEcKf5abNPYIgmJcHgJQSTdPIpNOoihIDtFj0pdDzPORFzNe62YWfBUGAqihMTVf57q43Ql3XJuOmWVBURUS/0xoNt1Mc+6BrYvyMErcsoi1nuUdT0PniIAgCTNMkkUyCogRAGAOE7/tOuVIJk6mUcjELNElRFKSUs7SYz+fpyOfZu2/f5ESh8ANgL5CODFACNpimuX3F8uUrsrkcigKqOpOawzCkXq/PmzSa7wdBQCqVQgGEEC7gq4AbwvTU1JRQo9Q5l++1+maTqZQSIQTt7e30Ll/OwMBAafLMmX8Hpmzb/tqynp4d+VzubzRN+xOg7rruixMTE5PC94nH42iahqZpCCEolUqzeMylfYBcLofrezIIw7OAE4uKpNPj4+O15StWtDUDay6/b1IzP/vCZ2nPUtasXsW+vXvLA8eOvRTCye7u7oceevDBazs6O/U333yTD/bvv368UNgohHixVC4/Pzg4eF8qlerI5XIYhkGlUqFcLs/Lr6l9TVPJZrOcGhysR6OYhhpVdyeGh4cnJsbHMU1zFoBm1mlqWwhx3l+XLV3G6lWr2Ldvf+lI/8CLIRzr6e6++2+feGLz1Rs26K+//jqnR0bId3TElnR1XWPo+v3A2NT09M+PHj067jQaxONxCoUCruvO4tWk5nuu69HVtZhkMsHw8FABOAa4WlQtCNd1V7iuuz6VTGqtAaUoCpqmoes68XicTDpNLpdj5cpeFnd18d5775092t//QhiGJ7uXLLln586d12bzee1HP/who6MjhMGMxdra2hTbthfVarUOIcS7tVrtRLlcXq6EZIqlIgCGYWBZFqZpous6uq6jKApBENC5qIM777yTo0eOyoMHD/5HEIbPA8XmYW8CWw1d/7uO9vyWXC6vGaaJYehYVhzDMDB0HcMwUFSFIAjDcrHoHztxfOj0yOhLwEjXokV/tGPHjuuXLlumPvXUU0xNTRGLxc6XBLquY9txJguT4cDAwIF6o/EvQMo0jLsz6fS6RCJh6rqhZtoySi6XI51Ok0qlMEwTRVFIpZJ8/PGgeO21196vVCrfB96IxgTnVxq4WVWUb9iWda1pmUlV1QLAlVI6QRDUgyCoiyCoBFIWfSGGpJQfADLb1vbIY489dtuatWtjzz77LMViEcOYGbapqoqqqmiahmEYxONxhgYHg0MfffSO47o/AOqKolyjqupViqK0aZqWNmKxpGmatmVZdjqdtmzb1qamp2sjo6Pve563C3gvymyzGpoy8GYQhserjUZftdHIRV1YLWpm6kAjIidqbHQFHv2Du+767KrVq2PPPfccruuSy+XOV69NC6jqTPvtOi5x21aTicRmx3W3AP8YhuFeKWUCsIQQpuu6VqVWswGbsbFE1JkVgVPRNNudr6VsRI3CqZaGP4jiZK7h68p8Pn/d9TfcYL/66qscP36crq4ubNsmHo+fF1pKSb1epzhd5Oy5s/gzadTSNW2zL2V71FbW5pjeKC1F+ZwyxC4ydfvfDAqyCdvuajQaHD9+nEq5guM4GIaBaZrEYjGCIMDzPOr1Oq7rIqUkkUiQzqSZOndukS9lLhIynGP4Ef6+pxK2aZq27/s0Gg1CQoQQeJ53Pq+35vboASklmXQa0zKtmuMk5wHwex8tqkAinU5bAI7jzKqVWmOgtb4JwhAhJJm2LAk7YUZ3aupChFjI9VQykUyaMweN+4mjf77SQEpBOp0mnU6bUfZTL+dc6P8yV01apmm4rovv+/OW3p/o6ITAMAzaslkjGqFcEQAqkLETCbPhOAghLlrLXAggCENSqZQRWSB2pQAkbdvWa7UaQohZTfjFgMzUVRI7YceikY52JQAAiEKhgOO65yvG1oxzMQBaTEMKrZmyr8gNjQ+cOnjgwFR/fz+6rp+vHFv/tvbRvu/jui7d3d2sWL6coaGhIvBx68n6/2kBARycKk6/5fv+Pem2NsMwjFlld2tFa1kW6XSa3t5eNmzYwJEjR8Thw4ffBvZHyrgiN/UmsFlVlEfilvWFbDaby+ZyZLNZUqkUyWQS27YxLQvTMEBRKBWLfPTb35aOHDnypuu6P4paz8aVAgAQB64CblNV9WZD1/vseDyXyWSsuG2rhq4rUkpZrlScSrVarNVqH7uu+15UDh9byC395QLQjCU7+o+URdHdb7pltu9F1e7ZaCx/NiregoUyvlwA5gKktiSJsOVSJLycjP4HAybAYaR6kZEAAABXdEVYdGNvbW1lbnQARmlsZSBzb3VyY2U6IGh0dHBzOi8vd3d3LmR1c3Rsb29wLmNvbS93aWtpL2luZGV4LnBocD90aXRsZT1GaWxlOklucHV0SWNvbl84LnBuZwaTLfAAAAAldEVYdGRhdGU6Y3JlYXRlADIwMjEtMDgtMTBUMTk6MDM6NDUrMDA6MDCybKU0AAAAJXRFWHRkYXRlOm1vZGlmeQAyMDIxLTA4LTEwVDE5OjAzOjQ1KzAwOjAwwzEdiAAAACB0RVh0c29mdHdhcmUAaHR0cHM6Ly9pbWFnZW1hZ2ljay5vcme8zx2dAAAAGHRFWHRUaHVtYjo6RG9jdW1lbnQ6OlBhZ2VzADGn/7svAAAAF3RFWHRUaHVtYjo6SW1hZ2U6OkhlaWdodAA4MssAIT8AAAAWdEVYdFRodW1iOjpJbWFnZTo6V2lkdGgAODIzr+GyAAAAGXRFWHRUaHVtYjo6TWltZXR5cGUAaW1hZ2UvcG5nP7JWTgAAABd0RVh0VGh1bWI6Ok1UaW1lADE2Mjg2MjIyMjU0jQzsAAAAEnRFWHRUaHVtYjo6U2l6ZQA3MjIwQkLXurG7AAAAAElFTkSuQmCC;" vertex="1" parent="1">
          <mxGeometry x="366" y="60" width="48" height="48" as="geometry" />
        </mxCell>
        <mxCell id="-rYXa19Bb-40bHIPveaP-14" value="" style="shape=image;verticalLabelPosition=bottom;labelBackgroundColor=default;verticalAlign=top;aspect=fixed;imageAspect=0;image=data:image/png,iVBORw0KGgoAAAANSUhEUgAAADAAAAAwCAYAAABXAvmHAAAABGdBTUEAALGPC/xhBQAAACBjSFJNAAB6JgAAgIQAAPoAAACA6AAAdTAAAOpgAAA6mAAAF3CculE8AAAABmJLR0QA/wD/AP+gvaeTAAAAB3RJTUUH5QgKEwQ0jiinrAAAD0tJREFUaN7Fmn9wHVd1xz93f7637/d7kiXbkiX5JwaSGBOc35gCDWkgdOjwo5CE0DAMDJ3OtDDtpE0CgQKZTtrpDJSGTqczhLQTMMZQ2pABGtwGsJOQ2ETyD0mOZdmSLEuR9H6/3X17d7d/vH3KsyJDilJyZ+7se6unveec+z3nfM+5K3hlhwaYQBwwou8APuACTnT11rCGiGbQ/rLWIQAL6Ad2Ats0RdlomGZWURQDwJey2fS8sh8Es8Ap4AQwBdSAsONZemSAGJCMDGGBsj6VSvelUqlcMhHLNeolzp9/4R+EEOe0NQqvAOuAt+Xz+ffv3LFj9+DQUK6rUIibsZgS+D5Nz8O2bRYXF4OZmRlnamqqtLCwMNz0vG+rijjR3Z3bmUwmC1osntM0dcO6rmwhm01lUql4pqsnk0gl9UTcIL0uH7PyGSFSmW72f2+4+o8P7v93EYZrViADvGf3G97wZx//xCe2rlu3TszOzjL/wgtUKxXcZhPp+2i6zvoNG5Se3l5raGjIGh8b2zA+Pr6jYduTv/OWq6++/fZ3GEl1SknonsgnfBJqnZhooOtF1LCOFjYQQQ1kEa/nOh7vStuAG3Zg9De1/s4d27Z95N57791WrdXYt28f5XIZ3/cJwxYy2tdljOg663p7qdfrQxMTE8pzI6dO/6F3w87r1s8I5cQPARsUD4RsraAAaiSpAjLVZGmJWuuHrT//pkMHLr/m2mt36IbBgQMHWFxcJAxDFEVBURSEEMvXtjKu6+J5HrlcjlQqmT9x4tR/3fPZb3x3/4lNnuy5AhwbmrLl9kHHapHLutJiaaFSifxnTQpoQJeqKLGRkRFs20ZVVcIwJAgCwjBc/tz5vT01Xcc0jDjgjgyffPT7P5mo1bp2tR4raU2/4+oDoY4TJqhU7EYU0dYEoRDwlopFv9lstowUBBfBZqXQnfcURSAURQKvfee7337Lp2/bkc2O7gNHtvZWrIiRKiAMynaMxaVysQ2htSjgA+VardZUVdUSQlykwGpCd97TNJ0wFOqNN+996/1/em3isql9MDfeCqL+CjMtB2yDkq1SrdlnXwkI+UDVcZxmG+dhBJfVINR5PwgCavU6u/a8Tv/bT+9NXHb6WzA52hJWrphtGHmA0Gl4ehCE4YV//daXg1cCQjXHcVwhBEIIghUWX836YRhSLBbZsqOPz398D5ed2Afnx1qpS66SIsNICQ1QYpRKftCoO5Ujz46y1h0IgHq1UnED30dV1VWd9SXCLxUZ2raBL33iGi4b/jb+xGgLJXKV6QLJHujZDlIBkaC46Pi1WmPh2PAYr8QO1Gu1mu267nIEakOknQvaOyGEoFwuM7C1l7++8yq2P/kIzZkxlHhLWGUlr5FA/xbGBj/ATM3ihs3/g65UqNQ9z2k4C7PTs2tWAKBm23ZlYWGBIAiwbRspJc1mc3k32sO2bS7fvZ3P33E1Ww99E3t6DNVqYVt0ZEbR9q7+zZwcuJXPfPXI6Mjw8+e/8Fe3XH/L3rwx/8Njtm1Xy9NTM8vBabUElQLSEUnTI0VVLjZUCKi+7++G8HLPl6JULCHli0Bu+0atVuM1lw3xxT+6gcGffAt3YqzFVVfAHQHCB7FhiNOv+zD3/fPRM/u/+dgXFuZf2H/y1EJf16Y9W8dGJ+eeefbkv7jN5iKrRNou4EpFUfYYut4rpfSk71eAchS2qtGsAHNAEXhHKpm8b3BwsF/TdXzfX868AI1Gnde9foB73ncVAz/5Du65MbQEqDpoOihG67OqgyJAH9rC6BUf4q6vHnZ+8P2DT2uadlpRFNVxHLNv47o3mKY+eer09B2aIi7IIFyGkAA2KELctnv37juuv+66Ic/zjIXFxbBWq3mu60rP8zy70WhWazWnXq85xaXibK3R+GkYhs9Wa7X901NTd2waGMibponv+8uJLQwDbv/gjWw7dYiFkTH0DPjNjnQuXsS8NrSZU1fcxt88MorvGvptt956bSwef3O9Xue5556Tp8bHl2zXnQayMgjngaANoRTw+3v37v3z+z73uc1xy1LPz85iGIYoFApqT0+P3tfXFxsa2pzYvGVLpr+vv2BZ1oDr2Fc2Go1MGIaHXdctuY6zPZVKmYZhEIYhQgh8P2D89BQ733IVvW4Vd+YCQo3g0s5TEoz+ISavvZ3PPvRL5mYq9PX1KZ7vK6VymWKphJRSEZBwbLtf+v4icAxw2vrv7O7qeuCBBx54Z73R4MCBA8tWDFvBfBnPiqIQBAGO4+A1m8zNzTVnL1z4qZTyPwTsymWzf7BpYCBtmCbS9wmDgHqtTt9gN/fd+Xa2P/Eo9eFn0CMYqQKsrVuYefuH+MuvP80zTx4nHo9flPja/qQoCpVSiWKx+HMZBH8C/LJNVK+/cvfuj7zlrW9NHzhwgEajgape7N/t8CilxHEdKuUKAIVCQdVVdVO9Xk/6QfCE4zgLjm0PqaoaI2yFU0UITo2ero2cL5Z3v//dVm+tLJyZWQggPrSFCzfdxt0PP83Th45jWfGXBIFOfmWYBq7rxDxPHgVG1ah8u3Hv3r2/l81mjWePHEER4ldm06bbxPO8KHIIurq6FE1V+yqVStIPgidc1z3fqNW6Hdu27HojWFpamq3Uat87d2bm6Mm56mt3v/9d5vpaCc1MMH/LrXzxwAjPPnUSXdcvmb3bM5lIID2p1RuNY8AzWqRAr2VZsfn5eXwpURTlkiQsCAI8z2ubCCklDdumr79f1TTtmtMTE67bbH7NbjYPOs3mTkAJYQzwent6Prpn17Xxrz/+PB97x/vIxQ2+9MjPKJcC+vr6mJqaanGqaLdXyhAEAaZpkslkjPkXXlgfQlwDdE1V0zHTVCuVCkEQLD/kxUgSXgSjtn+0t9nzPCrVKhv7+lTXda6ZmDz7eBiGXwvh0SjC6cDHbrrpput/98Yb9fvvv5+7JyZIpVNUy5Lt27czOTn5a2lIEASomkahUBATZ86kpO+bCqCqqqoLIXBd9yX/sNrnlQpBq9Jq2DY9Pb1xwzC2RW2VBlAHlJhpbs7n89Zjjz1GtVqlVHRZmK/T1dW1XMWtxlw71/YjzpXJZFCE0ABViwQJm80m/iWEXSnwSy3T2qmYadJ03TAMAnsFq/ellLUnDx8O07kcmqZhWQlSqeTyc33fX4bNpfygDaFEMglCBECoANLzPKdSrYaiw3lX++e28O3ipTMy5bJZCoUCM9PT803PG476Oq8HLgNy0vefGx4ZOTczPY1hGAhBNFtrNhqNS9YQnWulUikEIKV0AU+J2hPFpaUlqXTUtJeabQXaVpNS0tXVxdDgICPDw+XJc+f+E/Aty/qL/r6+rxXy+X9SVfVuwKzV6wfOTU7OS88jHo+jqiqqqiKlpFwuX7J+7nTqfD6P6zX9IAwXAEeLWPfU7OxsfWBwMKsoykuo8MqHKYpCGIZ40qO/r58d27fx5OHDldGxse+G8PzGjRvv/Oidd17ZvW6dfvDgQX7x1FNvmp2bu0JK+Z1ytbpvYmLiA6lUqjufz2MYBtVqlUql8itL0CAIUFWFXC7HmYmJRtTZsxWgCZw6e/bshQuzs7S5zEpu37a2lHIZr5v6N7F92zaefPKp8vGTo98JYaxv48b33HvPPXuu2LVL//GPf8zU9DSF7m5tQ2/vGw1d/yBwfqlY/LcTJ07MOrZNPB5nbm4O13UvWqs92/dct0lv73qSyQRnz07O0QrNrhqxBem67qDrupenkkm106GEEKiqiq7rxONxMuk0+XyezZuHWN/by6FDhxZOnDy5PwzD5zdu2PDeu++++8pcoaB+5ctfZmZmmjBo7Vg2mxWWZfXU6/VuKeXP6/X6qUqlMiBCMqVyqZVlDYNYLIZpmui6jq7ry/62rqebm2++mRPHT/hHjx79QRCG+4BSmwuZwJsNXf9Md1fhmny+oBqmiWHoxGJxDMPA0PWW8ymCIAjDSqnkjZ0an5yanvkuMN3b0/Ohu+6666r+TZuUBx98kKWlJTRNW+Ywuq5jWXHm5+bD0dHRIw3b/gaQMg3jPZl0emcikTB13VAy2YzI5/Ok02lSqRSGaSKEIJVKcvr0hPzRj370dLVa/SLwOOB21gNp4HpFiA9bsdiVZsxMKooaAK7v+04QBI0gCBoyCKqB75c8KSd93/8F4Oey2U9+6lOfetuO17xGe+ihhyiVShhGq2Jpd+lUVcUwDOLxOJMTE8Fzw8M/c1z374CGEOKNiqJsEUJkVVVNG5qWNE3TisViVjqdjlmWpS4Vi/XpmZmnm83mI8ChqEa5qKSsAAeDMByv2fbWmm3no1hej4qZRtRMsqOuWBXQBfzxLe961w3btm/XHn74YVzXJZ/PLxOx9g606YnruMQtS0kmEnsc170G+PswDA/7vp8AYlJK03XdWLVetwCL8+cTUSYvAWeAC1HgWbUmtoHnox8qHd2HcEWnsj02FwqFN1119dXWo48+yvj4OL29vViWRTweXxba930ajQalYomFxQW8VhiN6aq6x/P9LmA+MtRqBxmdJWywWn/zUk0r/2UU9bmEZfXats34+DjVShXHcTAMA9M00TSNIAhoNps0Gg1c18X3fRKJBOlMmqXFxR7P9/MdHaCVXY/w5TRo1zIs0zQtLzrECAmXuxLtuP6SNnuUADPpNGbMjNUdJ3kJBV52j38t5wOJdDodA3Ac5yKu1OkDFxVFYYiUPplsjoSVMIHEWuRYiwICSCaSSbOVaNxVudNq1MD3Jel0mnQ6bUbR7zeWYy0QUoFkzDSN9qHFr+tKt6eUEsMwyOZyRtRQeFUUUICMlUiYtuMgpXxZ5wJtBYIwJJVKGdEOaK+WAknLsvR6vY6MStFfdy7wIov1sRKWFtFu9dVQAEDOzc3huO7/6YTG931UTcWXajtkh6+GE3vAmaNHjiydPNnqKLSZY+e1PX3fx/M8XNdl48aNDA4MMDk5WQJOd2bW3+YOSODoUqn4357nvTedzRqGYVxEuzsZbSwWI51OMzQ0xK5duzh+/Lg8duzYE8BTa3n1YK2vGpjAHkWIT8ZjsRtzuVw+l89HR6gpkskklmVhxmKYhgFCUC6VGB4ZKR8/fvyg67pfAQ63D+xeDQWI3mfYArxNUZTrDV3fasXj+UwmE4tblmLouvB9369Uq061VivV6/XTruseiujwWEQSeTUVaPuSBRSAHqA7Co9GtEYzYrsLUVt+ISJvwSvxpsn/x1A6ZieTDNYScVYb/wv7+QmfIctsQAAAAFd0RVh0Y29tbWVudABGaWxlIHNvdXJjZTogaHR0cHM6Ly93d3cuZHVzdGxvb3AuY29tL3dpa2kvaW5kZXgucGhwP3RpdGxlPUZpbGU6SW5wdXRJY29uXzkucG5nO/MEQAAAACV0RVh0ZGF0ZTpjcmVhdGUAMjAyMS0wOC0xMFQxOTowMzo0NSswMDowMLJspTQAAAAldEVYdGRhdGU6bW9kaWZ5ADIwMjEtMDgtMTBUMTk6MDM6NDUrMDA6MDDDMR2IAAAAIHRFWHRzb2Z0d2FyZQBodHRwczovL2ltYWdlbWFnaWNrLm9yZ7zPHZ0AAAAYdEVYdFRodW1iOjpEb2N1bWVudDo6UGFnZXMAMaf/uy8AAAAXdEVYdFRodW1iOjpJbWFnZTo6SGVpZ2h0ADgyywAhPwAAABZ0RVh0VGh1bWI6OkltYWdlOjpXaWR0aAA4MjOv4bIAAAAZdEVYdFRodW1iOjpNaW1ldHlwZQBpbWFnZS9wbmc/slZOAAAAF3RFWHRUaHVtYjo6TVRpbWUAMTYyODYyMjIyNTSNDOwAAAASdEVYdFRodW1iOjpTaXplADgwNjNCQtEIeQAAAAAASUVORK5CYII=;" vertex="1" parent="1">
          <mxGeometry x="438" y="60" width="48" height="48" as="geometry" />
        </mxCell>
        <mxCell id="-rYXa19Bb-40bHIPveaP-31" style="edgeStyle=orthogonalEdgeStyle;rounded=0;orthogonalLoop=1;jettySize=auto;html=1;entryX=0;entryY=0.5;entryDx=0;entryDy=0;" edge="1" parent="1" source="-rYXa19Bb-40bHIPveaP-19" target="-rYXa19Bb-40bHIPveaP-29">
          <mxGeometry relative="1" as="geometry" />
        </mxCell>
        <mxCell id="-rYXa19Bb-40bHIPveaP-19" value="&lt;font style=&quot;font-size: 25px;&quot;&gt;L&lt;/font&gt;" style="text;html=1;align=center;verticalAlign=middle;whiteSpace=wrap;rounded=0;fontSize=25;fontColor=#BA13B5;" vertex="1" parent="1">
          <mxGeometry x="160" y="321.5" width="50" height="51" as="geometry" />
        </mxCell>
        <mxCell id="-rYXa19Bb-40bHIPveaP-20" value="U" style="text;html=1;align=center;verticalAlign=middle;whiteSpace=wrap;rounded=0;fontSize=25;fontColor=#4193F0;" vertex="1" parent="1">
          <mxGeometry x="650" y="108" width="50" height="51" as="geometry" />
        </mxCell>
        <mxCell id="-rYXa19Bb-40bHIPveaP-21" value="&lt;font color=&quot;#36de24&quot; style=&quot;font-size: 25px;&quot;&gt;M&lt;/font&gt;" style="text;html=1;align=center;verticalAlign=middle;whiteSpace=wrap;rounded=0;fontSize=25;fontColor=#0DA612;" vertex="1" parent="1">
          <mxGeometry x="700" y="58.5" width="50" height="51" as="geometry" />
        </mxCell>
        <mxCell id="-rYXa19Bb-40bHIPveaP-22" value="&lt;font color=&quot;#ff7a7a&quot; style=&quot;font-size: 25px;&quot;&gt;H&lt;/font&gt;" style="text;html=1;align=center;verticalAlign=middle;whiteSpace=wrap;rounded=0;fontSize=25;fontColor=#0DA612;" vertex="1" parent="1">
          <mxGeometry x="700" y="108" width="50" height="51" as="geometry" />
        </mxCell>
        <mxCell id="-rYXa19Bb-40bHIPveaP-23" value="&lt;font color=&quot;#cc6600&quot; style=&quot;font-size: 25px;&quot;&gt;RC~RS&lt;/font&gt;" style="text;html=1;align=center;verticalAlign=middle;whiteSpace=wrap;rounded=0;fontSize=25;fontColor=#0DA612;" vertex="1" parent="1">
          <mxGeometry x="640" y="159" width="130" height="51" as="geometry" />
        </mxCell>
        <mxCell id="-rYXa19Bb-40bHIPveaP-28" value="&lt;font style=&quot;font-size: 25px;&quot;&gt;L&lt;/font&gt;" style="text;html=1;align=center;verticalAlign=middle;whiteSpace=wrap;rounded=0;fontSize=25;fontColor=#BA13B5;" vertex="1" parent="1">
          <mxGeometry x="650" y="57" width="50" height="51" as="geometry" />
        </mxCell>
        <mxCell id="-rYXa19Bb-40bHIPveaP-36" style="edgeStyle=orthogonalEdgeStyle;rounded=0;orthogonalLoop=1;jettySize=auto;html=1;entryX=0;entryY=0.5;entryDx=0;entryDy=0;" edge="1" parent="1" source="-rYXa19Bb-40bHIPveaP-29" target="-rYXa19Bb-40bHIPveaP-35">
          <mxGeometry relative="1" as="geometry" />
        </mxCell>
        <mxCell id="-rYXa19Bb-40bHIPveaP-29" value="&lt;font style=&quot;font-size: 25px;&quot;&gt;f. L&lt;/font&gt;" style="text;html=1;align=center;verticalAlign=middle;whiteSpace=wrap;rounded=0;fontSize=25;fontColor=#BA13B5;" vertex="1" parent="1">
          <mxGeometry x="260" y="340" width="50" height="51" as="geometry" />
        </mxCell>
        <mxCell id="-rYXa19Bb-40bHIPveaP-30" value="" style="shape=image;verticalLabelPosition=bottom;labelBackgroundColor=default;verticalAlign=top;aspect=fixed;imageAspect=0;image=data:image/png,iVBORw0KGgoAAAANSUhEUgAAADAAAAAwCAYAAABXAvmHAAAABGdBTUEAALGPC/xhBQAAACBjSFJNAAB6JgAAgIQAAPoAAACA6AAAdTAAAOpgAAA6mAAAF3CculE8AAAABmJLR0QA/wD/AP+gvaeTAAAAB3RJTUUH5QgKEwQ1+S+XOgAADYZJREFUaN7NmnmMXdV9xz/33PWtM/Nm8die8YI92E7BgNlsNgMNjghRotK0QI0StaoqpbSqRNNAmi7/tKIUNakUOSn8kdIK4gCtKUSUiJKUpbaxAwZjvOLxwuzjmXlv3nb3c/rH3Dd9M4xJa7s4R/rpvnvn3Xd+++/7+53RuLDLAGwgBVjJPUAM+ICXXMMLtaF2gX4jDfQC64A+Q4illm23CiEsgDiKgiAMp2MpR4APgUPAAFAF1MUUQABdwK8WCoXfXLdmzYYVK1e2dbS3p2zHETKOCcIQ13WZnJyUQ0ND3sDAQGliYuL9IAz/BXgZGAXkuTKgn6cArcBvbLjqqocfevjhTXds2dLSVihYEjTP8/CDgDCO0XWdfD6vdS9ebC7q6soJIVZXy+UrgjAsA8eB+sWwgAA2runr+87fPProdZVqlZdffpnp6WniOEapGc9oXBvLNE2klJzs7+fkqZP7gzD6Y+B1IDpXJs51mcD6TTfcsMa0LHbs2MHk5CRKKYQQCCHQNG322hDG933CMKStrY1sJrMa2JAE/DlnjfN5t0MXwjlw4ACu66LrOkqpOdpf6B7AME1sy7KBzkQZn7oACginisU4CAIApJRz3KZZgPnPhNDQhGikV3UxBIiB6Wq1Gui6ntY0bY4AZ7PEzDOFYZjohhEClXP1/wshQMXzvKDh50pK1CdYoPl5NpNCF3oIlJPfuiguVPU8z9c0DU3TkAv4+kJCaJqGbdsoKf3EAvJ8UuG5LgnUKuWyL5NcL6VckOEGSSln3cy2LKRS5y3A+VqgVq1WXd/352QgKeVsLWhYopFKpZQYhoFhmsRx7AO1ixXEAFXXdcsTExNIKXFdlyiKCIJg1hqzphYCwzAQQmBaFszUhEoSAxfUAmYCzqxGqkyyRJxs1EwTlWr1+L5972yyHEdUKpU52m4uYHEcE0URcRyzuLubarWq6q57HBhvgjUiIT3hzUz40JJ0WwWCZosZ83BRB3CNEOI6yzS7oygKozguA9PJy5WEysAYUAzC8I2DBw/dvmLFil7btonjeJbx5pogpSSKIjo6Oujq6mTXzl3jrue9kXztKmBJgq1yDdKFaLEsK6dpmhkEwVQUx7uBncBII/VqTZioR2ja/Rs2bPjqTTfeuDIMQ2ticlJVq9XQ9/0oDMPQrdeDSrXq1WpVrzhVHKnW628qpd4Bbm5rafnqsuXLC1YixPyCFkURmXSa5cuXcejgocqhw4d/JJX6qWmaV/X29Nza0d6+yHGcVDqTsS3LMi3LMjKZjJlKpUStVmP//v3y+PHjg67rblfwgwQEyoYAOeCeWzdv/ss//da3egYHB3n77beJogjTNNF1HcMw0IVOFEdUymVOnDjBkSOH62Nj4z+NpXxJg6tbW1ruXb5iRc62baImQBfHMaZp0tXRQX9/f+3D/v7npZQ/z+fzn7v3nntu27x5c2psfIypqSK+7+N5Hp7n4Xoe9XqdarVKqVhkfHSU0dHRSS8I/hZ4Aig1BFjX2dHx2GOPPXZXrV5nx44d/6PFGRXSyPVCCKSUeJ5HGASMjY0FI6Ojb0ZR9GMNrmxrbb172fLlecu2iaJoRgilcByb0ZHR+kcDAy/GUr7T0d5+5x888MBNt95+u7Vjx/Ps2buHeq1KGITESbptTgSNvculEsVicWck5R8C7xlJHKxbt3btFS2trfzbCy8QRdFsWkQpVOLDjbQYhAGVcgXTNFna02NZprl5YHDQDMLwhWKpJKWUd3ctWtRqWeZMZZaK4aHBypmJyZekUvu7Oju/9OCDD27ccPXVxosvvsipUyeplMuEUTgbng2G59eRbD5H3a33RXX3V4CDRhLll6xYubJtZGSE0vT0rJbPVk2jcEazMo4JgoClPT2Grus3njx1SoRR9Px0uez7nndnKpVaouu65vn+WLVe/4lS6khXV9cXH/rGNzZdvn69vn37djzPo729naGhIYLp4KzVu8FLLpslm8m21OruJYBjAA7QnU6nnfHxceIoQghxVjQppSQMw4aaiKKIuuvS09urG4axqf/ECd8Pgu+7QfAzLwjWAkLBMSDq6uz83W8+/PANq/v69CeeeIJqtUp7ezu2bZPL5SgWizOYKtH2fB6klNi2TUtLizV+5sxiBSkBmIau5x3b1svl8qzmm6/zPzfio2HqMAwpVyp0L16sd3V1bgLWA/sU/JOCfwT2AOtuueWWm3p6e41t27YxNDSEEGI27TqOc9b9mkk3DNrb2zVd13OAbQC6ruumpmn4vv+JWGYhoCalRAiB67pUyyXWXLoitW7tyt/JZlK36LoeAMhYmtVafVUmo6cf//53GRwep7Ozcw6jDbc92x6NbKbrOi35PELTDEA3ki+pIAiIm0x1NuYX+puUkiAI6WjL8u3f/oKW6T/eE8dRT3PnrcUKa/lytr1vcfL08JxC16jUDUbPFgcNF8pks6BpElAGEIVh6JUrFZXN5bRPskAzHI7jeE6w53JZWgotpAb6qT39NLEKoKkiyyBm0c03k+tehW4YSZbRZn2+Xq//wj5CSkkul0MDoijygdAAfAXFqampKN/aap5Ny/ORZUNrAN3d3XR1dlKunAFLIWyJQs6ZeWgCNFsiNYlIfF7XdXRdJ4oipqenf6EFAAqFAsXiVCyVmgA8kYCkgZGRkZpq8sXmYJpvxkZ+DqOQ7u5u1lx6KQc/OFgtlUt1YWtYDpgOmHZCyb3uaCih4uHhYS8MAjKZLJZlUalUKJfLH+sb5ge0rgva2tooFUv1ZLLnigTdfXj69OnR0ZERGoBsPrZvoMkGopRSsqx3GZf29fHWW2+VDh898hPTMkfRwUzNMGylEko+Cxt0Qw/K5ek3Dx06NOS5LqlUirGxMXzfn7NXgxrPfD+gu3sx2WyG06dPjQFHAd9IYPGxYqn05v79+1ctXbrUbKS3hrs0cLxhGDi2jWlZtLTkyWVz7Ny5c+LI0aP/CozGsbxJN8FIzyT/+cBdt0EqaQBHxsbH39m7d+/WtWvW9pbLZTKZzGx8NQd1GIYEQcDiJd1s2bKF9/e/Hw8Pj+wCDgNxA06PSymfGxgYWOe59U2FQrtu2TaWZeI4KSzLwjJNLMtCExpSKjV1ZiLcvWvXqYHBoeeBwdaW1q2pVHqRMGe0Hc8TQBlgOCA9ZaKJW1DyB8MjI49PTk7+Wks+vy6TydimaYmW1hatUCiQz+fJ5XJYto2maeRyWfr7T0Svvf763iiOn0ng/Gw/4AN7gjB8ZGR07CvTpelrbMfOCqFLwI/j2JNS1qWU9UjKiozjUhhFp+I4/jkQFwqF379/6/3X1P2ihog/LoAGKgTdVhixQe/SpZdPTpz59brn/Z0fBHvOTE5ePVksrtI0rVXX9bxlGFnbttOO46Tz+byTTqf1qWKxNjg0tDcIgu3AroTnOQ1NGfhPqdSxquuurrpuIenCakkzUwfchLyksTE1eOALd9118xVXXmE8/8IzaFYvZhqEnDd5NUE4oOqQzWWF59avq3veJuA7SqndcRxnACeKItv3fadSq6WBNMPDmaQzKwEnk2m2f7aW0k0ahZNNEwuZoOqF+tZL2tvbr73++uvTr776KmfOnEFYy9BTCwgQgbA1YhlTLE3jOI5j6vp1YRx3JG1lbYHBs9b0KwvyYHzC0Op/M2xqy6TT3a7rcvToMczkTMZwQM0P4mjm7EYxk9nybQWmJicXhXFcSJhUC0w91P/nXAggZVl2OggC6vUaSknQQXdmMo7uzCVhgVSKOIrJ53LYtu0AmfMZ85+TAMlu6VzG+ayTMhZ/cPAAEkUmn0ezdLBBs0GzEkruMSGVzZLOpVECCu2tHd2L2u+zdL3PFOemS+1cX1KwaE3fsme//ie/d8uaVTaxN0U2k+Xy+m7s/S+Bpj4+x1t0CSc/8xVOlWIECmn28OST/15/+qkX7xVC/DiU//fx0PkcMUXlcm1pNp+58b7PdeqXDf2QJaOvYYwdAhHPRFczmYA/TVvxPVbW32V5j8O+sTz//NQrr5yZLD4ulap+2mdkppTysnot2hzai6xrNyzGHHwbtHCGYX0hUhB40NHDbnE7D/3Fs+HBg8eeA352rkev5xPEAsiuv3y9sf+9MZ58p4C88vNgiZku216ADGDxEo73fpl/ePowpp5i3nnypyoAQFSplJGx5Nt//wIvj10JfdfPsGPNIwPI5ymuvo+/fvww1XLEsmXLGilbXQwBQuDkvn37po59eIzi1DR//lc72KPdAb1rZlzGSnzfBFIW9c/czaPPTrDzvw6wdu1aPvrooxLQ31xZP80YUEDg+d4K33XXZHM5vTxd4+RgyMY7P0urPAZhbUbzQiPq28IP313Nq/9xjNtuu42jR45Eu3bteiWK46cSYKY+bQFIyv9IGIbZKAyXpNNOanR4ktFylpvvuBbH/QBkCL3X8srIZrZ97w3aWtt4d9++6V27d7/i+/424MCF/N+Jc6rGwGXAH+lCPGeZ5r5sJjP0yCNfi7zDX1bqrVXqvV1/pjZu3FCyLOt9x7Z3AF9PJtJpfkmWALLAcuA64IsrViz70TPbvxmePvZd9VtbP38CeADYCKxMhsmCX+KlAatu2HTVa1u3fqnaXmj92gU4DVpw/TfZ6aucZH2FwAAAAFd0RVh0Y29tbWVudABGaWxlIHNvdXJjZTogaHR0cHM6Ly93d3cuZHVzdGxvb3AuY29tL3dpa2kvaW5kZXgucGhwP3RpdGxlPUZpbGU6SW5wdXRJY29uXzIucG5nTCM1UQAAACV0RVh0ZGF0ZTpjcmVhdGUAMjAyMS0wOC0xMFQxOTowMzo1NiswMDowME8uvzcAAAAldEVYdGRhdGU6bW9kaWZ5ADIwMjEtMDgtMTBUMTk6MDM6NTYrMDA6MDA+cweLAAAAIHRFWHRzb2Z0d2FyZQBodHRwczovL2ltYWdlbWFnaWNrLm9yZ7zPHZ0AAAAYdEVYdFRodW1iOjpEb2N1bWVudDo6UGFnZXMAMaf/uy8AAAAXdEVYdFRodW1iOjpJbWFnZTo6SGVpZ2h0ADgyywAhPwAAABZ0RVh0VGh1bWI6OkltYWdlOjpXaWR0aAA4MjOv4bIAAAAZdEVYdFRodW1iOjpNaW1ldHlwZQBpbWFnZS9wbmc/slZOAAAAF3RFWHRUaHVtYjo6TVRpbWUAMTYyODYyMjIzNrSfbBcAAAASdEVYdFRodW1iOjpTaXplADcwNTFCQjFvsFUAAAAASUVORK5CYII=;" vertex="1" parent="1">
          <mxGeometry x="366" y="202" width="48" height="48" as="geometry" />
        </mxCell>
        <mxCell id="-rYXa19Bb-40bHIPveaP-33" value="" style="shape=image;verticalLabelPosition=bottom;labelBackgroundColor=default;verticalAlign=top;aspect=fixed;imageAspect=0;image=data:image/png,iVBORw0KGgoAAAANSUhEUgAAACQAAAAkCAYAAADhAJiYAAAABGdBTUEAALGPC/xhBQAAACBjSFJNAAB6JgAAgIQAAPoAAACA6AAAdTAAAOpgAAA6mAAAF3CculE8AAAABmJLR0QA/wD/AP+gvaeTAAAAB3RJTUUH5QgKEwQ1+S+XOgAACdpJREFUWMO1WGtsFNcV/u6dmX161971e/FiG2JjnknUOk6gKgEnKRATyiMPlDRqSVUF2qoSlZqKSFVUVc2vNLRSIkVR8qNpqjZ9kJSmQAgB0xi/MMEbsBsTMBgb79Pe17znzu0Pdo1poapJGOn8mJHmnu+e853znXsJbu2hAEoAVAAIAHABIABUAGkASQA5APZcFya3AMZPgK9VV1dvCIVCS8pKS6sEQXCalgU5n9fjiUQykUgMKap6CEBnAeBtA1Ticbu/s2XLlt2tra31mq6TfD4PVVVhmiaYZUFWFFweG+NDQ0NXJqPRlznnrwPI/r8OxDkCWtbR0bGrY+PGhsOHDyMWi8GyLNj2tcwQQuBwOklDQ8M8Wc7vzGRzA43AsdE5cGEu0WxpbGwM9/b2YmxsDIyxGRAAwDkHYwy6rsPhdKDU55sHYOnoHPzMNUJCMpkkvADCtm1wzm9oAIEoSQSAMBdqzCVCHEBWlmVdFEXYtv0/jVICyeEwCvyxb1eEsrquG0IBEKV0hj+zo2XbNlwuJyRR0gFkCpu5LYBycj6vCZTOOJ6dpuI7YwySKIFSqs+lwm4FkJzJZNWic9u2YVkWGGPgnIMQAloAK0oSOOc6gPwNaMJvFjXxBpVU/GYXbPaP0/F4LD555UpLPp+HYRgzUSlWGSEEgiBCoBSKqiYApACAEgKb85KFC+bvNA3zwtj45PuFtc3ZHJsNqIwQ0uZxu+/iti1pup6xOc8UQp4tLDw1PjHxTyoIbT6/33nVuTCzgG3bYIwhGAxAVVUrFot9XHDWanNeUV9ft/b5n27dde58NLH31+99nRKkFU2NcM6PF+SGF8sxEAwEdm7atOnZqurq2ujkJJEVxbQsyzR03cjlcloiHs9eHh8/KStKl9PheDgcDq8vCwTEIqmL3CnxeuH1eNjpwcFjiWTyb81NTfcuXry4deLKpL9jfVNgz5aYNKlW4bnf5PjYpSn++bmRZDKVetPmfC+AmFDI6YNPPvnkC2vWrKk7PThIs7kcpZSKkiQ5vV6vp7SszO8tKamkhKzQVHWeoqofKYpiO53OBq/HQ3kBkCSKIOD2mbNnu1JTU11rVq9+fOfOnQ9wkPKaGpd391ZV8McOoRRXMG9ZGzn08SQxdNNrmeZiwzRHAAwJAHyhmprvbd22rf1YZyfGL1+GruuQZRnZbBbpdBrpdBqpqRQIISRQVlZrGnplLi8fUWTZpJTWU4FSmzEosswujF7symSzPd946KGNO555ZsXQ8DCJnDmJ575diYXyfsDQAE1BXakMMdSG4z0XIVDi0TQ1Y9v8uACgtqmp6ZmWlpbGwUgExd0WiQoANrehqRps24bT5UIwGKwydL0im8t9IOdyUVWRfflcPptKpT5UVHXg4Q0bNn3r6aeXdZ04gcHIIHY91Yz7vYeATHymVEg+iUV3+BAnTRg5l4Ch64phmocpgFK3y1WeyWZhmuYNuy6z2IxumaYJQimam5uWVASD7SZjr2Vy+e3TmcwTmmG8smrlyvsfe/zxpQcOHEBfXz/WtTeiI3QaiF26Wk9GwUzAPdaFH22guKetBYTQIIAABeCUHA6npmk3lYFinymSV9M0gFDUhkKLAQSWLlrU43a5ugF4FyxYsKS3pxcnTw5gxfIQdrQmIY31Xw+maKqJUPQQdm8PofGOsBeAVwTATcPgZqGnYFbK/rMD27YNQgg453A5nVAoNQHoZz/7TCj0FPXUqVNaaVkZ6sLl+PHWAMov/wlQ2c3lVZtGq3gMe76/tuZnLxntAoBgWVlZR104XBuNRm+q3oZhzICtqa6GJElseHj4iKppw26X6wFK6X2MMS09Pe3mttWyY0eH0BwWkKS1MCuWoUSOgygKwHDVLACOUsQbOzBOwwiGFwoq8y0XAEgOSbo/HA43T09Pz6RntjxwzmGaJixmIRwOw+f1Wr19fcempqcj69at++6mRx7ZbjP2YDqdvlPVtD5d1+Wxi7GGniEm7O9TYftDaPNGgUzqGiATMKuX4sX+Ovz+SA6//WPXZ6PnL70jAGC6rt/h9rhXiqJIdV3/Lw4VJWF+eD68Ho/V3dNzNJlKfbJ58+bNjz766JKTAwNCPJEQ3G53FWNWXS4vH81k84lSf2CBr9QnPnGPhLor3YBuXRehqcoV2BcRQW2H3fVx9xuXx6MvCAAsxpiWz+ZaHQ6pRhBEiIIAt9sNv8+HYCCAqqoqVFdVwdR1pbe390AylfpkY0fH1q3btjXv27cPIyMjIITA4/WiorIiwCyrNp1OH0mmpvSN61Y0bw+ehzgxCs6vgSGiB58GV+FYREEk8unZyWh0L4ALYoGMp6bS6V9omvYDv8/X4nA6iSAIBgFUECIz284ZhhGfmprq1Q0j097e/sNvbt7cfPDgQSQScQQCAVBKIYoiXC4XgoHgwr6+/qfaVi7Vn72bQDw9ANOaNTcygNYswOGziv7hBx915XLZVwGcBMCL4qoB2K9o2qCiaY0ApMLYkAegFCwPQKyfP//F9evXLz9y5AgSiQQqK6tAKQWlFAQEhmEgI+ewek3rwj3raxE6/S6MrHHdbEqJiIv+5Ti6f/TdTCb9PICxgupfp/YGgM8LdrOnqaG+/s54PI6enh74/X4YhoGrIy2HqmkQHQRr2xbi6UYDtQPvQs2mrh+UGSAuXoH3J1zj3T1DvyqvCJ5PJadueUDzSw6HPx6PQ1VVaJqGZCKGu+9qQkNdOZqranFvOcHC1DDQOQjFMq7vPzYgBSpxsrKVvfP2qTe0fHZAy3+xidHr8/ncqqqCMQZCCCpD5fjl1mWYd/YE7PEEWCQB1SikiBQYSgBuA5KrBBN3rsdrnWP/6O7sf9XldjFN1b4QIJ/b5XLmFWWma4NSYGICuf7TYBQgNzjHcAY4vH4kV23EK0NK75//cnRPY1N9fPTcpS90DAKAUofT6ZRleaZHwbZhWwSGQWDqgKFeM10BjBwglM5DrP0xvDwkd7351oFdrSvvPnMjMHONEKGElBBCJFmWr9c6EzBVgJFZJzgGOEtKIH7lqxiYv0j9XffoX9/7+/GfV4eqR0581P2lnDq4zXkmEonoiqq6r0oLB7c5bI3DzHNwARAkBxzBIGjTIlyqb8bBWH7k/T907h2O/Ott0eHIXrlw6Us9Bp0+c+bTU2WBwFqv1wPTYhAIhVAdhmfVWiglHkz5yjAqenB8NIqjbx3uH7s08RNmmp0AuFUQ6C/zOkYCsNohSbv9fv99wWDQ73E56IqWBnAAacVAMp3j09OZ3MTlif5cLvsSgA+LTe92XViJAOYDaBMFYZkkSbWEUA+llNg2U0zLijLGzti23Qfg4lzA3Cqg2f86C9d5YuHdLMiQcSvXeQDwbxLMtrIbcsD9AAAAWXRFWHRjb21tZW50AEZpbGUgc291cmNlOiBodHRwczovL3d3dy5kdXN0bG9vcC5jb20vd2lraS9pbmRleC5waHA/dGl0bGU9RmlsZTpJbnB1dEljb25fMjM2LnBuZ3bkFVwAAAAldEVYdGRhdGU6Y3JlYXRlADIwMjEtMDgtMTBUMTk6MDM6NDUrMDA6MDCybKU0AAAAJXRFWHRkYXRlOm1vZGlmeQAyMDIxLTA4LTEwVDE5OjAzOjQ1KzAwOjAwwzEdiAAAACB0RVh0c29mdHdhcmUAaHR0cHM6Ly9pbWFnZW1hZ2ljay5vcme8zx2dAAAAGHRFWHRUaHVtYjo6RG9jdW1lbnQ6OlBhZ2VzADGn/7svAAAAF3RFWHRUaHVtYjo6SW1hZ2U6OkhlaWdodAA4MssAIT8AAAAWdEVYdFRodW1iOjpJbWFnZTo6V2lkdGgAODIzr+GyAAAAGXRFWHRUaHVtYjo6TWltZXR5cGUAaW1hZ2UvcG5nP7JWTgAAABd0RVh0VGh1bWI6Ok1UaW1lADE2Mjg2MjIyMjU0jQzsAAAAEnRFWHRUaHVtYjo6U2l6ZQA4MDE5QkJBSMRvAAAAAElFTkSuQmCC;flipH=1;" vertex="1" parent="1">
          <mxGeometry x="584" y="150" width="46" height="46" as="geometry" />
        </mxCell>
        <mxCell id="-rYXa19Bb-40bHIPveaP-35" value="" style="shape=image;verticalLabelPosition=bottom;labelBackgroundColor=default;verticalAlign=top;aspect=fixed;imageAspect=0;image=data:image/png,iVBORw0KGgoAAAANSUhEUgAAACQAAAAkCAYAAADhAJiYAAAABGdBTUEAALGPC/xhBQAAACBjSFJNAAB6JgAAgIQAAPoAAACA6AAAdTAAAOpgAAA6mAAAF3CculE8AAAABmJLR0QA/wD/AP+gvaeTAAAAB3RJTUUH5QgKEwQ1+S+XOgAACdpJREFUWMO1WGtsFNcV/u6dmX161971e/FiG2JjnknUOk6gKgEnKRATyiMPlDRqSVUF2qoSlZqKSFVUVc2vNLRSIkVR8qNpqjZ9kJSmQAgB0xi/MMEbsBsTMBgb79Pe17znzu0Pdo1poapJGOn8mJHmnu+e853znXsJbu2hAEoAVAAIAHABIABUAGkASQA5APZcFya3AMZPgK9VV1dvCIVCS8pKS6sEQXCalgU5n9fjiUQykUgMKap6CEBnAeBtA1Ticbu/s2XLlt2tra31mq6TfD4PVVVhmiaYZUFWFFweG+NDQ0NXJqPRlznnrwPI/r8OxDkCWtbR0bGrY+PGhsOHDyMWi8GyLNj2tcwQQuBwOklDQ8M8Wc7vzGRzA43AsdE5cGEu0WxpbGwM9/b2YmxsDIyxGRAAwDkHYwy6rsPhdKDU55sHYOnoHPzMNUJCMpkkvADCtm1wzm9oAIEoSQSAMBdqzCVCHEBWlmVdFEXYtv0/jVICyeEwCvyxb1eEsrquG0IBEKV0hj+zo2XbNlwuJyRR0gFkCpu5LYBycj6vCZTOOJ6dpuI7YwySKIFSqs+lwm4FkJzJZNWic9u2YVkWGGPgnIMQAloAK0oSOOc6gPwNaMJvFjXxBpVU/GYXbPaP0/F4LD555UpLPp+HYRgzUSlWGSEEgiBCoBSKqiYApACAEgKb85KFC+bvNA3zwtj45PuFtc3ZHJsNqIwQ0uZxu+/iti1pup6xOc8UQp4tLDw1PjHxTyoIbT6/33nVuTCzgG3bYIwhGAxAVVUrFot9XHDWanNeUV9ft/b5n27dde58NLH31+99nRKkFU2NcM6PF+SGF8sxEAwEdm7atOnZqurq2ujkJJEVxbQsyzR03cjlcloiHs9eHh8/KStKl9PheDgcDq8vCwTEIqmL3CnxeuH1eNjpwcFjiWTyb81NTfcuXry4deLKpL9jfVNgz5aYNKlW4bnf5PjYpSn++bmRZDKVetPmfC+AmFDI6YNPPvnkC2vWrKk7PThIs7kcpZSKkiQ5vV6vp7SszO8tKamkhKzQVHWeoqofKYpiO53OBq/HQ3kBkCSKIOD2mbNnu1JTU11rVq9+fOfOnQ9wkPKaGpd391ZV8McOoRRXMG9ZGzn08SQxdNNrmeZiwzRHAAwJAHyhmprvbd22rf1YZyfGL1+GruuQZRnZbBbpdBrpdBqpqRQIISRQVlZrGnplLi8fUWTZpJTWU4FSmzEosswujF7symSzPd946KGNO555ZsXQ8DCJnDmJ575diYXyfsDQAE1BXakMMdSG4z0XIVDi0TQ1Y9v8uACgtqmp6ZmWlpbGwUgExd0WiQoANrehqRps24bT5UIwGKwydL0im8t9IOdyUVWRfflcPptKpT5UVHXg4Q0bNn3r6aeXdZ04gcHIIHY91Yz7vYeATHymVEg+iUV3+BAnTRg5l4Ch64phmocpgFK3y1WeyWZhmuYNuy6z2IxumaYJQimam5uWVASD7SZjr2Vy+e3TmcwTmmG8smrlyvsfe/zxpQcOHEBfXz/WtTeiI3QaiF26Wk9GwUzAPdaFH22guKetBYTQIIAABeCUHA6npmk3lYFinymSV9M0gFDUhkKLAQSWLlrU43a5ugF4FyxYsKS3pxcnTw5gxfIQdrQmIY31Xw+maKqJUPQQdm8PofGOsBeAVwTATcPgZqGnYFbK/rMD27YNQgg453A5nVAoNQHoZz/7TCj0FPXUqVNaaVkZ6sLl+PHWAMov/wlQ2c3lVZtGq3gMe76/tuZnLxntAoBgWVlZR104XBuNRm+q3oZhzICtqa6GJElseHj4iKppw26X6wFK6X2MMS09Pe3mttWyY0eH0BwWkKS1MCuWoUSOgygKwHDVLACOUsQbOzBOwwiGFwoq8y0XAEgOSbo/HA43T09Pz6RntjxwzmGaJixmIRwOw+f1Wr19fcempqcj69at++6mRx7ZbjP2YDqdvlPVtD5d1+Wxi7GGniEm7O9TYftDaPNGgUzqGiATMKuX4sX+Ovz+SA6//WPXZ6PnL70jAGC6rt/h9rhXiqJIdV3/Lw4VJWF+eD68Ho/V3dNzNJlKfbJ58+bNjz766JKTAwNCPJEQ3G53FWNWXS4vH81k84lSf2CBr9QnPnGPhLor3YBuXRehqcoV2BcRQW2H3fVx9xuXx6MvCAAsxpiWz+ZaHQ6pRhBEiIIAt9sNv8+HYCCAqqoqVFdVwdR1pbe390AylfpkY0fH1q3btjXv27cPIyMjIITA4/WiorIiwCyrNp1OH0mmpvSN61Y0bw+ehzgxCs6vgSGiB58GV+FYREEk8unZyWh0L4ALYoGMp6bS6V9omvYDv8/X4nA6iSAIBgFUECIz284ZhhGfmprq1Q0j097e/sNvbt7cfPDgQSQScQQCAVBKIYoiXC4XgoHgwr6+/qfaVi7Vn72bQDw9ANOaNTcygNYswOGziv7hBx915XLZVwGcBMCL4qoB2K9o2qCiaY0ApMLYkAegFCwPQKyfP//F9evXLz9y5AgSiQQqK6tAKQWlFAQEhmEgI+ewek3rwj3raxE6/S6MrHHdbEqJiIv+5Ti6f/TdTCb9PICxgupfp/YGgM8LdrOnqaG+/s54PI6enh74/X4YhoGrIy2HqmkQHQRr2xbi6UYDtQPvQs2mrh+UGSAuXoH3J1zj3T1DvyqvCJ5PJadueUDzSw6HPx6PQ1VVaJqGZCKGu+9qQkNdOZqranFvOcHC1DDQOQjFMq7vPzYgBSpxsrKVvfP2qTe0fHZAy3+xidHr8/ncqqqCMQZCCCpD5fjl1mWYd/YE7PEEWCQB1SikiBQYSgBuA5KrBBN3rsdrnWP/6O7sf9XldjFN1b4QIJ/b5XLmFWWma4NSYGICuf7TYBQgNzjHcAY4vH4kV23EK0NK75//cnRPY1N9fPTcpS90DAKAUofT6ZRleaZHwbZhWwSGQWDqgKFeM10BjBwglM5DrP0xvDwkd7351oFdrSvvPnMjMHONEKGElBBCJFmWr9c6EzBVgJFZJzgGOEtKIH7lqxiYv0j9XffoX9/7+/GfV4eqR0581P2lnDq4zXkmEonoiqq6r0oLB7c5bI3DzHNwARAkBxzBIGjTIlyqb8bBWH7k/T907h2O/Ott0eHIXrlw6Us9Bp0+c+bTU2WBwFqv1wPTYhAIhVAdhmfVWiglHkz5yjAqenB8NIqjbx3uH7s08RNmmp0AuFUQ6C/zOkYCsNohSbv9fv99wWDQ73E56IqWBnAAacVAMp3j09OZ3MTlif5cLvsSgA+LTe92XViJAOYDaBMFYZkkSbWEUA+llNg2U0zLijLGzti23Qfg4lzA3Cqg2f86C9d5YuHdLMiQcSvXeQDwbxLMtrIbcsD9AAAAWXRFWHRjb21tZW50AEZpbGUgc291cmNlOiBodHRwczovL3d3dy5kdXN0bG9vcC5jb20vd2lraS9pbmRleC5waHA/dGl0bGU9RmlsZTpJbnB1dEljb25fMjM2LnBuZ3bkFVwAAAAldEVYdGRhdGU6Y3JlYXRlADIwMjEtMDgtMTBUMTk6MDM6NDUrMDA6MDCybKU0AAAAJXRFWHRkYXRlOm1vZGlmeQAyMDIxLTA4LTEwVDE5OjAzOjQ1KzAwOjAwwzEdiAAAACB0RVh0c29mdHdhcmUAaHR0cHM6Ly9pbWFnZW1hZ2ljay5vcme8zx2dAAAAGHRFWHRUaHVtYjo6RG9jdW1lbnQ6OlBhZ2VzADGn/7svAAAAF3RFWHRUaHVtYjo6SW1hZ2U6OkhlaWdodAA4MssAIT8AAAAWdEVYdFRodW1iOjpJbWFnZTo6V2lkdGgAODIzr+GyAAAAGXRFWHRUaHVtYjo6TWltZXR5cGUAaW1hZ2UvcG5nP7JWTgAAABd0RVh0VGh1bWI6Ok1UaW1lADE2Mjg2MjIyMjU0jQzsAAAAEnRFWHRUaHVtYjo6U2l6ZQA4MDE5QkJBSMRvAAAAAElFTkSuQmCC;flipH=1;" vertex="1" parent="1">
          <mxGeometry x="368" y="330" width="46" height="46" as="geometry" />
        </mxCell>
        <mxCell id="-rYXa19Bb-40bHIPveaP-37" value="&lt;font style=&quot;font-size: 25px;&quot;&gt;L&lt;/font&gt;" style="text;html=1;align=center;verticalAlign=middle;whiteSpace=wrap;rounded=0;fontSize=25;fontColor=#BA13B5;" vertex="1" parent="1">
          <mxGeometry x="420" y="327.5" width="50" height="51" as="geometry" />
        </mxCell>
      </root>
    </mxGraphModel>
  </diagram>
</mxfile>
